<?xml version="1.0" standalone="no"?>
<!DOCTYPE svg PUBLIC "-//W3C//DTD SVG 1.1//EN" "http://www.w3.org/Graphics/SVG/1.1/DTD/svg11.dtd" >
<svg xmlns="http://www.w3.org/2000/svg" xmlns:xlink="http://www.w3.org/1999/xlink" version="1.1">
<metadata>
Created by FontForge 20161116 at Thu Aug  6 09:10:19 2009
 By Jimmy Warting
(c) 2007-2008 Typodermic. This font is freeware. Read attached text file for details. Check out the rest of the Gnuolane family and the OpenType version at Typodermic: http://www.typodermic.com
Cyrillic part designed by Sergiy S. Tkachenko / 4th february (foundry4feb@gmail.com)
</metadata>
<defs>
<font id="GnuolaneFreeCyrillic" horiz-adv-x="470" >
  <font-face 
    font-family="Gnuolane Free Cyrillic"
    font-weight="400"
    font-stretch="normal"
    units-per-em="1000"
    panose-1="2 11 5 6 4 0 0 2 0 4"
    ascent="800"
    descent="-200"
    x-height="543"
    cap-height="745"
    bbox="-119 -219 746 973"
    underline-thickness="50"
    underline-position="-100"
    unicode-range="U+000D-FB04"
  />
<missing-glyph horiz-adv-x="279" 
d="M11 0v745h258v-745h-258zM216 695h-147v-642h147v642z" />
    <glyph glyph-name=".notdef" horiz-adv-x="279" 
d="M11 0v745h258v-745h-258zM216 695h-147v-642h147v642z" />
    <glyph glyph-name=".null" horiz-adv-x="0" 
 />
    <glyph glyph-name=".null" horiz-adv-x="0" 
 />
    <glyph glyph-name="nonmarkingreturn" unicode="&#xd;" horiz-adv-x="472" 
 />
    <glyph glyph-name="space" unicode=" " horiz-adv-x="212" 
 />
    <glyph glyph-name="exclam" unicode="!" horiz-adv-x="197" 
d="M58 233l-19 549h118l-19 -549h-80zM51 0v130h93v-130h-93z" />
    <glyph glyph-name="quotedbl" unicode="&#x22;" horiz-adv-x="256" 
d="M174 486l-10 292h81l-8 -292h-63zM21 486l-10 292h81l-10 -292h-61z" />
    <glyph glyph-name="numbersign" unicode="#" horiz-adv-x="490" 
d="M201 66l51 174h-98l-54 -193l-74 19q13 45 25.5 87t24.5 87h-61v65h78l47 170h-84v64h104l56 202l73 -20l-51 -182h96l56 202l75 -20l-53 -182h61v-64h-79l-47 -170h86v-65h-104l-53 -193zM314 475h-94l-49 -170h96z" />
    <glyph glyph-name="dollar" unicode="$" horiz-adv-x="363" 
d="M149 0v85q-63 7 -94.5 46t-31.5 123l81 12q0 -23 2.5 -42.5t9.5 -34t20.5 -23t35.5 -8.5q48 0 63 21t15 58q0 23 -5.5 39.5t-16.5 29t-26.5 22t-36.5 19.5q-30 14 -53 29.5t-38.5 35t-24 44.5t-8.5 58q0 54 22.5 90t85.5 43v98h58v-96q31 -3 52 -10.5t34 -21.5t20.5 -36
t12.5 -55l-74 -14q-5 33 -18 48t-46 15q-26 0 -42.5 -11.5t-16.5 -46.5q0 -34 15.5 -56t53.5 -40q30 -15 55 -29t43 -33t27.5 -46t9.5 -67q0 -70 -30 -110.5t-96 -48.5v-87h-58z" />
    <glyph glyph-name="percent" unicode="%" horiz-adv-x="619" 
d="M149 355q-42 0 -66 15.5t-36 43.5t-14.5 65t-2.5 81q0 47 2.5 85t14.5 65t36 41.5t66 14.5q43 0 67 -14.5t35.5 -41.5t14 -65t2.5 -85q0 -44 -2.5 -81t-14 -65t-35.5 -43.5t-67 -15.5zM116 0l321 756h67l-320 -756h-68zM149 414q19 0 29.5 8t15.5 26t6 45.5t1 66.5t-1 67
t-6 45t-15.5 25t-29.5 8t-29.5 -8t-16 -25t-6.5 -45t-1 -67t1 -66.5t6.5 -45.5t16 -26t29.5 -8zM470 -10q-42 0 -66 15.5t-36 43t-14.5 65t-2.5 81.5q0 47 2.5 85t14.5 64.5t36 41t66 14.5q43 0 67 -14.5t35.5 -41t14 -64.5t2.5 -85q0 -44 -2.5 -81.5t-14 -65t-35.5 -43
t-67 -15.5zM470 49q19 0 29.5 8t15.5 26t6 45.5t1 66.5t-1 67t-6 45t-15.5 25t-29.5 8t-29.5 -8t-16 -25t-6.5 -45t-1 -67t1 -66.5t6.5 -45.5t16 -26t29.5 -8z" />
    <glyph glyph-name="ampersand" unicode="&#x26;" horiz-adv-x="519" 
d="M457 -7q-15 16 -35 37.5t-34 38.5q-31 -38 -71.5 -61t-97.5 -23q-56 0 -93 16t-59.5 41.5t-32 56t-9.5 60.5q0 52 10.5 93t30 74.5t47 60.5t60.5 51q-26 49 -37.5 98.5t-11.5 94.5q0 22 3.5 44.5t15.5 41t35.5 30t63.5 11.5q68 0 91.5 -31.5t23.5 -94.5q0 -39 -8.5 -70
t-23 -56t-33.5 -46t-39 -39q31 -57 62.5 -105t64.5 -93q17 45 23.5 92.5t9.5 92.5l81 -15q-8 -60 -20.5 -123t-35.5 -120q17 -19 40 -42.5t40 -41.5zM201 364q-38 -32 -60.5 -75.5t-22.5 -106.5q0 -24 4.5 -45.5t16 -37.5t30 -25.5t46.5 -9.5q42 0 72 20t52 53
q-39 54 -73.5 110.5t-64.5 116.5zM224 489q27 26 46 59.5t19 75.5q0 29 -9.5 47.5t-37.5 18.5q-30 0 -39 -21t-9 -46q0 -29 8 -64t22 -70z" />
    <glyph glyph-name="quotesingle" unicode="'" horiz-adv-x="103" 
d="M21 486l-10 292h81l-9 -292h-62z" />
    <glyph glyph-name="parenleft" unicode="(" horiz-adv-x="315" 
d="M249 -140q-61 22 -102.5 66t-67.5 104.5t-37.5 134.5t-11.5 155q0 73 9 144t30.5 133t57 112t89.5 82l44 -52q-37 -26 -65 -69t-47 -98t-29 -119t-10 -133q0 -76 11.5 -142.5t33.5 -119t55 -89.5t76 -55z" />
    <glyph glyph-name="parenright" unicode=")" horiz-adv-x="315" 
d="M56 -90q37 27 65 69.5t47 96.5t28.5 118t9.5 134q0 76 -11.5 142.5t-34 119t-55.5 89.5t-75 55l36 55q61 -23 103 -67.5t67.5 -105t37 -134t11.5 -154.5q0 -73 -9 -143.5t-30.5 -132.5t-57 -112t-89.5 -82z" />
    <glyph glyph-name="asterisk" unicode="*" horiz-adv-x="488" 
d="M324 357l-79 138l-88 -136l-71 53l112 119l-168 43l27 75l156 -65l-17 161h95l-15 -162l158 65l24 -76l-169 -40l111 -122z" />
    <glyph glyph-name="plus" unicode="+" horiz-adv-x="530" 
d="M233 136v204h-203v63h203v204h63v-204h204v-63h-204v-204h-63z" />
    <glyph glyph-name="comma" unicode="," horiz-adv-x="163" 
d="M33 -101q52 52 52 107h-46v124h95v-105q0 -70 -74 -147z" />
    <glyph glyph-name="hyphen" unicode="-" horiz-adv-x="219" 
d="M11 262l8 63h190l-8 -63h-190z" />
    <glyph glyph-name="period" unicode="." horiz-adv-x="153" 
d="M30 0v130h94v-130h-94z" />
    <glyph glyph-name="slash" unicode="/" horiz-adv-x="250" 
d="M4 0l183 745h59l-183 -745h-59z" />
    <glyph glyph-name="zero" unicode="0" horiz-adv-x="439" 
d="M219 -13q-71 0 -109 18.5t-56 63t-21 118.5t-3 185t3 185.5t21 119t56 63t109 18.5q70 0 108.5 -18.5t56.5 -63t21.5 -118.5t3.5 -186q0 -111 -3.5 -185.5t-21.5 -118.5t-56.5 -62.5t-108.5 -18.5zM219 66q32 0 50 14t26.5 48.5t10.5 94t2 149.5t-2 149.5t-10.5 95
t-26.5 49.5t-50 14q-33 0 -51 -14t-26.5 -49.5t-10.5 -95t-2 -149.5t1.5 -149.5t10.5 -94t27 -48.5t51 -14z" />
    <glyph glyph-name="one" unicode="1" horiz-adv-x="248" 
d="M119 0v624q-10 -17 -35.5 -33t-62.5 -19l-12 74q55 11 87.5 37.5t58.5 74.5h63v-758h-99z" />
    <glyph glyph-name="two" unicode="2" horiz-adv-x="399" 
d="M30 0v74q46 43 88.5 97.5t75.5 116t52.5 127.5t19.5 133q0 74 -16.5 103t-55.5 29q-24 0 -38 -9t-22 -30t-11.5 -55.5t-6.5 -85.5l-91 13q3 61 8 107t22 76.5t51 46t96 15.5q47 0 77.5 -11.5t48.5 -37t25 -65t7 -96.5q0 -69 -20 -136t-51.5 -128.5t-69.5 -114.5t-74 -93
h230l-5 -76h-340z" />
    <glyph glyph-name="three" unicode="3" horiz-adv-x="405" 
d="M102 170q4 -26 9 -45t15 -32.5t26 -20t42 -6.5q31 0 49 9.5t27.5 29t12.5 49t3 68.5q0 33 -3.5 57t-13.5 39t-28.5 22.5t-47.5 7.5h-53l8 76h45q22 0 36 6t22 19.5t11 36.5t3 58q0 36 -2 62t-8.5 42.5t-20 24t-37.5 7.5q-21 0 -34.5 -5.5t-22 -18t-13 -33.5t-7.5 -51
l-84 8q3 50 10.5 84t25 55t47.5 30t78 9q57 0 89 -15t48.5 -42t20.5 -64.5t4 -83.5q0 -27 -4 -54t-12 -49.5t-20.5 -38.5t-29.5 -22q51 -17 69 -62.5t18 -111.5q0 -47 -4.5 -88t-22.5 -72.5t-55 -49.5t-102 -18q-50 0 -82.5 10.5t-52 31t-28.5 49.5t-12 65z" />
    <glyph glyph-name="four" unicode="4" horiz-adv-x="381" 
d="M238 0v152h-225v65l205 528h117v-514h42l-8 -79h-34v-152h-97zM238 589l-140 -358h140v358z" />
    <glyph glyph-name="five" unicode="5" horiz-adv-x="403" 
d="M78 158q17 -44 40.5 -68t64.5 -24q34 0 53 11t28 33t10.5 55.5t1.5 78.5q0 40 -2 69t-9.5 47t-22.5 26.5t-40 8.5q-54 0 -88 -33l-65 33l22 350h282l-9 -84h-183l-13 -209q34 25 106 25q39 0 63.5 -14t38 -42.5t18.5 -70.5t5 -99q0 -63 -4.5 -112t-23.5 -82.5
t-56.5 -51.5t-104.5 -18q-36 0 -63 7.5t-48 22.5t-37 38t-31 54z" />
    <glyph glyph-name="six" unicode="6" horiz-adv-x="433" 
d="M309 582q-2 24 -6.5 42t-14 30.5t-26.5 19t-43 6.5q-32 0 -51 -15t-29.5 -48t-14 -86t-3.5 -129q23 40 63 60t80 20q50 0 78.5 -18t43 -49.5t18 -75.5t3.5 -95q0 -58 -5 -105.5t-24 -81t-56.5 -52t-102.5 -18.5q-69 0 -107 29.5t-56.5 79.5t-22 115t-3.5 137q0 121 9 200
t30.5 125.5t56.5 65.5t88 19q46 0 78 -8t52.5 -26t30 -45.5t11.5 -66.5zM129 309q1 -66 3.5 -112t11 -75t25.5 -42.5t48 -13.5t49 12.5t27 35t11 53.5t2 68q0 44 -2 75.5t-10 52t-24.5 30t-44.5 9.5q-32 0 -58 -24t-38 -69z" />
    <glyph glyph-name="seven" unicode="7" horiz-adv-x="333" 
d="M55 0q4 96 18 192.5t36.5 184.5t52.5 162.5t66 127.5h-211l8 78h296v-61q-36 -45 -62 -122t-44.5 -170t-29 -194.5t-14.5 -197.5h-116z" />
    <glyph glyph-name="eight" unicode="8" horiz-adv-x="426" 
d="M288 401q57 -19 86 -65.5t29 -140.5q0 -59 -10.5 -99t-33.5 -64t-59 -34.5t-86 -10.5t-86 10.5t-59 34.5t-33.5 64t-10.5 99q0 47 5 81.5t18 59t35.5 40t57.5 24.5q-27 7 -44.5 20t-27 34t-13.5 52t-4 75q0 42 8 75t27 55.5t50 34.5t77 12q89 0 125.5 -45.5t36.5 -131.5
q0 -44 -4.5 -75t-15 -52t-27.5 -33.5t-41 -19.5zM209 362q-25 -8 -42 -19.5t-27.5 -30t-15 -46.5t-4.5 -68q0 -71 18.5 -104.5t71.5 -33.5t71 33.5t18 104.5q0 39 -4.5 66t-15 45.5t-28 30.5t-42.5 22zM218 436q19 9 32.5 18.5t22.5 25t13 40.5t4 64q0 60 -16 83t-55 23
t-56.5 -23t-17.5 -83q0 -39 4 -63.5t12.5 -40t22.5 -25.5t34 -19z" />
    <glyph glyph-name="nine" unicode="9" horiz-adv-x="433" 
d="M107 176q2 -24 8.5 -44.5t18.5 -35.5t30.5 -24t44.5 -9q31 0 51 18t31.5 54.5t15.5 91t4 128.5q-22 -30 -60 -51t-83 -21q-50 0 -78 18t-42.5 49.5t-18 74.5t-3.5 94q0 59 5 103.5t24 74.5t56.5 45t102.5 15q69 0 107 -26.5t56.5 -72t22 -107.5t3.5 -134
q0 -121 -10 -203.5t-32 -133t-58.5 -72.5t-88.5 -22q-94 0 -136.5 41t-46.5 120zM303 445q0 67 -2 111.5t-10.5 71.5t-26 38t-48.5 11t-49 -9.5t-27 -28.5t-11.5 -48t-2.5 -69q0 -41 2 -71.5t10 -50t25 -29t46 -9.5q31 0 55.5 24t38.5 59z" />
    <glyph glyph-name="colon" unicode=":" horiz-adv-x="153" 
d="M30 0v130h94v-130h-94zM30 413v130h94v-130h-94z" />
    <glyph glyph-name="semicolon" unicode=";" horiz-adv-x="160" 
d="M34 413v130h94v-130h-94zM27 -101q52 52 52 107h-46v124h95v-105q0 -70 -74 -147z" />
    <glyph glyph-name="less" unicode="&#x3c;" horiz-adv-x="393" 
d="M30 335v52l333 221v-76l-272 -170l272 -168v-74z" />
    <glyph glyph-name="equal" unicode="=" horiz-adv-x="553" 
d="M30 246v63h493v-63h-493zM30 454v63h493v-63h-493z" />
    <glyph glyph-name="greater" unicode="&#x3e;" horiz-adv-x="393" 
d="M30 120v74l271 168l-271 170v76l333 -221v-52z" />
    <glyph glyph-name="question" unicode="?" horiz-adv-x="367" 
d="M126 226q-13 25 -13 63q0 36 10.5 65t25.5 54t33.5 48.5t33.5 47.5t25.5 50t10.5 58q0 57 -13.5 82t-57.5 25q-26 0 -41 -10t-23.5 -30.5t-12 -52t-5.5 -73.5l-88 12q3 61 10 105t25 72.5t51.5 42t89.5 13.5q49 0 81 -10.5t50 -32.5t25 -57.5t7 -84.5q0 -42 -11.5 -74
t-28.5 -58t-37 -48.5t-37 -45.5t-28.5 -48.5t-11.5 -58.5q0 -29 9 -54h-79zM118 0v130h94v-130h-94z" />
    <glyph glyph-name="at" unicode="@" horiz-adv-x="590" 
d="M562 -55q-27 -45 -81 -70t-135 -25q-67 0 -116.5 5.5t-84.5 21.5t-57.5 45.5t-35 78t-17.5 118t-5 165.5q0 92 2.5 161t11 118t25.5 80.5t46.5 50t72.5 25.5t105 7q94 0 146.5 -14t78 -54t31 -112t5.5 -187q0 -83 -9.5 -133.5t-25.5 -78.5t-37.5 -37t-46.5 -9
q-34 0 -50 19.5t-21 43.5q-18 -63 -72 -63q-35 0 -54.5 8t-29 29.5t-12 59.5t-2.5 97q0 58 2.5 95t12 58t29 28.5t53.5 7.5q23 0 36 -14t21 -31q1 30 6 51h35v-264q0 -26 10 -46.5t30 -20.5q14 0 25 6t19 27t12 62.5t4 112.5q0 94 -4.5 150.5t-23.5 87.5t-58.5 41t-109.5 10
q-46 0 -78 -4.5t-54 -18.5t-34.5 -39.5t-19 -67t-8.5 -101t-2 -141.5q0 -87 4.5 -148t15 -101t29 -62.5t46.5 -33.5t66.5 -13.5t89.5 -2.5q73 0 116 23t65 57zM338 365q-8 30 -17.5 46.5t-29.5 16.5q-15 0 -23.5 -5t-12.5 -19t-5 -39.5t-1 -66.5q0 -42 1 -68.5t5.5 -42.5
t13.5 -22t26 -6q20 0 31.5 20.5t11.5 55.5v130z" />
    <glyph glyph-name="A" unicode="A" horiz-adv-x="421" 
d="M303 0l-30 179h-139l-31 -179h-94l148 745h105l150 -745h-109zM204 584l-63 -326h123z" />
    <glyph glyph-name="B" unicode="B" horiz-adv-x="438" 
d="M40 0v745h157q69 0 108.5 -13t59.5 -37t25 -58t5 -76q0 -60 -21.5 -103.5t-75.5 -56.5q67 -14 93.5 -59t26.5 -114q0 -48 -3.5 -89.5t-21 -72.5t-55 -48.5t-106.5 -17.5h-192zM206 73q42 0 65.5 10t35 29t13.5 47t2 65q0 32 -3.5 57t-14.5 41.5t-31 25t-52 8.5h-87v-283
h72zM209 427q30 0 47.5 9.5t27 26t12 39.5t2.5 51q0 33 -4 55t-14.5 35.5t-29.5 19.5t-50 6h-66v-242h75z" />
    <glyph glyph-name="C" unicode="C" horiz-adv-x="444" 
d="M419 252q-5 -68 -10.5 -117.5t-23.5 -82.5t-54.5 -49t-102.5 -16q-72 0 -112 24.5t-59 72.5t-23 120t-4 168q0 95 4 167t23 121t59 73.5t112 24.5q67 0 104.5 -13.5t56 -44.5t23.5 -80.5t7 -121.5l-97 -13q-2 61 -4.5 99.5t-11.5 59.5t-27 28.5t-51 7.5t-52 -17.5
t-28 -54.5t-11.5 -95.5t-2.5 -140.5q0 -83 2.5 -141t11.5 -95t28 -53.5t52 -16.5t51 10t26.5 32.5t10.5 59.5t4 92z" />
    <glyph glyph-name="D" unicode="D" 
d="M40 0v745h167q81 0 127.5 -23.5t70 -70t29.5 -116.5t6 -163q0 -102 -5.5 -173t-28 -115t-68 -64t-124.5 -20h-174zM216 82q42 0 66.5 16t37 51t16 90t3.5 133q0 82 -3 138.5t-15.5 91.5t-39 51t-72.5 16h-71v-587h78z" />
    <glyph glyph-name="E" unicode="E" horiz-adv-x="353" 
d="M40 0v745h286v-78h-187v-235h157l-7 -79h-150v-277h192v-76h-291z" />
    <glyph glyph-name="F" unicode="F" horiz-adv-x="356" 
d="M40 0v745h307v-78h-207v-247h168l-8 -79h-160v-341h-100z" />
    <glyph glyph-name="G" unicode="G" horiz-adv-x="447" 
d="M341 0l-9 71q-7 -17 -17.5 -32t-26.5 -26.5t-39 -18.5t-54 -7q-60 0 -93.5 27.5t-49 78.5t-19 123t-3.5 161q0 87 4 157.5t23 120t59 76.5t113 27q65 0 101 -13t53.5 -41t22.5 -72.5t8 -106.5l-82 -20q-2 47 -5 80t-12.5 54t-28.5 30.5t-53 9.5q-37 0 -57.5 -19
t-30.5 -56.5t-12.5 -94.5t-2.5 -132q0 -70 2 -127.5t11 -98t26.5 -63t48.5 -22.5q45 0 71.5 28t31.5 73v137h-93l13 78h173v-382h-73z" />
    <glyph glyph-name="H" unicode="H" horiz-adv-x="451" 
d="M312 0v346h-172v-346h-100v745h100v-321h172v321h99v-745h-99z" />
    <glyph glyph-name="I" unicode="I" horiz-adv-x="179" 
d="M40 0v745h99v-745h-99z" />
    <glyph glyph-name="J" unicode="J" horiz-adv-x="368" 
d="M230 745h98v-565q0 -45 -4.5 -81t-21 -61t-49.5 -38t-89 -13q-36 0 -61.5 7t-43 21.5t-29.5 35.5t-21 49l77 30q8 -32 23.5 -48t52.5 -16q23 0 36.5 6t20.5 19.5t9 33.5t2 49v571z" />
    <glyph glyph-name="K" unicode="K" horiz-adv-x="430" 
d="M305 0l-92 390l-74 -129v-261h-99v745h99v-331l150 331h112l-131 -244l150 -501h-115z" />
    <glyph glyph-name="L" unicode="L" horiz-adv-x="306" 
d="M40 0v745h100v-669h153v-76h-253z" />
    <glyph glyph-name="M" unicode="M" horiz-adv-x="561" 
d="M443 0v543l-115 -543h-96l-120 543v-543h-76v745h118l129 -591l131 591h111v-745h-82z" />
    <glyph glyph-name="N" unicode="N" horiz-adv-x="445" 
d="M305 0l-182 515v-515h-85v745h103l181 -516v516h85v-745h-102z" />
    <glyph glyph-name="O" unicode="O" 
d="M238 -13q-74 0 -115.5 24.5t-62 72.5t-25.5 120t-5 168q0 95 5 167t25.5 121t62 73.5t115.5 24.5q73 0 114 -24t60.5 -72t23.5 -120.5t4 -169.5q0 -98 -4 -170t-23.5 -120t-60.5 -71.5t-114 -23.5zM238 66q35 0 54.5 16.5t29 53.5t11.5 95t2 141q0 82 -2 140.5t-11.5 96
t-29 54.5t-54.5 17q-36 0 -56.5 -17.5t-31 -54.5t-13.5 -95.5t-3 -140.5q0 -83 3 -141t13.5 -95t31 -53.5t56.5 -16.5z" />
    <glyph glyph-name="P" unicode="P" horiz-adv-x="415" 
d="M40 0v745h129q71 0 116 -13t70.5 -38.5t35 -63.5t9.5 -87q0 -55 -9.5 -99t-34 -74.5t-67.5 -47t-110 -16.5h-41v-306h-98zM191 384q36 0 58 10t34 29.5t15.5 48t3.5 64.5q0 31 -3.5 55t-14.5 40.5t-32.5 24.5t-58.5 8h-55v-280h53z" />
    <glyph glyph-name="Q" unicode="Q" 
d="M320 -169q-32 28 -59 71t-40 86q-68 5 -106.5 31t-57 73.5t-23 117t-4.5 162.5q0 95 5 167t25.5 121t62 73.5t115.5 24.5q73 0 114 -24t60.5 -72t23.5 -120.5t4 -169.5q0 -85 -3 -151t-16 -113t-41 -75.5t-77 -38.5q17 -32 39 -60.5t48 -49.5zM238 66q35 0 54.5 16.5
t29 53.5t11.5 95t2 141q0 82 -2 140.5t-11.5 96t-29 54.5t-54.5 17q-36 0 -56.5 -17.5t-31 -54.5t-13.5 -95.5t-3 -140.5q0 -83 3 -141t13.5 -95t31 -53.5t56.5 -16.5z" />
    <glyph glyph-name="R" unicode="R" horiz-adv-x="403" 
d="M284 0l-71 334h-74v-334h-99v745h158q62 0 99.5 -11t57.5 -34.5t26.5 -59.5t6.5 -86q0 -42 -3.5 -77t-13 -61.5t-26 -44.5t-42.5 -25l91 -346h-110zM211 410q28 0 44.5 7t25.5 23.5t11.5 43.5t2.5 66q0 34 -2.5 57.5t-11.5 37.5t-27.5 20.5t-49.5 6.5h-65v-262h72z" />
    <glyph glyph-name="S" unicode="S" horiz-adv-x="399" 
d="M102 235q2 -47 6.5 -79.5t14.5 -52.5t26 -28.5t41 -8.5q27 0 43.5 8t25.5 23.5t12.5 39t3.5 54.5q0 36 -7 62t-20.5 45t-33.5 34.5t-45 30.5q-27 16 -51.5 35t-44 45t-31 60t-11.5 81q0 40 8.5 72t28.5 54.5t53.5 35t83.5 12.5q51 0 81 -13t46.5 -35.5t22 -53.5t7.5 -66
l-79 -11q-2 24 -4.5 43t-10 32t-22.5 19.5t-40 6.5q-26 0 -41.5 -7t-24 -19.5t-11.5 -31t-3 -41.5q0 -29 6.5 -50.5t18.5 -38t28.5 -29t36.5 -24.5q30 -17 58.5 -35.5t51 -46t36 -68.5t13.5 -102q0 -96 -41.5 -148t-143.5 -52q-50 0 -81.5 12.5t-50.5 40t-28 71.5t-13 107z
" />
    <glyph glyph-name="T" unicode="T" horiz-adv-x="361" 
d="M130 0v667h-124v78h350v-78h-127v-667h-99z" />
    <glyph glyph-name="U" unicode="U" horiz-adv-x="434" 
d="M296 745h100v-530q0 -54 -6 -96t-24.5 -71.5t-54 -45t-94.5 -15.5q-57 0 -92.5 15t-54.5 44t-25.5 71.5t-6.5 97.5v530h99v-449q0 -61 2 -104.5t10 -71.5t24 -41t44 -13q27 0 43 13t24 41t10 71.5t2 104.5v449z" />
    <glyph glyph-name="V" unicode="V" horiz-adv-x="421" 
d="M158 0l-149 745h107l100 -574l102 574h94l-150 -745h-104z" />
    <glyph glyph-name="W" unicode="W" horiz-adv-x="648" 
d="M417 0l-90 599l-87 -599h-107l-124 745h106l76 -595l85 595h102l83 -593l74 593h104l-125 -745h-97z" />
    <glyph glyph-name="X" unicode="X" horiz-adv-x="428" 
d="M316 0l-108 288l-102 -288h-97l153 389l-140 356h101l94 -249l89 249h92l-137 -347l158 -398h-103z" />
    <glyph glyph-name="Y" unicode="Y" horiz-adv-x="382" 
d="M143 0v314l-134 431h97l89 -328l94 328h83l-131 -431v-314h-98z" />
    <glyph glyph-name="Z" unicode="Z" horiz-adv-x="352" 
d="M14 0v66l212 600h-180v79h278v-64l-209 -604h220v-77h-321z" />
    <glyph glyph-name="bracketleft" unicode="[" horiz-adv-x="295" 
d="M30 -153v975h235v-61h-158v-851h158v-63h-235z" />
    <glyph glyph-name="backslash" unicode="\" horiz-adv-x="250" 
d="M187 0l-183 745h59l183 -745h-59z" />
    <glyph glyph-name="bracketright" unicode="]" horiz-adv-x="295" 
d="M30 -153v61h156v852h-156v62h235v-975h-235z" />
    <glyph glyph-name="asciicircum" unicode="^" horiz-adv-x="486" 
d="M372 333l-130 298l-133 -298h-79l189 411h46l192 -411h-85z" />
    <glyph glyph-name="underscore" unicode="_" horiz-adv-x="429" 
d="M4 -124v55h422v-55h-422z" />
    <glyph glyph-name="grave" unicode="`" horiz-adv-x="272" 
d="M9 712l50 58l162 -127l-33 -37z" />
    <glyph glyph-name="a" unicode="a" horiz-adv-x="395" 
d="M384 0q-51 0 -74 17.5t-28 42.5q-19 -33 -49 -52t-86 -19q-36 0 -59 12.5t-37 33.5t-19.5 47.5t-5.5 54.5q0 53 8 89.5t33 59t72 32t125 9.5v41q0 28 -2 48.5t-9.5 34t-21.5 19.5t-38 6q-21 0 -34 -5.5t-21 -16.5t-11.5 -29.5t-5.5 -43.5l-79 7q3 42 9.5 73t22 51.5
t43.5 30t74 9.5q52 0 84 -12t50 -36.5t24 -61t6 -84.5v-253q0 -29 11.5 -36t25.5 -7zM264 272q-48 -3 -77 -8.5t-44 -19t-20 -37.5t-5 -64q0 -42 11 -63t42 -21q39 0 61.5 24.5t31.5 72.5v116z" />
    <glyph glyph-name="b" unicode="b" horiz-adv-x="413" 
d="M40 0v788l96 17v-324q7 12 18.5 25t27.5 23t37.5 16.5t49.5 6.5q42 0 65 -19.5t34.5 -56t13.5 -89.5t2 -120q0 -55 -2.5 -105t-17 -88.5t-44 -61.5t-83.5 -23t-82.5 21.5t-49.5 59.5q0 -4 -1 -13.5t-3 -20.5t-4.5 -21t-6.5 -15h-50zM131 128q11 -30 33.5 -47t48.5 -17
q27 0 42.5 11t23.5 35t10 63.5t2 96.5q0 59 -1.5 99t-7.5 64t-19 34t-36 10q-35 0 -59 -21t-37 -53v-275z" />
    <glyph glyph-name="c" unicode="c" horiz-adv-x="387" 
d="M362 184q-2 -36 -7.5 -71t-22 -62.5t-47.5 -44.5t-83 -17q-63 0 -98 22.5t-51.5 61.5t-19.5 90t-3 108q0 58 3 109t20.5 89t54 60.5t102.5 22.5q42 0 69.5 -9.5t44.5 -30.5t25 -55t10 -83l-77 -12q-2 31 -5.5 53t-11.5 35.5t-21 20t-34 6.5q-32 0 -49.5 -14t-26 -41
t-10 -65t-1.5 -86t1.5 -86.5t9 -65.5t23.5 -41.5t45 -14.5q25 0 40.5 9t24.5 25.5t12.5 40.5t5.5 54z" />
    <glyph glyph-name="d" unicode="d" horiz-adv-x="427" 
d="M308 0q-2 6 -3.5 16t-2 21.5t-1 22t-0.5 17.5q-16 -38 -45.5 -62.5t-80.5 -24.5q-52 0 -81 21t-43.5 57t-17.5 84t-3 103q0 67 3.5 122t18.5 94t45.5 60t84.5 21q45 0 72.5 -20t39.5 -46v302l93 17v-805h-79zM294 413q-13 29 -37 46t-53 17q-28 0 -43.5 -12.5
t-23.5 -38.5t-10 -67.5t-2 -99.5q0 -50 1.5 -86.5t8 -60.5t20.5 -36t39 -12q24 0 40.5 8t28 21.5t19 32t12.5 39.5v249z" />
    <glyph glyph-name="e" unicode="e" horiz-adv-x="411" 
d="M382 160q-5 -42 -16 -74t-30.5 -53.5t-50 -32.5t-74.5 -11q-65 0 -101 23.5t-54 62.5t-22 89.5t-4 104.5q0 58 4 110t21.5 90t53 60.5t98.5 22.5q64 0 99.5 -22t52.5 -57t20 -78t3 -85v-42h-263q0 -41 2.5 -78t12 -65.5t29 -45t54.5 -16.5q24 0 40 7.5t26 21.5t15 34
t8 45zM294 364q0 25 -3.5 47t-12.5 38.5t-26 26t-44 9.5q-30 0 -46.5 -12t-25.5 -33t-11.5 -50.5t-3.5 -65.5h173v40z" />
    <glyph glyph-name="f" unicode="f" horiz-adv-x="249" 
d="M37 0v476h-43l8 67h35v76q0 54 7 89.5t22 56t39 29t59 8.5q34 0 55 -9.5t32 -22.5l-17 -67q-21 26 -52 26q-14 0 -24 -4t-16 -16.5t-8.5 -36t-2.5 -62.5v-67h114l-8 -67h-106v-476h-94z" />
    <glyph glyph-name="g" unicode="g" horiz-adv-x="376" 
d="M130 -219q-64 0 -95 35t-31 89q0 67 27 96.5t84 38.5q-31 12 -45.5 30.5t-14.5 62.5q0 39 16 61.5t46 30.5q-42 21 -60 60t-18 93q0 31 6 60.5t23 52.5t47 37.5t77 14.5q17 0 31.5 -2.5t26.5 -6.5q10 32 23.5 59t30.5 43l56 -30q-20 -14 -38.5 -40t-30.5 -53
q30 -23 41 -60t11 -75q0 -35 -7 -67t-23 -56.5t-41.5 -39t-61.5 -14.5h-18t-17 1q-14 -8 -20 -18.5t-6 -30.5q0 -17 11 -32t36 -15h53q24 0 46 -8.5t39.5 -26.5t27.5 -46.5t10 -68.5q0 -95 -38 -135t-120 -40h-84zM299 -61q0 48 -22 63.5t-70 15.5q-30 0 -52.5 -3t-37.5 -12
t-22.5 -25.5t-7.5 -43.5t6.5 -43.5t20.5 -26t36 -13t52 -3.5q54 0 75.5 20t21.5 71zM192 261q36 0 49.5 26t13.5 89q0 62 -13 85.5t-50 23.5t-49.5 -24.5t-12.5 -84.5q0 -61 12.5 -88t49.5 -27z" />
    <glyph glyph-name="h" unicode="h" horiz-adv-x="431" 
d="M297 0v412q0 30 -16 47t-47 17q-35 0 -56.5 -20t-43.5 -65v-391h-94v788l94 17v-333q23 35 54.5 57.5t83.5 22.5q36 0 59 -12t36.5 -32.5t18.5 -46.5t5 -54v-407h-94z" />
    <glyph glyph-name="i" unicode="i" horiz-adv-x="174" 
d="M40 0v543h94v-543h-94zM40 654v130h94v-130h-94z" />
    <glyph glyph-name="j" unicode="j" horiz-adv-x="187" 
d="M53 654v130h94v-130h-94zM-49 -120q10 -14 24.5 -19t28.5 -5q13 0 22.5 4.5t15.5 18.5t8.5 40.5t2.5 70.5v553h94v-579q0 -54 -7 -89.5t-22 -56t-39.5 -29t-58.5 -8.5t-55 9.5t-32 22.5z" />
    <glyph glyph-name="k" unicode="k" horiz-adv-x="394" 
d="M277 0l-70 298l-73 -98v-200h-94v788l94 17v-495l132 233h110l-109 -156l122 -387h-112z" />
    <glyph glyph-name="l" unicode="l" horiz-adv-x="174" 
d="M40 0v788l94 17v-805h-94z" />
    <glyph glyph-name="m" unicode="m" horiz-adv-x="638" 
d="M505 0v397q0 38 -12.5 58.5t-47.5 20.5q-23 0 -40 -17.5t-37 -62.5v-396h-93v412q0 64 -60 64q-23 0 -41.5 -18.5t-39.5 -66.5v-391h-94v543h79q2 -18 5 -38t4 -41q23 43 51 65.5t70 22.5q51 0 76.5 -24.5t34.5 -59.5q23 42 50 63t69 21q36 0 59 -12t36.5 -32.5
t18.5 -46.5t5 -54v-407h-93z" />
    <glyph glyph-name="n" unicode="n" horiz-adv-x="431" 
d="M297 0v412q0 30 -16 47t-47 17q-35 0 -56.5 -20t-43.5 -65v-391h-94v543h79q1 -6 2.5 -16.5t3 -22t2.5 -22.5t1 -18q24 42 58 65t86 23q36 0 59 -12t36.5 -32.5t18.5 -46.5t5 -54v-407h-94z" />
    <glyph glyph-name="o" unicode="o" horiz-adv-x="429" 
d="M214 -11q-69 0 -106 23t-54.5 61.5t-20.5 89t-3 106.5t3 107.5t20.5 90.5t55 62t105.5 23q69 0 106.5 -23t55 -62t20.5 -90.5t3 -107.5t-3 -106.5t-20.5 -89t-55 -61.5t-106.5 -23zM214 63q33 0 51 12t27 37.5t10.5 64t1.5 92.5t-1.5 93t-10.5 64.5t-27 37.5t-51 12
t-51 -12t-27 -37.5t-10.5 -64.5t-1.5 -93t1.5 -92.5t10.5 -64t27 -37.5t51 -12z" />
    <glyph glyph-name="p" unicode="p" horiz-adv-x="423" 
d="M40 -219v762h79q4 -39 6 -78q17 38 46.5 63t80.5 25q52 0 81 -21t43 -57.5t17.5 -84.5t3.5 -102q0 -68 -4 -123t-19 -93.5t-45.5 -59.5t-83.5 -21q-37 0 -69 20.5t-44 45.5v-276h-92zM132 129q9 -22 32.5 -42t58.5 -20q27 0 43 12.5t23.5 39t9.5 67.5t2 98q0 49 -1.5 86
t-8 61t-20.5 36t-39 12q-24 0 -40.5 -8t-28 -21.5t-19 -32.5t-12.5 -40v-248z" />
    <glyph glyph-name="q" unicode="q" horiz-adv-x="412" 
d="M276 -219v279q-14 -24 -46.5 -46.5t-86.5 -22.5q-42 0 -65 19.5t-34 56t-13 89t-2 119.5q0 55 2.5 105.5t16.5 89t43.5 61.5t82.5 23q27 0 47.5 -6t36 -16.5t27 -26t22.5 -33.5q0 14 3.5 33.5t10.5 37.5h51v-762h-96zM282 414q-14 32 -36 48t-47 16q-27 0 -42.5 -11
t-23.5 -35t-10.5 -63.5t-2.5 -96.5q0 -59 1.5 -98.5t8 -63.5t19.5 -34.5t36 -10.5q35 0 59.5 20.5t37.5 52.5v276z" />
    <glyph glyph-name="r" unicode="r" horiz-adv-x="280" 
d="M40 0v543h74q4 -22 6 -44t2 -45q20 42 59.5 65.5t93.5 23.5l-8 -94q-68 0 -96.5 -27.5t-36.5 -82.5v-339h-94z" />
    <glyph glyph-name="s" unicode="s" horiz-adv-x="357" 
d="M250 414q-5 34 -15.5 48.5t-44.5 14.5q-29 0 -46 -12.5t-17 -45.5q0 -30 11.5 -51t43.5 -39q33 -18 60.5 -32.5t47 -33t30.5 -45.5t11 -70q0 -78 -37.5 -119.5t-122.5 -41.5q-76 0 -113 39t-37 130l81 12q0 -22 3 -41.5t10.5 -34.5t20.5 -23.5t34 -8.5q48 0 63 21t15 58
q0 45 -22.5 68t-62.5 42q-30 14 -53 29t-38.5 34t-24 44t-8.5 60q0 31 6.5 56t23 43t43.5 27.5t69 9.5t67.5 -6t40.5 -20.5t22 -38.5t13 -59z" />
    <glyph glyph-name="t" unicode="t" horiz-adv-x="274" 
d="M275 61q-13 -26 -43 -46t-78 -20q-54 0 -84 31.5t-30 100.5v349h-41l7 67h34v137l94 16v-153h136l-8 -67h-128v-337q0 -31 14 -48.5t30 -17.5q22 0 34.5 11.5t23.5 34.5z" />
    <glyph glyph-name="u" unicode="u" horiz-adv-x="412" 
d="M304 0q-2 5 -4 15.5t-3 22t-1.5 22.5t-0.5 18q-21 -42 -52.5 -64.5t-83.5 -22.5q-36 0 -59 12t-36.5 32.5t-18.5 46.5t-5 54v407h93v-413q0 -30 15 -47t45 -17q35 0 56 20t39 65v392h95v-543h-79z" />
    <glyph glyph-name="v" unicode="v" horiz-adv-x="371" 
d="M149 0l-140 543h104l81 -396l80 396h88l-133 -543h-80z" />
    <glyph glyph-name="w" unicode="w" horiz-adv-x="525" 
d="M334 0l-66 399l-68 -399h-86l-105 543h97l57 -389l63 389h84l62 -389l58 389h86l-108 -543h-74z" />
    <glyph glyph-name="x" unicode="x" horiz-adv-x="342" 
d="M245 0l-80 205l-74 -205h-82l117 290l-102 253h85l64 -162l59 162h78l-98 -246l121 -297h-88z" />
    <glyph glyph-name="y" unicode="y" horiz-adv-x="370" 
d="M8 543h104l84 -395l76 395h89l-141 -583q-9 -38 -20 -70.5t-28.5 -56.5t-43.5 -38t-64 -14q-21 0 -37.5 3.5t-32.5 13.5q10 20 20 39.5t20 39.5q14 -11 30 -11q21 0 44.5 30t40.5 108z" />
    <glyph glyph-name="z" unicode="z" horiz-adv-x="324" 
d="M13 0v58l180 415h-152v70h251v-58l-184 -416h204v-69h-299z" />
    <glyph glyph-name="braceleft" unicode="{" horiz-adv-x="339" 
d="M253 -153q-26 0 -51.5 7t-46 25t-33.5 48t-13 77v168q0 75 -13.5 106t-48.5 31h-37v72h37q38 0 50 31t12 97v174q0 40 12.5 67t32.5 43t45 22.5t50 6.5h60v-61h-51q-18 0 -32.5 -5t-24 -19.5t-14.5 -41.5t-5 -71v-146q0 -57 -21 -87t-66 -45q48 -21 67.5 -54t19.5 -91
v-150q0 -48 5 -76.5t15 -42.5t24.5 -18t32.5 -4h50v-63h-56z" />
    <glyph glyph-name="bar" unicode="|" horiz-adv-x="130" 
d="M30 -184v1003h71v-1003h-71z" />
    <glyph glyph-name="braceright" unicode="}" horiz-adv-x="341" 
d="M30 -153v63h49q19 0 33 4t24 18t15 42.5t5 76.5v150q0 57 21 91t66 52q-42 15 -64.5 49.5t-22.5 91.5v139q0 46 -5 73t-14.5 41t-23.5 18.5t-33 4.5h-50v61h60q25 0 50 -6.5t45 -22.5t32.5 -43t12.5 -67v-176q0 -63 12 -94.5t49 -31.5h38v-72h-38q-33 0 -47 -30t-14 -102
v-173q0 -47 -13 -77t-33.5 -48t-45.5 -25t-50 -7h-58z" />
    <glyph glyph-name="asciitilde" unicode="~" horiz-adv-x="562" 
d="M532 335q-29 -32 -62 -48.5t-79 -16.5q-31 0 -60 9t-57 20.5t-56 20.5t-56 9q-26 0 -59.5 -23t-72.5 -71v93q20 26 52 46t77 20q35 0 66 -9t59.5 -20.5t55.5 -20.5t55 -9t61 21.5t76 70.5v-92z" />
    <glyph glyph-name="exclamdown" unicode="&#xa1;" horiz-adv-x="176" 
d="M29 -219l19 549h80l19 -549h-118zM41 433v130h94v-130h-94z" />
    <glyph glyph-name="cent" unicode="&#xa2;" horiz-adv-x="385" 
d="M175 0v100q-53 5 -82.5 29t-43.5 62t-16.5 87t-2.5 103q0 53 2.5 101t16.5 85.5t43 61.5t83 30v86h65v-86q32 -3 54 -14.5t35.5 -32.5t20.5 -53t9 -76l-77 -11q-2 33 -6.5 54t-13 34t-22.5 18t-35 5q-29 0 -45.5 -14t-24.5 -40t-10 -63.5t-2 -84.5q0 -48 1.5 -86.5
t9 -65.5t23.5 -41.5t45 -14.5q25 0 40.5 8.5t24.5 25t12.5 40.5t5.5 56l77 -10q-2 -32 -6.5 -64t-17.5 -58.5t-36 -45t-62 -24.5v-101h-65z" />
    <glyph glyph-name="sterling" unicode="&#xa3;" horiz-adv-x="469" 
d="M452 129q3 -17 3 -32q0 -29 -11 -52t-28.5 -39.5t-40 -25t-44.5 -8.5q-38 0 -65 17.5t-53 40.5q-20 -22 -48 -34.5t-67 -12.5q-27 0 -43.5 6.5t-26 18t-12.5 26t-3 31.5q0 15 4 29t14 25.5t26 18.5t40 7q28 0 51.5 -12.5t43.5 -27.5q6 17 8.5 37t2.5 39q0 35 -6.5 65.5
t-14.5 59.5h-108l8 64h80q-19 52 -36.5 104.5t-17.5 115.5q0 90 33 132t119 42q54 0 83.5 -13t44.5 -40.5t19.5 -69.5t7.5 -100l-80 -11q-2 34 -4.5 63.5t-10 51t-21.5 33.5t-39 12q-42 0 -55 -23.5t-13 -77.5q0 -31 5.5 -59t14.5 -55t19 -53t19 -52h139l-8 -64h-117
q7 -21 9.5 -45.5t2.5 -47.5q0 -35 -7.5 -72t-22.5 -69q34 -28 68 -28q45 0 65 27t22 72zM173 63q-14 12 -32 24.5t-36 12.5q-21 0 -31 -10.5t-10 -25.5q0 -13 9.5 -24.5t29.5 -11.5q25 0 41.5 10t28.5 25z" />
    <glyph glyph-name="yen" unicode="&#xa5;" horiz-adv-x="322" 
d="M124 0v105h-75v58h75v93h-75v58h75v84l-112 347h76l79 -258l77 258h69l-112 -347v-84h76v-58h-76v-93h76v-58h-76v-105h-77z" />
    <glyph glyph-name="section" unicode="&#xa7;" horiz-adv-x="361" 
d="M103 114q0 -20 3.5 -39t11 -34.5t20.5 -25t33 -9.5q48 0 63 21.5t15 58.5q0 45 -22.5 70.5t-60.5 42.5q-30 13 -53 27.5t-39.5 33.5t-25 44t-8.5 58q0 54 21.5 88t79.5 44q-47 25 -72.5 59t-25.5 93q0 31 6.5 56t23 43t44 27.5t69.5 9.5t67.5 -6t40.5 -20.5t22 -38.5
t12 -59l-74 -14q-5 34 -15.5 48.5t-44.5 14.5q-29 0 -45.5 -12.5t-16.5 -45.5q0 -30 11.5 -52.5t51.5 -42.5q32 -16 58 -28t44 -29.5t28 -45t10 -73.5q0 -54 -17.5 -91t-59.5 -55q17 -11 30.5 -23t23.5 -28t15 -37t5 -50q0 -78 -37.5 -119.5t-122.5 -41.5q-76 0 -113 39
t-37 130zM187 279q41 0 54.5 21t13.5 63q0 48 -16 64.5t-49 16.5q-35 0 -51 -17t-16 -62q0 -42 12 -64t52 -22z" />
    <glyph glyph-name="dieresis" unicode="&#xa8;" horiz-adv-x="305" 
d="M30 613v120h82v-120h-82zM193 613v120h82v-120h-82z" />
    <glyph glyph-name="copyright" unicode="&#xa9;" horiz-adv-x="776" 
d="M393 -14q-175 0 -269 95t-94 290q0 194 92.5 289.5t270.5 95.5q177 0 265 -94.5t88 -290.5q0 -195 -92.5 -290t-260.5 -95zM393 36q58 0 111 18t93 58t63.5 103.5t23.5 155.5q0 91 -23.5 155t-63 104.5t-92.5 59t-112 18.5t-113.5 -18.5t-96.5 -58.5t-67 -104.5
t-25 -155.5q0 -92 25 -155.5t67 -103.5t96.5 -58t113.5 -18zM557 301q-9 -145 -170 -145q-183 0 -183 212q0 106 47.5 159.5t135.5 53.5q81 0 124 -32t46 -112l-55 -7q-1 34 -10.5 54.5t-25.5 32t-36.5 15.5t-42.5 4q-26 0 -48.5 -9.5t-39.5 -29.5t-27 -52t-10 -77t9.5 -77
t26.5 -52t39.5 -29t49.5 -9q22 0 42 5t36 17t26 32t11 50z" />
    <glyph glyph-name="ordfeminine" unicode="&#xaa;" horiz-adv-x="279" 
d="M253 401q-28 0 -41.5 10t-17.5 29q-9 -18 -28.5 -30.5t-54.5 -12.5q-24 0 -39.5 8.5t-24.5 22.5t-13 31.5t-4 35.5q0 34 4 57t19 37t44.5 20.5t79.5 6.5v18q0 33 -7.5 45t-33.5 12q-23 0 -30.5 -14t-9.5 -44l-56 5q2 30 6 51.5t14.5 35.5t28.5 20.5t48 6.5q34 0 55 -8
t32.5 -23.5t15.5 -39t4 -54.5v-158q0 -11 6.5 -14t16.5 -3l-6 -51h-8zM177 569q-26 -1 -42.5 -4.5t-25.5 -11.5t-12.5 -21.5t-3.5 -33.5q0 -21 8.5 -33t24.5 -12q20 0 31.5 12t19.5 40v64z" />
    <glyph glyph-name="guillemotleft" unicode="&#xab;" horiz-adv-x="331" 
d="M145 291l153 180l24 -26l-110 -154l110 -153l-24 -25zM11 291l153 180l24 -26l-110 -154l110 -153l-24 -25z" />
    <glyph glyph-name="registered" unicode="&#xae;" horiz-adv-x="503" 
d="M302 412l-43 100h-40v-100h-43v234h85q42 0 59.5 -16t17.5 -48q0 -15 -10.5 -35t-30.5 -26l54 -109h-49zM267 548q17 0 24 9.5t7 23.5q0 17 -9.5 23.5t-26.5 6.5h-43v-63h48zM255 298q-109 0 -167 57t-58 172q0 112 58 170t167 58q218 0 218 -228q0 -120 -56 -174.5
t-162 -54.5zM255 329q36 0 69.5 11t59 35t40.5 61.5t15 90.5q0 52 -15 89.5t-40 61t-58.5 34.5t-70.5 11q-38 0 -72.5 -10.5t-60.5 -34t-42 -61t-16 -90.5t16 -90.5t42.5 -61.5t61 -35t71.5 -11z" />
    <glyph glyph-name="macron" unicode="&#xaf;" horiz-adv-x="410" 
d="M29 625v65h352v-65h-352z" />
    <glyph glyph-name="degree" unicode="&#xb0;" horiz-adv-x="257" 
d="M129 544q-53 0 -76 31t-23 75q0 45 23 75.5t76 30.5t76 -30.5t23 -75.5t-23.5 -75.5t-75.5 -30.5zM129 574q36 0 52 22.5t16 53.5q0 32 -16 54t-52 22q-38 0 -53 -22t-15 -54q0 -31 15 -53.5t53 -22.5z" />
    <glyph glyph-name="twosuperior" unicode="&#xb2;" horiz-adv-x="287" 
d="M33 404v56q27 25 53.5 57.5t47.5 69t34 75.5t13 78q0 42 -10 59t-31 17q-13 0 -21 -5.5t-13 -19t-7.5 -35t-4.5 -52.5l-64 9q2 40 5 71t14 51t33 30.5t63 10.5q30 0 50 -7.5t32 -24t16.5 -42t4.5 -62.5q0 -41 -12 -80t-30.5 -75t-40.5 -66.5t-43 -54.5h135l-3 -60h-221z
" />
    <glyph glyph-name="threesuperior" unicode="&#xb3;" horiz-adv-x="293" 
d="M102 615l6 59h34q24 0 34.5 13.5t10.5 51.5q0 46 -10 61.5t-32 15.5t-30 -14.5t-12 -55.5l-64 7q2 34 7 58t17 38t31.5 20.5t50.5 6.5q37 0 58 -9.5t31.5 -27t13.5 -41.5t3 -53q0 -45 -11 -65t-33 -32q30 -8 43 -31.5t13 -74.5q0 -30 -2.5 -56.5t-14.5 -46.5t-36 -31.5
t-66 -11.5q-33 0 -54 7.5t-33 21.5t-18 34t-9 46l61 19q5 -33 15 -50t37 -17q34 0 43.5 22t9.5 67q0 35 -9.5 52t-44.5 17h-40z" />
    <glyph glyph-name="acute" unicode="&#xb4;" horiz-adv-x="271" 
d="M84 592l-34 38l162 126l50 -59z" />
    <glyph glyph-name="mu" unicode="&#xb5;" horiz-adv-x="375" 
d="M279 0q-5 15 -6.5 26.5t-1.5 31.5q-15 -32 -38 -50t-54 -18q-26 0 -39.5 7t-26.5 19v-235h-73v762h73v-436q5 -28 23.5 -38.5t44.5 -10.5q33 0 50.5 26t28.5 64v395h75v-543h-56z" />
    <glyph glyph-name="paragraph" unicode="&#xb6;" horiz-adv-x="467" 
d="M334 -143v665h-89v-520q0 -44 -12 -72.5t-32.5 -45.5t-47 -24t-56.5 -7q-28 0 -50 8t-34 18l15 55q13 -9 29 -14.5t34 -5.5t32 3.5t24.5 14t16 28.5t5.5 48v516q-71 5 -103 35t-32 73q0 23 9 43.5t28.5 36t48.5 24.5t70 9h265l-46 -88v-800h-75z" />
    <glyph glyph-name="periodcentered" unicode="&#xb7;" horiz-adv-x="153" 
d="M30 307v130h94v-130h-94z" />
    <glyph glyph-name="cedilla" unicode="&#xb8;" horiz-adv-x="231" 
d="M42 -149q28 -11 50 -11q24 0 41 12t17 37q0 26 -17.5 35.5t-53.5 11.5l12 69h35l-3 -48q45 0 61.5 -21.5t16.5 -56.5t-27.5 -54.5t-69.5 -19.5q-39 0 -74 16z" />
    <glyph glyph-name="onesuperior" unicode="&#xb9;" horiz-adv-x="199" 
d="M97 404v371q-11 -9 -26 -15.5t-33 -6.5l-8 58q34 5 54.5 21.5t36.5 43.5h48v-472h-72z" />
    <glyph glyph-name="ordmasculine" unicode="&#xba;" horiz-adv-x="298" 
d="M149 397q-44 0 -68.5 14.5t-35.5 39t-13 57t-2 67.5t2 67t13 56.5t35.5 39t68.5 14.5t68 -14.5t35.5 -39t13.5 -56.5t2 -67t-2 -67.5t-13.5 -57t-35.5 -39t-68 -14.5zM149 455q35 0 43 29t8 91q0 61 -8 90t-43 29q-36 0 -44 -29t-8 -90q0 -62 8 -91t44 -29z" />
    <glyph glyph-name="guillemotright" unicode="&#xbb;" horiz-adv-x="331" 
d="M11 138l110 153l-110 154l24 26l153 -180l-153 -178zM145 138l110 153l-110 154l24 26l153 -180l-153 -178z" />
    <glyph glyph-name="onequarter" unicode="&#xbc;" horiz-adv-x="714" 
d="M145 -100l286 882h70l-288 -882h-68zM110 322v371q-11 -9 -26 -15.5t-33 -6.5l-8 58q34 5 54.5 21.5t36.5 43.5h48v-472h-72zM560 -82v91h-137v49l128 324h81v-312h26l-6 -61h-20v-91h-72zM560 251l-73 -181h73v181z" />
    <glyph glyph-name="onehalf" unicode="&#xbd;" horiz-adv-x="716" 
d="M145 -100l286 882h70l-288 -882h-68zM110 322v371q-11 -9 -26 -15.5t-33 -6.5l-8 58q34 5 54.5 21.5t36.5 43.5h48v-472h-72zM454 -82v56q27 25 53.5 57.5t47.5 69t34 75.5t13 78q0 42 -10 59t-31 17q-13 0 -21 -5.5t-13 -19t-7.5 -35t-4.5 -52.5l-64 9q2 40 5 71t14 51
t33 30.5t63 10.5q30 0 50 -7.5t32 -24t16.5 -42t4.5 -62.5q0 -41 -12 -80t-30.5 -75t-40.5 -66.5t-43 -54.5h135l-3 -60h-221z" />
    <glyph glyph-name="threequarters" unicode="&#xbe;" horiz-adv-x="714" 
d="M186 -100l286 882h70l-288 -882h-68zM560 -82v91h-137v49l128 324h81v-312h26l-6 -61h-20v-91h-72zM560 251l-73 -181h73v181zM115 533l6 59h34q24 0 34.5 13.5t10.5 51.5q0 46 -10 61.5t-32 15.5t-30 -14.5t-12 -55.5l-64 7q2 34 7 58t17 38t31.5 20.5t50.5 6.5
q37 0 58 -9.5t31.5 -27t13.5 -41.5t3 -53q0 -45 -11 -65t-33 -32q30 -8 43 -31.5t13 -74.5q0 -30 -2.5 -56.5t-14.5 -46.5t-36 -31.5t-66 -11.5q-33 0 -54 7.5t-33 21.5t-18 34t-9 46l61 19q5 -33 15 -50t37 -17q34 0 43.5 22t9.5 67q0 35 -9.5 52t-44.5 17h-40z" />
    <glyph glyph-name="questiondown" unicode="&#xbf;" horiz-adv-x="375" 
d="M356 13q-3 -61 -10 -104.5t-25 -72t-51.5 -42t-89.5 -13.5q-50 0 -81.5 10.5t-49.5 32.5t-25 57t-7 85q0 42 11.5 74t28.5 58t37 48t37 45t28.5 48.5t11.5 58.5q0 28 -9 55h78q8 -14 11 -30t3 -34q0 -36 -10.5 -65t-25.5 -54t-33.5 -48t-33.5 -47t-25.5 -50t-10.5 -58
q0 -56 13 -82t57 -26q25 0 40.5 10t24 31t12 52t5.5 73zM152 449v130h94v-130h-94z" />
    <glyph glyph-name="Agrave" unicode="&#xc0;" horiz-adv-x="421" 
d="M303 0l-30 179h-139l-31 -179h-94l148 745h105l150 -745h-109zM204 584l-63 -326h123zM80 914l50 58l162 -127l-33 -37z" />
    <glyph glyph-name="Aacute" unicode="&#xc1;" horiz-adv-x="421" 
d="M303 0l-30 179h-139l-31 -179h-94l148 745h105l150 -745h-109zM204 584l-63 -326h123zM160 794l-34 38l162 126l50 -59z" />
    <glyph glyph-name="Acircumflex" unicode="&#xc2;" horiz-adv-x="421" 
d="M303 0l-30 179h-139l-31 -179h-94l148 745h105l150 -745h-109zM204 584l-63 -326h123zM267 820l-59 104l-59 -106l-48 28l76 127h64l78 -128z" />
    <glyph glyph-name="Atilde" unicode="&#xc3;" horiz-adv-x="421" 
d="M303 0l-30 179h-139l-31 -179h-94l148 745h105l150 -745h-109zM204 584l-63 -326h123zM370 930q-12 -48 -37 -68.5t-55 -20.5q-20 0 -38 7t-35.5 15.5t-33 15.5t-29.5 7q-22 0 -39 -54l-55 27q11 45 34.5 64t53.5 19q20 0 39 -7.5t36 -16.5t32.5 -16.5t29.5 -7.5
q28 0 38 55z" />
    <glyph glyph-name="Adieresis" unicode="&#xc4;" horiz-adv-x="421" 
d="M303 0l-30 179h-139l-31 -179h-94l148 745h105l150 -745h-109zM204 584l-63 -326h123zM87 815v120h82v-120h-82zM250 815v120h82v-120h-82z" />
    <glyph glyph-name="Aring" unicode="&#xc5;" horiz-adv-x="421" 
d="M303 0l-30 179h-139l-31 -179h-94l148 745h105l150 -745h-109zM204 584l-63 -326h123zM309 845q0 -86 -99 -86q-100 0 -100 86q0 85 100 85q99 0 99 -85zM270 845q0 51 -60 51t-60 -51t60 -51t60 51z" />
    <glyph glyph-name="AE" unicode="&#xc6;" horiz-adv-x="538" 
d="M253 0v189h-110l-27 -189h-102l131 745h375v-78h-174v-235h143l-7 -79h-136v-277h175v-76h-268zM253 667h-42l-57 -398h99v398z" />
    <glyph glyph-name="Ccedilla" unicode="&#xc7;" horiz-adv-x="444" 
d="M149 -149q28 -11 50 -11q24 0 41 12t17 37t-17 35t-54 12l10 53q-60 5 -93.5 31.5t-49.5 74.5t-19.5 117.5t-3.5 159.5q0 95 4 167t23 121t59 73.5t112 24.5q67 0 104.5 -13.5t56 -44.5t23.5 -80.5t7 -121.5l-97 -13q-2 61 -4.5 99.5t-11.5 59.5t-27 28.5t-51 7.5
t-52 -17.5t-28 -54.5t-11.5 -95.5t-2.5 -140.5q0 -83 2.5 -141t11.5 -95t28 -53.5t52 -16.5t51 10t26.5 32.5t10.5 59.5t4 92l99 -8q-5 -67 -10.5 -116.5t-23.5 -82t-53.5 -49t-100.5 -17.5l-2 -30q45 0 61.5 -21.5t16.5 -56.5t-27.5 -54.5t-69.5 -19.5q-17 0 -36 4t-38 12z
" />
    <glyph glyph-name="Egrave" unicode="&#xc8;" horiz-adv-x="353" 
d="M40 0v745h286v-78h-187v-235h157l-7 -79h-150v-277h192v-76h-291zM46 914l50 58l162 -127l-33 -37z" />
    <glyph glyph-name="Eacute" unicode="&#xc9;" horiz-adv-x="353" 
d="M40 0v745h286v-78h-187v-235h157l-7 -79h-150v-277h192v-76h-291zM126 794l-34 38l162 126l50 -59z" />
    <glyph glyph-name="Ecircumflex" unicode="&#xca;" horiz-adv-x="353" 
d="M40 0v745h286v-78h-187v-235h157l-7 -79h-150v-277h192v-76h-291zM233 820l-59 104l-59 -106l-48 28l76 127h64l78 -128z" />
    <glyph glyph-name="Edieresis" unicode="&#xcb;" horiz-adv-x="353" 
d="M40 0v745h286v-78h-187v-235h157l-7 -79h-150v-277h192v-76h-291zM53 815v120h82v-120h-82zM216 815v120h82v-120h-82z" />
    <glyph glyph-name="Igrave" unicode="&#xcc;" horiz-adv-x="179" 
d="M40 0v745h99v-745h-99zM-37 914l50 58l162 -127l-33 -37z" />
    <glyph glyph-name="Iacute" unicode="&#xcd;" horiz-adv-x="179" 
d="M40 0v745h99v-745h-99zM43 794l-34 38l162 126l50 -59z" />
    <glyph glyph-name="Icircumflex" unicode="&#xce;" horiz-adv-x="179" 
d="M40 0v745h99v-745h-99zM150 820l-59 104l-59 -106l-48 28l76 127h64l78 -128z" />
    <glyph glyph-name="Idieresis" unicode="&#xcf;" horiz-adv-x="179" 
d="M40 0v745h99v-745h-99zM-30 815v120h82v-120h-82zM133 815v120h82v-120h-82z" />
    <glyph glyph-name="Eth" unicode="&#xd0;" 
d="M40 0v354h-36v79h36v312h167q81 0 127.5 -23.5t70 -70t29.5 -116.5t6 -163q0 -102 -5.5 -173t-28 -115t-68 -64t-124.5 -20h-174zM216 82q42 0 66.5 16t37 51t16 90t3.5 133q0 82 -3 138.5t-15.5 91.5t-39 51t-72.5 16h-71v-236h121l-8 -79h-113v-272h78z" />
    <glyph glyph-name="Ntilde" unicode="&#xd1;" horiz-adv-x="445" 
d="M305 0l-182 515v-515h-85v745h103l181 -516v516h85v-745h-102zM383 930q-12 -48 -37 -68.5t-55 -20.5q-20 0 -38 7t-35.5 15.5t-33 15.5t-29.5 7q-22 0 -39 -54l-55 27q11 45 34.5 64t53.5 19q20 0 39 -7.5t36 -16.5t32.5 -16.5t29.5 -7.5q28 0 38 55z" />
    <glyph glyph-name="Ograve" unicode="&#xd2;" 
d="M238 -13q-74 0 -115.5 24.5t-62 72.5t-25.5 120t-5 168q0 95 5 167t25.5 121t62 73.5t115.5 24.5q73 0 114 -24t60.5 -72t23.5 -120.5t4 -169.5q0 -98 -4 -170t-23.5 -120t-60.5 -71.5t-114 -23.5zM238 66q35 0 54.5 16.5t29 53.5t11.5 95t2 141q0 82 -2 140.5t-11.5 96
t-29 54.5t-54.5 17q-36 0 -56.5 -17.5t-31 -54.5t-13.5 -95.5t-3 -140.5q0 -83 3 -141t13.5 -95t31 -53.5t56.5 -16.5zM105 914l50 58l162 -127l-33 -37z" />
    <glyph glyph-name="Oacute" unicode="&#xd3;" 
d="M238 -13q-74 0 -115.5 24.5t-62 72.5t-25.5 120t-5 168q0 95 5 167t25.5 121t62 73.5t115.5 24.5q73 0 114 -24t60.5 -72t23.5 -120.5t4 -169.5q0 -98 -4 -170t-23.5 -120t-60.5 -71.5t-114 -23.5zM238 66q35 0 54.5 16.5t29 53.5t11.5 95t2 141q0 82 -2 140.5t-11.5 96
t-29 54.5t-54.5 17q-36 0 -56.5 -17.5t-31 -54.5t-13.5 -95.5t-3 -140.5q0 -83 3 -141t13.5 -95t31 -53.5t56.5 -16.5zM185 794l-34 38l162 126l50 -59z" />
    <glyph glyph-name="Ocircumflex" unicode="&#xd4;" 
d="M238 -13q-74 0 -115.5 24.5t-62 72.5t-25.5 120t-5 168q0 95 5 167t25.5 121t62 73.5t115.5 24.5q73 0 114 -24t60.5 -72t23.5 -120.5t4 -169.5q0 -98 -4 -170t-23.5 -120t-60.5 -71.5t-114 -23.5zM238 66q35 0 54.5 16.5t29 53.5t11.5 95t2 141q0 82 -2 140.5t-11.5 96
t-29 54.5t-54.5 17q-36 0 -56.5 -17.5t-31 -54.5t-13.5 -95.5t-3 -140.5q0 -83 3 -141t13.5 -95t31 -53.5t56.5 -16.5zM292 820l-59 104l-59 -106l-48 28l76 127h64l78 -128z" />
    <glyph glyph-name="Otilde" unicode="&#xd5;" 
d="M238 -13q-74 0 -115.5 24.5t-62 72.5t-25.5 120t-5 168q0 95 5 167t25.5 121t62 73.5t115.5 24.5q73 0 114 -24t60.5 -72t23.5 -120.5t4 -169.5q0 -98 -4 -170t-23.5 -120t-60.5 -71.5t-114 -23.5zM238 66q35 0 54.5 16.5t29 53.5t11.5 95t2 141q0 82 -2 140.5t-11.5 96
t-29 54.5t-54.5 17q-36 0 -56.5 -17.5t-31 -54.5t-13.5 -95.5t-3 -140.5q0 -83 3 -141t13.5 -95t31 -53.5t56.5 -16.5zM395 930q-12 -48 -37 -68.5t-55 -20.5q-20 0 -38 7t-35.5 15.5t-33 15.5t-29.5 7q-22 0 -39 -54l-55 27q11 45 34.5 64t53.5 19q20 0 39 -7.5t36 -16.5
t32.5 -16.5t29.5 -7.5q28 0 38 55z" />
    <glyph glyph-name="Odieresis" unicode="&#xd6;" 
d="M238 -13q-74 0 -115.5 24.5t-62 72.5t-25.5 120t-5 168q0 95 5 167t25.5 121t62 73.5t115.5 24.5q73 0 114 -24t60.5 -72t23.5 -120.5t4 -169.5q0 -98 -4 -170t-23.5 -120t-60.5 -71.5t-114 -23.5zM238 66q35 0 54.5 16.5t29 53.5t11.5 95t2 141q0 82 -2 140.5t-11.5 96
t-29 54.5t-54.5 17q-36 0 -56.5 -17.5t-31 -54.5t-13.5 -95.5t-3 -140.5q0 -83 3 -141t13.5 -95t31 -53.5t56.5 -16.5zM112 815v120h82v-120h-82zM275 815v120h82v-120h-82z" />
    <glyph glyph-name="multiply" unicode="&#xd7;" horiz-adv-x="437" 
d="M218 327l-144 -145l-44 45l144 144l-144 145l44 44l144 -145l145 145l44 -44l-144 -145l144 -144l-44 -45z" />
    <glyph glyph-name="Oslash" unicode="&#xd8;" 
d="M72 -19l19 54q-21 22 -33.5 54t-18.5 74t-7.5 94t-1.5 115q0 95 5 167t25.5 121t62 73.5t115.5 24.5q66 0 107 -21l15 41l47 -21l-19 -53q19 -23 29.5 -55t15.5 -73.5t6 -92.5t1 -111q0 -98 -4 -170t-23.5 -120t-60.5 -71.5t-114 -23.5q-64 0 -104 18l-16 -43zM310 640
q-22 40 -72 40q-36 0 -56.5 -17.5t-31 -54.5t-13.5 -95.5t-3 -140.5q0 -64 1.5 -113t6.5 -84zM167 98q23 -32 71 -32q35 0 54.5 16.5t29 53.5t11.5 95t2 141q0 54 -0.5 97.5t-3.5 77.5z" />
    <glyph glyph-name="Ugrave" unicode="&#xd9;" horiz-adv-x="434" 
d="M296 745h100v-530q0 -54 -6 -96t-24.5 -71.5t-54 -45t-94.5 -15.5q-57 0 -92.5 15t-54.5 44t-25.5 71.5t-6.5 97.5v530h99v-449q0 -61 2 -104.5t10 -71.5t24 -41t44 -13q27 0 43 13t24 41t10 71.5t2 104.5v449zM87 914l50 58l162 -127l-33 -37z" />
    <glyph glyph-name="Uacute" unicode="&#xda;" horiz-adv-x="434" 
d="M296 745h100v-530q0 -54 -6 -96t-24.5 -71.5t-54 -45t-94.5 -15.5q-57 0 -92.5 15t-54.5 44t-25.5 71.5t-6.5 97.5v530h99v-449q0 -61 2 -104.5t10 -71.5t24 -41t44 -13q27 0 43 13t24 41t10 71.5t2 104.5v449zM167 794l-34 38l162 126l50 -59z" />
    <glyph glyph-name="Ucircumflex" unicode="&#xdb;" horiz-adv-x="434" 
d="M296 745h100v-530q0 -54 -6 -96t-24.5 -71.5t-54 -45t-94.5 -15.5q-57 0 -92.5 15t-54.5 44t-25.5 71.5t-6.5 97.5v530h99v-449q0 -61 2 -104.5t10 -71.5t24 -41t44 -13q27 0 43 13t24 41t10 71.5t2 104.5v449zM273 820l-59 104l-59 -106l-48 28l76 127h64l78 -128z" />
    <glyph glyph-name="Udieresis" unicode="&#xdc;" horiz-adv-x="434" 
d="M296 745h100v-530q0 -54 -6 -96t-24.5 -71.5t-54 -45t-94.5 -15.5q-57 0 -92.5 15t-54.5 44t-25.5 71.5t-6.5 97.5v530h99v-449q0 -61 2 -104.5t10 -71.5t24 -41t44 -13q27 0 43 13t24 41t10 71.5t2 104.5v449zM94 815v120h82v-120h-82zM257 815v120h82v-120h-82z" />
    <glyph glyph-name="Yacute" unicode="&#xdd;" horiz-adv-x="382" 
d="M143 0v314l-134 431h97l89 -328l94 328h83l-131 -431v-314h-98zM140 794l-34 38l162 126l50 -59z" />
    <glyph glyph-name="Thorn" unicode="&#xde;" horiz-adv-x="415" 
d="M40 0v745h99v-146h-2q80 0 131 -5.5t80.5 -26t40.5 -61t11 -109.5q0 -66 -10 -111t-35 -73t-68.5 -40t-110.5 -12h-37v-161h-99zM188 238q65 0 89.5 37.5t24.5 115.5q0 70 -24 98.5t-87 28.5h-53v-280h50z" />
    <glyph glyph-name="germandbls" unicode="&#xdf;" horiz-adv-x="445" 
d="M203 64q40 0 63.5 7t36 26.5t16 52.5t3.5 86q0 33 -3.5 59.5t-15 45.5t-32 29.5t-53.5 11.5l-2 74q26 0 41.5 8.5t24 25t11 42t2.5 60.5q0 37 -3 63.5t-12 43t-26 24t-44 7.5q-24 0 -38.5 -8.5t-23 -30.5t-11.5 -60t-3 -97v-534h-94v594q0 56 8.5 96t28 65.5t51.5 37.5
t79 12q60 0 96.5 -16t55.5 -43t25 -63.5t6 -77.5q0 -44 -5 -74.5t-15.5 -51t-28.5 -33t-43 -19.5q33 -5 56.5 -16t38.5 -33t21.5 -57t6.5 -89q0 -66 -4 -112.5t-25 -76t-65 -43t-124 -13.5v77z" />
    <glyph glyph-name="agrave" unicode="&#xe0;" horiz-adv-x="395" 
d="M384 0q-51 0 -74 17.5t-28 42.5q-19 -33 -49 -52t-86 -19q-36 0 -59 12.5t-37 33.5t-19.5 47.5t-5.5 54.5q0 53 8 89.5t33 59t72 32t125 9.5v41q0 28 -2 48.5t-9.5 34t-21.5 19.5t-38 6q-21 0 -34 -5.5t-21 -16.5t-11.5 -29.5t-5.5 -43.5l-79 7q3 42 9.5 73t22 51.5
t43.5 30t74 9.5q52 0 84 -12t50 -36.5t24 -61t6 -84.5v-253q0 -29 11.5 -36t25.5 -7zM264 272q-48 -3 -77 -8.5t-44 -19t-20 -37.5t-5 -64q0 -42 11 -63t42 -21q39 0 61.5 24.5t31.5 72.5v116zM67 712l50 58l162 -127l-33 -37z" />
    <glyph glyph-name="aacute" unicode="&#xe1;" horiz-adv-x="395" 
d="M384 0q-51 0 -74 17.5t-28 42.5q-19 -33 -49 -52t-86 -19q-36 0 -59 12.5t-37 33.5t-19.5 47.5t-5.5 54.5q0 53 8 89.5t33 59t72 32t125 9.5v41q0 28 -2 48.5t-9.5 34t-21.5 19.5t-38 6q-21 0 -34 -5.5t-21 -16.5t-11.5 -29.5t-5.5 -43.5l-79 7q3 42 9.5 73t22 51.5
t43.5 30t74 9.5q52 0 84 -12t50 -36.5t24 -61t6 -84.5v-253q0 -29 11.5 -36t25.5 -7zM264 272q-48 -3 -77 -8.5t-44 -19t-20 -37.5t-5 -64q0 -42 11 -63t42 -21q39 0 61.5 24.5t31.5 72.5v116zM148 592l-34 38l162 126l50 -59z" />
    <glyph glyph-name="acircumflex" unicode="&#xe2;" horiz-adv-x="395" 
d="M384 0q-51 0 -74 17.5t-28 42.5q-19 -33 -49 -52t-86 -19q-36 0 -59 12.5t-37 33.5t-19.5 47.5t-5.5 54.5q0 53 8 89.5t33 59t72 32t125 9.5v41q0 28 -2 48.5t-9.5 34t-21.5 19.5t-38 6q-21 0 -34 -5.5t-21 -16.5t-11.5 -29.5t-5.5 -43.5l-79 7q3 42 9.5 73t22 51.5
t43.5 30t74 9.5q52 0 84 -12t50 -36.5t24 -61t6 -84.5v-253q0 -29 11.5 -36t25.5 -7zM264 272q-48 -3 -77 -8.5t-44 -19t-20 -37.5t-5 -64q0 -42 11 -63t42 -21q39 0 61.5 24.5t31.5 72.5v116zM254 618l-59 104l-59 -106l-48 28l76 127h64l78 -128z" />
    <glyph glyph-name="atilde" unicode="&#xe3;" horiz-adv-x="395" 
d="M384 0q-51 0 -74 17.5t-28 42.5q-19 -33 -49 -52t-86 -19q-36 0 -59 12.5t-37 33.5t-19.5 47.5t-5.5 54.5q0 53 8 89.5t33 59t72 32t125 9.5v41q0 28 -2 48.5t-9.5 34t-21.5 19.5t-38 6q-21 0 -34 -5.5t-21 -16.5t-11.5 -29.5t-5.5 -43.5l-79 7q3 42 9.5 73t22 51.5
t43.5 30t74 9.5q52 0 84 -12t50 -36.5t24 -61t6 -84.5v-253q0 -29 11.5 -36t25.5 -7zM264 272q-48 -3 -77 -8.5t-44 -19t-20 -37.5t-5 -64q0 -42 11 -63t42 -21q39 0 61.5 24.5t31.5 72.5v116zM357 728q-12 -48 -37 -68.5t-55 -20.5q-20 0 -38 7t-35.5 15.5t-33 15.5
t-29.5 7q-22 0 -39 -54l-55 27q11 45 34.5 64t53.5 19q20 0 39 -7.5t36 -16.5t32.5 -16.5t29.5 -7.5q28 0 38 55z" />
    <glyph glyph-name="adieresis" unicode="&#xe4;" horiz-adv-x="395" 
d="M384 0q-51 0 -74 17.5t-28 42.5q-19 -33 -49 -52t-86 -19q-36 0 -59 12.5t-37 33.5t-19.5 47.5t-5.5 54.5q0 53 8 89.5t33 59t72 32t125 9.5v41q0 28 -2 48.5t-9.5 34t-21.5 19.5t-38 6q-21 0 -34 -5.5t-21 -16.5t-11.5 -29.5t-5.5 -43.5l-79 7q3 42 9.5 73t22 51.5
t43.5 30t74 9.5q52 0 84 -12t50 -36.5t24 -61t6 -84.5v-253q0 -29 11.5 -36t25.5 -7zM264 272q-48 -3 -77 -8.5t-44 -19t-20 -37.5t-5 -64q0 -42 11 -63t42 -21q39 0 61.5 24.5t31.5 72.5v116zM75 613v120h82v-120h-82zM238 613v120h82v-120h-82z" />
    <glyph glyph-name="aring" unicode="&#xe5;" horiz-adv-x="395" 
d="M384 0q-51 0 -74 17.5t-28 42.5q-19 -33 -49 -52t-86 -19q-36 0 -59 12.5t-37 33.5t-19.5 47.5t-5.5 54.5q0 53 8 89.5t33 59t72 32t125 9.5v41q0 28 -2 48.5t-9.5 34t-21.5 19.5t-38 6q-21 0 -34 -5.5t-21 -16.5t-11.5 -29.5t-5.5 -43.5l-79 7q3 42 9.5 73t22 51.5
t43.5 30t74 9.5q52 0 84 -12t50 -36.5t24 -61t6 -84.5v-253q0 -29 11.5 -36t25.5 -7zM264 272q-48 -3 -77 -8.5t-44 -19t-20 -37.5t-5 -64q0 -42 11 -63t42 -21q39 0 61.5 24.5t31.5 72.5v116zM297 668q0 -86 -99 -86q-100 0 -100 86q0 85 100 85q99 0 99 -85zM258 668
q0 51 -60 51t-60 -51t60 -51t60 51z" />
    <glyph glyph-name="ae" unicode="&#xe6;" horiz-adv-x="650" 
d="M620 160q-5 -42 -16 -74t-30.5 -53.5t-50 -32.5t-74.5 -11q-33 0 -56 6.5t-39 18.5t-26 28.5t-17 37.5q-8 -20 -19.5 -37t-30 -29t-45 -18.5t-65.5 -6.5q-36 0 -59 13t-37 34t-19.5 47.5t-5.5 53.5q0 52 8 88.5t33 59t72 32.5t125 10v41q0 28 -2 48.5t-9.5 34t-21.5 19.5
t-38 6q-21 0 -34 -5.5t-21 -17.5t-11.5 -30t-5.5 -42l-79 7q3 42 9.5 73t22 51.5t43.5 30t74 9.5q54 0 83 -18.5t39 -50.5q13 32 45 50.5t83 18.5q64 0 99.5 -22.5t52 -57.5t20 -78t3.5 -84v-42h-262q0 -41 2 -78t11.5 -65.5t29 -45t54.5 -16.5q50 0 67 27.5t22 80.5z
M268 272q-48 -3 -77 -8.5t-44 -19t-19.5 -37.5t-4.5 -64q0 -42 10.5 -63t41.5 -21q40 0 62 24.5t31 72.5v116zM533 324q0 31 -1 60.5t-9 51.5t-25.5 35.5t-50.5 13.5q-30 0 -47 -12t-26 -33t-11.5 -50.5t-3.5 -65.5h174z" />
    <glyph glyph-name="ccedilla" unicode="&#xe7;" horiz-adv-x="387" 
d="M128 -149q27 -11 50 -11t40.5 12t17.5 37t-17 35t-54 12l9 55q-53 4 -82 28t-43 62.5t-16.5 87t-2.5 102.5q0 58 3 109t20.5 89t54 60.5t102.5 22.5q42 0 69.5 -9.5t44.5 -30.5t25 -55t10 -83l-77 -12q-2 31 -5.5 53t-11.5 35.5t-21 20t-34 6.5q-32 0 -49.5 -14t-26 -41
t-10 -65t-1.5 -86t1.5 -86.5t9 -65.5t23.5 -41.5t45 -14.5q25 0 40.5 9t24.5 25.5t12.5 40.5t5.5 54l77 -8q-2 -36 -7.5 -70.5t-21.5 -61.5t-45 -44.5t-78 -18.5l-2 -32q45 0 62 -21.5t17 -56.5t-28.5 -54.5t-68.5 -19.5q-18 0 -37 4t-38 12z" />
    <glyph glyph-name="egrave" unicode="&#xe8;" horiz-adv-x="411" 
d="M382 160q-5 -42 -16 -74t-30.5 -53.5t-50 -32.5t-74.5 -11q-65 0 -101 23.5t-54 62.5t-22 89.5t-4 104.5q0 58 4 110t21.5 90t53 60.5t98.5 22.5q64 0 99.5 -22t52.5 -57t20 -78t3 -85v-42h-263q0 -41 2.5 -78t12 -65.5t29 -45t54.5 -16.5q24 0 40 7.5t26 21.5t15 34
t8 45zM294 364q0 25 -3.5 47t-12.5 38.5t-26 26t-44 9.5q-30 0 -46.5 -12t-25.5 -33t-11.5 -50.5t-3.5 -65.5h173v40zM75 712l50 58l162 -127l-33 -37z" />
    <glyph glyph-name="eacute" unicode="&#xe9;" horiz-adv-x="411" 
d="M382 160q-5 -42 -16 -74t-30.5 -53.5t-50 -32.5t-74.5 -11q-65 0 -101 23.5t-54 62.5t-22 89.5t-4 104.5q0 58 4 110t21.5 90t53 60.5t98.5 22.5q64 0 99.5 -22t52.5 -57t20 -78t3 -85v-42h-263q0 -41 2.5 -78t12 -65.5t29 -45t54.5 -16.5q24 0 40 7.5t26 21.5t15 34
t8 45zM294 364q0 25 -3.5 47t-12.5 38.5t-26 26t-44 9.5q-30 0 -46.5 -12t-25.5 -33t-11.5 -50.5t-3.5 -65.5h173v40zM156 592l-34 38l162 126l50 -59z" />
    <glyph glyph-name="ecircumflex" unicode="&#xea;" horiz-adv-x="411" 
d="M382 160q-5 -42 -16 -74t-30.5 -53.5t-50 -32.5t-74.5 -11q-65 0 -101 23.5t-54 62.5t-22 89.5t-4 104.5q0 58 4 110t21.5 90t53 60.5t98.5 22.5q64 0 99.5 -22t52.5 -57t20 -78t3 -85v-42h-263q0 -41 2.5 -78t12 -65.5t29 -45t54.5 -16.5q24 0 40 7.5t26 21.5t15 34
t8 45zM294 364q0 25 -3.5 47t-12.5 38.5t-26 26t-44 9.5q-30 0 -46.5 -12t-25.5 -33t-11.5 -50.5t-3.5 -65.5h173v40zM262 618l-59 104l-59 -106l-48 28l76 127h64l78 -128z" />
    <glyph glyph-name="edieresis" unicode="&#xeb;" horiz-adv-x="411" 
d="M382 160q-5 -42 -16 -74t-30.5 -53.5t-50 -32.5t-74.5 -11q-65 0 -101 23.5t-54 62.5t-22 89.5t-4 104.5q0 58 4 110t21.5 90t53 60.5t98.5 22.5q64 0 99.5 -22t52.5 -57t20 -78t3 -85v-42h-263q0 -41 2.5 -78t12 -65.5t29 -45t54.5 -16.5q24 0 40 7.5t26 21.5t15 34
t8 45zM294 364q0 25 -3.5 47t-12.5 38.5t-26 26t-44 9.5q-30 0 -46.5 -12t-25.5 -33t-11.5 -50.5t-3.5 -65.5h173v40zM83 613v120h82v-120h-82zM246 613v120h82v-120h-82z" />
    <glyph glyph-name="igrave" unicode="&#xec;" horiz-adv-x="175" 
d="M-39 712l50 58l162 -127l-33 -37zM40 0v543h95v-543h-95z" />
    <glyph glyph-name="iacute" unicode="&#xed;" horiz-adv-x="175" 
d="M41 592l-34 38l162 126l50 -59zM40 0v543h95v-543h-95z" />
    <glyph glyph-name="icircumflex" unicode="&#xee;" horiz-adv-x="175" 
d="M40 0v543h95v-543h-95zM147 618l-59 104l-59 -106l-48 28l76 127h64l78 -128z" />
    <glyph glyph-name="idieresis" unicode="&#xef;" horiz-adv-x="175" 
d="M-32 613v120h82v-120h-82zM131 613v120h82v-120h-82zM40 0v543h95v-543h-95z" />
    <glyph glyph-name="eth" unicode="&#xf0;" horiz-adv-x="449" 
d="M368 680q22 -63 26.5 -158.5t4.5 -221.5q0 -74 -3 -131.5t-20.5 -97.5t-55 -61t-106.5 -21t-106 20.5t-54.5 56t-20.5 84t-3 104.5t2.5 104.5t16.5 84.5t44 56.5t84 20.5q57 0 88.5 -10t49.5 -21q-1 38 -5.5 78.5t-18.5 69.5l-86 -46l-13 41l79 43q-15 22 -37.5 34
t-56.5 13l17 72q54 -3 95 -20t64 -56l52 29l14 -41zM214 63q33 0 51 11.5t27 34.5t10.5 59t1.5 86q0 58 -3 95t-13.5 58t-30 29t-53.5 8q-29 0 -45.5 -11.5t-24 -34.5t-9 -59t-1.5 -85q0 -50 1.5 -86t10.5 -59t27 -34.5t51 -11.5z" />
    <glyph glyph-name="ntilde" unicode="&#xf1;" horiz-adv-x="431" 
d="M297 0v412q0 30 -16 47t-47 17q-35 0 -56.5 -20t-43.5 -65v-391h-94v543h79q1 -6 2.5 -16.5t3 -22t2.5 -22.5t1 -18q24 42 58 65t86 23q36 0 59 -12t36.5 -32.5t18.5 -46.5t5 -54v-407h-94zM376 728q-12 -48 -37 -68.5t-55 -20.5q-20 0 -38 7t-35.5 15.5t-33 15.5
t-29.5 7q-22 0 -39 -54l-55 27q11 45 34.5 64t53.5 19q20 0 39 -7.5t36 -16.5t32.5 -16.5t29.5 -7.5q28 0 38 55z" />
    <glyph glyph-name="ograve" unicode="&#xf2;" horiz-adv-x="429" 
d="M214 -11q-69 0 -106 23t-54.5 61.5t-20.5 89t-3 106.5t3 107.5t20.5 90.5t55 62t105.5 23q69 0 106.5 -23t55 -62t20.5 -90.5t3 -107.5t-3 -106.5t-20.5 -89t-55 -61.5t-106.5 -23zM214 63q33 0 51 12t27 37.5t10.5 64t1.5 92.5t-1.5 93t-10.5 64.5t-27 37.5t-51 12
t-51 -12t-27 -37.5t-10.5 -64.5t-1.5 -93t1.5 -92.5t10.5 -64t27 -37.5t51 -12zM84 712l50 58l162 -127l-33 -37z" />
    <glyph glyph-name="oacute" unicode="&#xf3;" horiz-adv-x="429" 
d="M214 -11q-69 0 -106 23t-54.5 61.5t-20.5 89t-3 106.5t3 107.5t20.5 90.5t55 62t105.5 23q69 0 106.5 -23t55 -62t20.5 -90.5t3 -107.5t-3 -106.5t-20.5 -89t-55 -61.5t-106.5 -23zM214 63q33 0 51 12t27 37.5t10.5 64t1.5 92.5t-1.5 93t-10.5 64.5t-27 37.5t-51 12
t-51 -12t-27 -37.5t-10.5 -64.5t-1.5 -93t1.5 -92.5t10.5 -64t27 -37.5t51 -12zM164 592l-34 38l162 126l50 -59z" />
    <glyph glyph-name="ocircumflex" unicode="&#xf4;" horiz-adv-x="429" 
d="M214 -11q-69 0 -106 23t-54.5 61.5t-20.5 89t-3 106.5t3 107.5t20.5 90.5t55 62t105.5 23q69 0 106.5 -23t55 -62t20.5 -90.5t3 -107.5t-3 -106.5t-20.5 -89t-55 -61.5t-106.5 -23zM214 63q33 0 51 12t27 37.5t10.5 64t1.5 92.5t-1.5 93t-10.5 64.5t-27 37.5t-51 12
t-51 -12t-27 -37.5t-10.5 -64.5t-1.5 -93t1.5 -92.5t10.5 -64t27 -37.5t51 -12zM271 618l-59 104l-59 -106l-48 28l76 127h64l78 -128z" />
    <glyph glyph-name="otilde" unicode="&#xf5;" horiz-adv-x="429" 
d="M214 -11q-69 0 -106 23t-54.5 61.5t-20.5 89t-3 106.5t3 107.5t20.5 90.5t55 62t105.5 23q69 0 106.5 -23t55 -62t20.5 -90.5t3 -107.5t-3 -106.5t-20.5 -89t-55 -61.5t-106.5 -23zM214 63q33 0 51 12t27 37.5t10.5 64t1.5 92.5t-1.5 93t-10.5 64.5t-27 37.5t-51 12
t-51 -12t-27 -37.5t-10.5 -64.5t-1.5 -93t1.5 -92.5t10.5 -64t27 -37.5t51 -12zM375 728q-12 -48 -37 -68.5t-55 -20.5q-20 0 -38 7t-35.5 15.5t-33 15.5t-29.5 7q-22 0 -39 -54l-55 27q11 45 34.5 64t53.5 19q20 0 39 -7.5t36 -16.5t32.5 -16.5t29.5 -7.5q28 0 38 55z" />
    <glyph glyph-name="odieresis" unicode="&#xf6;" horiz-adv-x="429" 
d="M214 -11q-69 0 -106 23t-54.5 61.5t-20.5 89t-3 106.5t3 107.5t20.5 90.5t55 62t105.5 23q69 0 106.5 -23t55 -62t20.5 -90.5t3 -107.5t-3 -106.5t-20.5 -89t-55 -61.5t-106.5 -23zM214 63q33 0 51 12t27 37.5t10.5 64t1.5 92.5t-1.5 93t-10.5 64.5t-27 37.5t-51 12
t-51 -12t-27 -37.5t-10.5 -64.5t-1.5 -93t1.5 -92.5t10.5 -64t27 -37.5t51 -12zM92 613v120h82v-120h-82zM255 613v120h82v-120h-82z" />
    <glyph glyph-name="divide" unicode="&#xf7;" horiz-adv-x="530" 
d="M30 340v63h470v-63h-470zM218 99v130h94v-130h-94zM218 512v130h94v-130h-94z" />
    <glyph glyph-name="oslash" unicode="&#xf8;" horiz-adv-x="429" 
d="M85 -19l13 37q-26 18 -39.5 44.5t-20 59t-7.5 70t-1 77.5q0 56 3 107.5t20.5 90.5t55 62t105.5 23q42 0 72 -9l16 43l47 -22l-16 -44q24 -18 37.5 -44.5t20 -59t7.5 -70t1 -77.5q0 -56 -3 -106.5t-20.5 -89t-55 -61.5t-106.5 -23q-40 0 -70 9l-13 -36zM259 467
q-18 9 -45 9q-33 0 -51 -12t-27 -37.5t-10.5 -64.5t-1.5 -93q0 -51 1 -88.5t9 -62.5zM170 71q18 -8 44 -8q33 0 51 12t27 37.5t10.5 64t1.5 92.5q0 48 -1.5 84.5t-7.5 61.5z" />
    <glyph glyph-name="ugrave" unicode="&#xf9;" horiz-adv-x="412" 
d="M304 0q-2 5 -4 15.5t-3 22t-1.5 22.5t-0.5 18q-21 -42 -52.5 -64.5t-83.5 -22.5q-36 0 -59 12t-36.5 32.5t-18.5 46.5t-5 54v407h93v-413q0 -30 15 -47t45 -17q35 0 56 20t39 65v392h95v-543h-79zM76 712l50 58l162 -127l-33 -37z" />
    <glyph glyph-name="uacute" unicode="&#xfa;" horiz-adv-x="412" 
d="M304 0q-2 5 -4 15.5t-3 22t-1.5 22.5t-0.5 18q-21 -42 -52.5 -64.5t-83.5 -22.5q-36 0 -59 12t-36.5 32.5t-18.5 46.5t-5 54v407h93v-413q0 -30 15 -47t45 -17q35 0 56 20t39 65v392h95v-543h-79zM156 592l-34 38l162 126l50 -59z" />
    <glyph glyph-name="ucircumflex" unicode="&#xfb;" horiz-adv-x="412" 
d="M304 0q-2 5 -4 15.5t-3 22t-1.5 22.5t-0.5 18q-21 -42 -52.5 -64.5t-83.5 -22.5q-36 0 -59 12t-36.5 32.5t-18.5 46.5t-5 54v407h93v-413q0 -30 15 -47t45 -17q35 0 56 20t39 65v392h95v-543h-79zM263 618l-59 104l-59 -106l-48 28l76 127h64l78 -128z" />
    <glyph glyph-name="udieresis" unicode="&#xfc;" horiz-adv-x="412" 
d="M304 0q-2 5 -4 15.5t-3 22t-1.5 22.5t-0.5 18q-21 -42 -52.5 -64.5t-83.5 -22.5q-36 0 -59 12t-36.5 32.5t-18.5 46.5t-5 54v407h93v-413q0 -30 15 -47t45 -17q35 0 56 20t39 65v392h95v-543h-79zM83 613v120h82v-120h-82zM246 613v120h82v-120h-82z" />
    <glyph glyph-name="yacute" unicode="&#xfd;" horiz-adv-x="370" 
d="M8 543h104l84 -395l76 395h89l-141 -583q-9 -38 -20 -70.5t-28.5 -56.5t-43.5 -38t-64 -14q-21 0 -37.5 3.5t-32.5 13.5q10 20 20 39.5t20 39.5q14 -11 30 -11q21 0 44.5 30t40.5 108zM135 592l-34 38l162 126l50 -59z" />
    <glyph glyph-name="thorn" unicode="&#xfe;" horiz-adv-x="407" 
d="M40 -219v1007l96 17v-324q7 12 18.5 25t27.5 23t37.5 16.5t49.5 6.5q42 0 65 -19t34.5 -53t13.5 -81t2 -104q0 -63 -2.5 -118.5t-16.5 -97t-44 -65t-85 -23.5q-39 0 -64.5 17t-39.5 47v-274h-92zM131 128q2 -8 9.5 -18.5t18.5 -20.5t25 -17t29 -7q25 0 40.5 11t24 37.5
t11 70.5t2.5 110q0 54 -2.5 89.5t-9.5 56.5t-19.5 29t-32.5 8q-36 0 -60.5 -21t-35.5 -53v-275z" />
    <glyph glyph-name="ydieresis" unicode="&#xff;" horiz-adv-x="370" 
d="M8 543h104l84 -395l76 395h89l-141 -583q-9 -38 -20 -70.5t-28.5 -56.5t-43.5 -38t-64 -14q-21 0 -37.5 3.5t-32.5 13.5q10 20 20 39.5t20 39.5q14 -11 30 -11q21 0 44.5 30t40.5 108zM62 613v120h82v-120h-82zM225 613v120h82v-120h-82z" />
    <glyph glyph-name="Amacron" unicode="&#x100;" horiz-adv-x="421" 
d="M303 0l-30 179h-139l-31 -179h-94l148 745h105l150 -745h-109zM204 584l-63 -326h123zM34 827v65h352v-65h-352z" />
    <glyph glyph-name="amacron" unicode="&#x101;" horiz-adv-x="395" 
d="M384 0q-51 0 -74 17.5t-28 42.5q-19 -33 -49 -52t-86 -19q-36 0 -59 12.5t-37 33.5t-19.5 47.5t-5.5 54.5q0 53 8 89.5t33 59t72 32t125 9.5v41q0 28 -2 48.5t-9.5 34t-21.5 19.5t-38 6q-21 0 -34 -5.5t-21 -16.5t-11.5 -29.5t-5.5 -43.5l-79 7q3 42 9.5 73t22 51.5
t43.5 30t74 9.5q52 0 84 -12t50 -36.5t24 -61t6 -84.5v-253q0 -29 11.5 -36t25.5 -7zM264 272q-48 -3 -77 -8.5t-44 -19t-20 -37.5t-5 -64q0 -42 11 -63t42 -21q39 0 61.5 24.5t31.5 72.5v116zM24 625v65h352v-65h-352z" />
    <glyph glyph-name="Abreve" unicode="&#x102;" horiz-adv-x="421" 
d="M303 0l-30 179h-139l-31 -179h-94l148 745h105l150 -745h-109zM204 584l-63 -326h123zM360 939q-14 -60 -51.5 -94t-95.5 -34t-99.5 34.5t-52.5 94.5l49 17q4 -19 12.5 -36.5t21.5 -31t30.5 -21.5t38.5 -8q42 0 69 29.5t35 69.5z" />
    <glyph glyph-name="abreve" unicode="&#x103;" horiz-adv-x="395" 
d="M384 0q-51 0 -74 17.5t-28 42.5q-19 -33 -49 -52t-86 -19q-36 0 -59 12.5t-37 33.5t-19.5 47.5t-5.5 54.5q0 53 8 89.5t33 59t72 32t125 9.5v41q0 28 -2 48.5t-9.5 34t-21.5 19.5t-38 6q-21 0 -34 -5.5t-21 -16.5t-11.5 -29.5t-5.5 -43.5l-79 7q3 42 9.5 73t22 51.5
t43.5 30t74 9.5q52 0 84 -12t50 -36.5t24 -61t6 -84.5v-253q0 -29 11.5 -36t25.5 -7zM264 272q-48 -3 -77 -8.5t-44 -19t-20 -37.5t-5 -64q0 -42 11 -63t42 -21q39 0 61.5 24.5t31.5 72.5v116zM347 737q-14 -60 -51.5 -94t-95.5 -34t-99.5 34.5t-52.5 94.5l49 17
q4 -19 12.5 -36.5t21.5 -31t30.5 -21.5t38.5 -8q42 0 69 29.5t35 69.5z" />
    <glyph glyph-name="Aogonek" unicode="&#x104;" horiz-adv-x="421" 
d="M449 -191q-55 -28 -99 -28q-25 0 -40.5 11.5t-15.5 36.5q0 10 3.5 23t12.5 32.5t25 47.5t42 68h-74l-30 179h-139l-31 -179h-94l148 745h105l150 -745q-24 -32 -41.5 -65t-17.5 -47q0 -16 12 -22.5t30 -6.5q19 0 41 6t42 17zM204 584l-63 -326h123z" />
    <glyph glyph-name="aogonek" unicode="&#x105;" horiz-adv-x="395" 
d="M421 -191q-55 -28 -99 -28q-25 0 -40.5 11.5t-15.5 36.5q0 10 3.5 23t12.5 32.5t25 47.5t42 68q-32 3 -47.5 22.5t-19.5 37.5q-19 -33 -49 -52t-86 -19q-36 0 -59 12.5t-37 33.5t-19.5 47.5t-5.5 54.5q0 53 8 89.5t33 59t72 32t125 9.5v41q0 59 -14 83.5t-57 24.5
q-21 0 -34 -5.5t-21 -16.5t-11.5 -29.5t-5.5 -43.5l-79 7q3 42 9.5 73t22 51.5t43.5 30t74 9.5q52 0 84 -12t50 -36.5t24 -61t6 -84.5v-253q0 -29 11.5 -36t25.5 -7l-8 -62q-23 -34 -41 -64t-18 -48q0 -16 12 -22.5t30 -6.5t40.5 6t42.5 17zM264 272q-48 -3 -77 -8.5
t-44 -19t-20 -37.5t-5 -64q0 -42 11 -63t42 -21q39 0 61.5 24.5t31.5 72.5v116z" />
    <glyph glyph-name="Cacute" unicode="&#x106;" horiz-adv-x="444" 
d="M419 252q-5 -68 -10.5 -117.5t-23.5 -82.5t-54.5 -49t-102.5 -16q-72 0 -112 24.5t-59 72.5t-23 120t-4 168q0 95 4 167t23 121t59 73.5t112 24.5q67 0 104.5 -13.5t56 -44.5t23.5 -80.5t7 -121.5l-97 -13q-2 61 -4.5 99.5t-11.5 59.5t-27 28.5t-51 7.5t-52 -17.5
t-28 -54.5t-11.5 -95.5t-2.5 -140.5q0 -83 2.5 -141t11.5 -95t28 -53.5t52 -16.5t51 10t26.5 32.5t10.5 59.5t4 92zM180 794l-34 38l162 126l50 -59z" />
    <glyph glyph-name="cacute" unicode="&#x107;" horiz-adv-x="387" 
d="M362 184q-2 -36 -7.5 -71t-22 -62.5t-47.5 -44.5t-83 -17q-63 0 -98 22.5t-51.5 61.5t-19.5 90t-3 108q0 58 3 109t20.5 89t54 60.5t102.5 22.5q42 0 69.5 -9.5t44.5 -30.5t25 -55t10 -83l-77 -12q-2 31 -5.5 53t-11.5 35.5t-21 20t-34 6.5q-32 0 -49.5 -14t-26 -41
t-10 -65t-1.5 -86t1.5 -86.5t9 -65.5t23.5 -41.5t45 -14.5q25 0 40.5 9t24.5 25.5t12.5 40.5t5.5 54zM151 592l-34 38l162 126l50 -59z" />
    <glyph glyph-name="Ccircumflex" unicode="&#x108;" horiz-adv-x="444" 
d="M419 252q-5 -68 -10.5 -117.5t-23.5 -82.5t-54.5 -49t-102.5 -16q-72 0 -112 24.5t-59 72.5t-23 120t-4 168q0 95 4 167t23 121t59 73.5t112 24.5q67 0 104.5 -13.5t56 -44.5t23.5 -80.5t7 -121.5l-97 -13q-2 61 -4.5 99.5t-11.5 59.5t-27 28.5t-51 7.5t-52 -17.5
t-28 -54.5t-11.5 -95.5t-2.5 -140.5q0 -83 2.5 -141t11.5 -95t28 -53.5t52 -16.5t51 10t26.5 32.5t10.5 59.5t4 92zM278 820l-59 104l-59 -106l-48 28l76 127h64l78 -128z" />
    <glyph glyph-name="ccircumflex" unicode="&#x109;" horiz-adv-x="387" 
d="M362 184q-2 -36 -7.5 -71t-22 -62.5t-47.5 -44.5t-83 -17q-63 0 -98 22.5t-51.5 61.5t-19.5 90t-3 108q0 58 3 109t20.5 89t54 60.5t102.5 22.5q42 0 69.5 -9.5t44.5 -30.5t25 -55t10 -83l-77 -12q-2 31 -5.5 53t-11.5 35.5t-21 20t-34 6.5q-32 0 -49.5 -14t-26 -41
t-10 -65t-1.5 -86t1.5 -86.5t9 -65.5t23.5 -41.5t45 -14.5q25 0 40.5 9t24.5 25.5t12.5 40.5t5.5 54zM250 618l-59 104l-59 -106l-48 28l76 127h64l78 -128z" />
    <glyph glyph-name="Cdotaccent" unicode="&#x10a;" horiz-adv-x="444" 
d="M419 252q-5 -68 -10.5 -117.5t-23.5 -82.5t-54.5 -49t-102.5 -16q-72 0 -112 24.5t-59 72.5t-23 120t-4 168q0 95 4 167t23 121t59 73.5t112 24.5q67 0 104.5 -13.5t56 -44.5t23.5 -80.5t7 -121.5l-97 -13q-2 61 -4.5 99.5t-11.5 59.5t-27 28.5t-51 7.5t-52 -17.5
t-28 -54.5t-11.5 -95.5t-2.5 -140.5q0 -83 2.5 -141t11.5 -95t28 -53.5t52 -16.5t51 10t26.5 32.5t10.5 59.5t4 92zM181 815v120h82v-120h-82z" />
    <glyph glyph-name="cdotaccent" unicode="&#x10b;" horiz-adv-x="387" 
d="M362 184q-2 -36 -7.5 -71t-22 -62.5t-47.5 -44.5t-83 -17q-63 0 -98 22.5t-51.5 61.5t-19.5 90t-3 108q0 58 3 109t20.5 89t54 60.5t102.5 22.5q42 0 69.5 -9.5t44.5 -30.5t25 -55t10 -83l-77 -12q-2 31 -5.5 53t-11.5 35.5t-21 20t-34 6.5q-32 0 -49.5 -14t-26 -41
t-10 -65t-1.5 -86t1.5 -86.5t9 -65.5t23.5 -41.5t45 -14.5q25 0 40.5 9t24.5 25.5t12.5 40.5t5.5 54zM152 613v120h82v-120h-82z" />
    <glyph glyph-name="Ccaron" unicode="&#x10c;" horiz-adv-x="444" 
d="M419 252q-5 -68 -10.5 -117.5t-23.5 -82.5t-54.5 -49t-102.5 -16q-72 0 -112 24.5t-59 72.5t-23 120t-4 168q0 95 4 167t23 121t59 73.5t112 24.5q67 0 104.5 -13.5t56 -44.5t23.5 -80.5t7 -121.5l-97 -13q-2 61 -4.5 99.5t-11.5 59.5t-27 28.5t-51 7.5t-52 -17.5
t-28 -54.5t-11.5 -95.5t-2.5 -140.5q0 -83 2.5 -141t11.5 -95t28 -53.5t52 -16.5t51 10t26.5 32.5t10.5 59.5t4 92zM190 811l-78 127l52 25l58 -104l60 106l48 -28l-76 -126h-64z" />
    <glyph glyph-name="ccaron" unicode="&#x10d;" horiz-adv-x="387" 
d="M362 184q-2 -36 -7.5 -71t-22 -62.5t-47.5 -44.5t-83 -17q-63 0 -98 22.5t-51.5 61.5t-19.5 90t-3 108q0 58 3 109t20.5 89t54 60.5t102.5 22.5q42 0 69.5 -9.5t44.5 -30.5t25 -55t10 -83l-77 -12q-2 31 -5.5 53t-11.5 35.5t-21 20t-34 6.5q-32 0 -49.5 -14t-26 -41
t-10 -65t-1.5 -86t1.5 -86.5t9 -65.5t23.5 -41.5t45 -14.5q25 0 40.5 9t24.5 25.5t12.5 40.5t5.5 54zM162 609l-78 127l52 25l58 -104l60 106l48 -28l-76 -126h-64z" />
    <glyph glyph-name="Dcaron" unicode="&#x10e;" 
d="M40 0v745h167q81 0 127.5 -23.5t70 -70t29.5 -116.5t6 -163q0 -102 -5.5 -173t-28 -115t-68 -64t-124.5 -20h-174zM216 82q42 0 66.5 16t37 51t16 90t3.5 133q0 82 -3 138.5t-15.5 91.5t-39 51t-72.5 16h-71v-587h78zM181 811l-78 127l52 25l58 -104l60 106l48 -28
l-76 -126h-64z" />
    <glyph glyph-name="dcaron" unicode="&#x10f;" horiz-adv-x="536" 
d="M308 0q-2 6 -3.5 16t-2 21.5t-1 22t-0.5 17.5q-16 -38 -45.5 -62.5t-80.5 -24.5q-52 0 -81 21t-43.5 57t-17.5 84t-3 103q0 67 3.5 122t18.5 94t45.5 60t84.5 21q45 0 72.5 -20t39.5 -46v302l93 17v-805h-79zM294 413q-13 29 -37 46t-53 17q-28 0 -43.5 -12.5
t-23.5 -38.5t-10 -67.5t-2 -99.5q0 -50 1.5 -86.5t8 -60.5t20.5 -36t39 -12q24 0 40.5 8t28 21.5t19 32t12.5 39.5v249zM454 639q14 14 23 31.5t9 37.5h-43v97h89v-82q0 -26 -15.5 -53t-38.5 -47z" />
    <glyph glyph-name="Dcroat" unicode="&#x110;" 
d="M40 0v354h-36v79h36v312h167q81 0 127.5 -23.5t70 -70t29.5 -116.5t6 -163q0 -102 -5.5 -173t-28 -115t-68 -64t-124.5 -20h-174zM216 82q42 0 66.5 16t37 51t16 90t3.5 133q0 82 -3 138.5t-15.5 91.5t-39 51t-72.5 16h-71v-236h121l-8 -79h-113v-272h78z" />
    <glyph glyph-name="dcroat" unicode="&#x111;" horiz-adv-x="427" 
d="M308 0q-2 6 -3.5 16t-2 21.5t-1 22t-0.5 17.5q-16 -38 -45.5 -62.5t-80.5 -24.5q-52 0 -81 21t-43.5 57t-17.5 84t-3 103q0 67 3.5 122t18.5 94t45.5 60t84.5 21q45 0 72.5 -20t39.5 -46v164h-96l8 63h88v75l93 17v-92h32l-8 -63h-24v-650h-79zM294 413q-13 29 -37 46
t-53 17q-28 0 -43.5 -12.5t-23.5 -38.5t-10 -67.5t-2 -99.5q0 -50 1.5 -86.5t8 -60.5t20.5 -36t39 -12q24 0 40.5 8t28 21.5t19 32t12.5 39.5v249z" />
    <glyph glyph-name="Emacron" unicode="&#x112;" horiz-adv-x="353" 
d="M40 0v745h286v-78h-187v-235h157l-7 -79h-150v-277h192v-76h-291zM3 827v65h352v-65h-352z" />
    <glyph glyph-name="emacron" unicode="&#x113;" horiz-adv-x="411" 
d="M382 160q-5 -42 -16 -74t-30.5 -53.5t-50 -32.5t-74.5 -11q-65 0 -101 23.5t-54 62.5t-22 89.5t-4 104.5q0 58 4 110t21.5 90t53 60.5t98.5 22.5q64 0 99.5 -22t52.5 -57t20 -78t3 -85v-42h-263q0 -41 2.5 -78t12 -65.5t29 -45t54.5 -16.5q24 0 40 7.5t26 21.5t15 34
t8 45zM294 364q0 25 -3.5 47t-12.5 38.5t-26 26t-44 9.5q-30 0 -46.5 -12t-25.5 -33t-11.5 -50.5t-3.5 -65.5h173v40zM29 625v65h352v-65h-352z" />
    <glyph glyph-name="Ebreve" unicode="&#x114;" horiz-adv-x="353" 
d="M40 0v745h286v-78h-187v-235h157l-7 -79h-150v-277h192v-76h-291zM326 939q-14 -60 -51.5 -94t-95.5 -34t-99.5 34.5t-52.5 94.5l49 17q4 -19 12.5 -36.5t21.5 -31t30.5 -21.5t38.5 -8q42 0 69 29.5t35 69.5z" />
    <glyph glyph-name="ebreve" unicode="&#x115;" horiz-adv-x="411" 
d="M382 160q-5 -42 -16 -74t-30.5 -53.5t-50 -32.5t-74.5 -11q-65 0 -101 23.5t-54 62.5t-22 89.5t-4 104.5q0 58 4 110t21.5 90t53 60.5t98.5 22.5q64 0 99.5 -22t52.5 -57t20 -78t3 -85v-42h-263q0 -41 2.5 -78t12 -65.5t29 -45t54.5 -16.5q24 0 40 7.5t26 21.5t15 34
t8 45zM294 364q0 25 -3.5 47t-12.5 38.5t-26 26t-44 9.5q-30 0 -46.5 -12t-25.5 -33t-11.5 -50.5t-3.5 -65.5h173v40zM355 737q-14 -60 -51.5 -94t-95.5 -34t-99.5 34.5t-52.5 94.5l49 17q4 -19 12.5 -36.5t21.5 -31t30.5 -21.5t38.5 -8q42 0 69 29.5t35 69.5z" />
    <glyph glyph-name="Edotaccent" unicode="&#x116;" horiz-adv-x="353" 
d="M40 0v745h286v-78h-187v-235h157l-7 -79h-150v-277h192v-76h-291zM135 815v120h82v-120h-82z" />
    <glyph glyph-name="edotaccent" unicode="&#x117;" horiz-adv-x="411" 
d="M382 160q-5 -42 -16 -74t-30.5 -53.5t-50 -32.5t-74.5 -11q-65 0 -101 23.5t-54 62.5t-22 89.5t-4 104.5q0 58 4 110t21.5 90t53 60.5t98.5 22.5q64 0 99.5 -22t52.5 -57t20 -78t3 -85v-42h-263q0 -41 2.5 -78t12 -65.5t29 -45t54.5 -16.5q24 0 40 7.5t26 21.5t15 34
t8 45zM294 364q0 25 -3.5 47t-12.5 38.5t-26 26t-44 9.5q-30 0 -46.5 -12t-25.5 -33t-11.5 -50.5t-3.5 -65.5h173v40zM164 613v120h82v-120h-82z" />
    <glyph glyph-name="Eogonek" unicode="&#x118;" horiz-adv-x="353" 
d="M368 -191q-55 -28 -99 -28q-25 0 -40.5 11.5t-15.5 36.5q0 10 3.5 23t12.5 32.5t25 47.5t42 68h-256v745h286v-78h-187v-235h157l-7 -79h-150v-277h192v-76q-24 -32 -41.5 -65t-17.5 -47q0 -16 12 -22.5t30 -6.5q19 0 41 6t42 17z" />
    <glyph glyph-name="eogonek" unicode="&#x119;" horiz-adv-x="411" 
d="M322 -191q-55 -28 -99 -28q-25 0 -40.5 11.5t-15.5 36.5q0 22 7.5 43t19 41t25 39.5t25.5 39.5l-16 -2t-17 -1q-65 0 -101 23.5t-54 62.5t-22 89.5t-4 104.5q0 58 4 110t21.5 90t53 60.5t98.5 22.5q64 0 99.5 -22t52.5 -57t20 -78t3 -85v-42h-263q0 -41 2.5 -78t12 -65.5
t29 -45t54.5 -16.5q24 0 40 7t26 20.5t15 33.5t8 47l76 -11q-8 -63 -29.5 -103.5t-67.5 -56.5q-23 -33 -41 -64.5t-18 -47.5t12 -22.5t30 -6.5q19 0 41 6t42 17zM294 364q0 25 -3.5 47t-12.5 38.5t-26 26t-44 9.5q-30 0 -46.5 -12t-25.5 -33t-11.5 -50.5t-3.5 -65.5h173v40z
" />
    <glyph glyph-name="Ecaron" unicode="&#x11a;" horiz-adv-x="353" 
d="M40 0v745h286v-78h-187v-235h157l-7 -79h-150v-277h192v-76h-291zM145 811l-78 127l52 25l58 -104l60 106l48 -28l-76 -126h-64z" />
    <glyph glyph-name="ecaron" unicode="&#x11b;" horiz-adv-x="411" 
d="M382 160q-5 -42 -16 -74t-30.5 -53.5t-50 -32.5t-74.5 -11q-65 0 -101 23.5t-54 62.5t-22 89.5t-4 104.5q0 58 4 110t21.5 90t53 60.5t98.5 22.5q64 0 99.5 -22t52.5 -57t20 -78t3 -85v-42h-263q0 -41 2.5 -78t12 -65.5t29 -45t54.5 -16.5q24 0 40 7.5t26 21.5t15 34
t8 45zM294 364q0 25 -3.5 47t-12.5 38.5t-26 26t-44 9.5q-30 0 -46.5 -12t-25.5 -33t-11.5 -50.5t-3.5 -65.5h173v40zM174 609l-78 127l52 25l58 -104l60 106l48 -28l-76 -126h-64z" />
    <glyph glyph-name="Gcircumflex" unicode="&#x11c;" horiz-adv-x="447" 
d="M341 0l-9 71q-7 -17 -17.5 -32t-26.5 -26.5t-39 -18.5t-54 -7q-60 0 -93.5 27.5t-49 78.5t-19 123t-3.5 161q0 87 4 157.5t23 120t59 76.5t113 27q65 0 101 -13t53.5 -41t22.5 -72.5t8 -106.5l-82 -20q-2 47 -5 80t-12.5 54t-28.5 30.5t-53 9.5q-37 0 -57.5 -19
t-30.5 -56.5t-12.5 -94.5t-2.5 -132q0 -70 2 -127.5t11 -98t26.5 -63t48.5 -22.5q45 0 71.5 28t31.5 73v137h-93l13 78h173v-382h-73zM280 820l-59 104l-59 -106l-48 28l76 127h64l78 -128z" />
    <glyph glyph-name="gcircumflex" unicode="&#x11d;" horiz-adv-x="376" 
d="M130 -219q-64 0 -95 35t-31 89q0 67 27 96.5t84 38.5q-31 12 -45.5 30.5t-14.5 62.5q0 39 16 61.5t46 30.5q-42 21 -60 60t-18 93q0 31 6 60.5t23 52.5t47 37.5t77 14.5q17 0 31.5 -2.5t26.5 -6.5q10 32 23.5 59t30.5 43l56 -30q-20 -14 -38.5 -40t-30.5 -53
q30 -23 41 -60t11 -75q0 -35 -7 -67t-23 -56.5t-41.5 -39t-61.5 -14.5h-18t-17 1q-14 -8 -20 -18.5t-6 -30.5q0 -17 11 -32t36 -15h53q24 0 46 -8.5t39.5 -26.5t27.5 -46.5t10 -68.5q0 -95 -38 -135t-120 -40h-84zM299 -61q0 48 -22 63.5t-70 15.5q-30 0 -52.5 -3t-37.5 -12
t-22.5 -25.5t-7.5 -43.5t6.5 -43.5t20.5 -26t36 -13t52 -3.5q54 0 75.5 20t21.5 71zM192 261q36 0 49.5 26t13.5 89q0 62 -13 85.5t-50 23.5t-49.5 -24.5t-12.5 -84.5q0 -61 12.5 -88t49.5 -27zM244 618l-59 104l-59 -106l-48 28l76 127h64l78 -128z" />
    <glyph glyph-name="Gbreve" unicode="&#x11e;" horiz-adv-x="447" 
d="M341 0l-9 71q-7 -17 -17.5 -32t-26.5 -26.5t-39 -18.5t-54 -7q-60 0 -93.5 27.5t-49 78.5t-19 123t-3.5 161q0 87 4 157.5t23 120t59 76.5t113 27q65 0 101 -13t53.5 -41t22.5 -72.5t8 -106.5l-82 -20q-2 47 -5 80t-12.5 54t-28.5 30.5t-53 9.5q-37 0 -57.5 -19
t-30.5 -56.5t-12.5 -94.5t-2.5 -132q0 -70 2 -127.5t11 -98t26.5 -63t48.5 -22.5q45 0 71.5 28t31.5 73v137h-93l13 78h173v-382h-73zM373 939q-14 -60 -51.5 -94t-95.5 -34t-99.5 34.5t-52.5 94.5l49 17q4 -19 12.5 -36.5t21.5 -31t30.5 -21.5t38.5 -8q42 0 69 29.5
t35 69.5z" />
    <glyph glyph-name="gbreve" unicode="&#x11f;" horiz-adv-x="376" 
d="M130 -219q-64 0 -95 35t-31 89q0 67 27 96.5t84 38.5q-31 12 -45.5 30.5t-14.5 62.5q0 39 16 61.5t46 30.5q-42 21 -60 60t-18 93q0 31 6 60.5t23 52.5t47 37.5t77 14.5q17 0 31.5 -2.5t26.5 -6.5q10 32 23.5 59t30.5 43l56 -30q-20 -14 -38.5 -40t-30.5 -53
q30 -23 41 -60t11 -75q0 -35 -7 -67t-23 -56.5t-41.5 -39t-61.5 -14.5h-18t-17 1q-14 -8 -20 -18.5t-6 -30.5q0 -17 11 -32t36 -15h53q24 0 46 -8.5t39.5 -26.5t27.5 -46.5t10 -68.5q0 -95 -38 -135t-120 -40h-84zM299 -61q0 48 -22 63.5t-70 15.5q-30 0 -52.5 -3t-37.5 -12
t-22.5 -25.5t-7.5 -43.5t6.5 -43.5t20.5 -26t36 -13t52 -3.5q54 0 75.5 20t21.5 71zM192 261q36 0 49.5 26t13.5 89q0 62 -13 85.5t-50 23.5t-49.5 -24.5t-12.5 -84.5q0 -61 12.5 -88t49.5 -27zM337 737q-14 -60 -51.5 -94t-95.5 -34t-99.5 34.5t-52.5 94.5l49 17
q4 -19 12.5 -36.5t21.5 -31t30.5 -21.5t38.5 -8q42 0 69 29.5t35 69.5z" />
    <glyph glyph-name="Gdotaccent" unicode="&#x120;" horiz-adv-x="447" 
d="M341 0l-9 71q-7 -17 -17.5 -32t-26.5 -26.5t-39 -18.5t-54 -7q-60 0 -93.5 27.5t-49 78.5t-19 123t-3.5 161q0 87 4 157.5t23 120t59 76.5t113 27q65 0 101 -13t53.5 -41t22.5 -72.5t8 -106.5l-82 -20q-2 47 -5 80t-12.5 54t-28.5 30.5t-53 9.5q-37 0 -57.5 -19
t-30.5 -56.5t-12.5 -94.5t-2.5 -132q0 -70 2 -127.5t11 -98t26.5 -63t48.5 -22.5q45 0 71.5 28t31.5 73v137h-93l13 78h173v-382h-73zM182 815v120h82v-120h-82z" />
    <glyph glyph-name="gdotaccent" unicode="&#x121;" horiz-adv-x="376" 
d="M130 -219q-64 0 -95 35t-31 89q0 67 27 96.5t84 38.5q-31 12 -45.5 30.5t-14.5 62.5q0 39 16 61.5t46 30.5q-42 21 -60 60t-18 93q0 31 6 60.5t23 52.5t47 37.5t77 14.5q17 0 31.5 -2.5t26.5 -6.5q10 32 23.5 59t30.5 43l56 -30q-20 -14 -38.5 -40t-30.5 -53
q30 -23 41 -60t11 -75q0 -35 -7 -67t-23 -56.5t-41.5 -39t-61.5 -14.5h-18t-17 1q-14 -8 -20 -18.5t-6 -30.5q0 -17 11 -32t36 -15h53q24 0 46 -8.5t39.5 -26.5t27.5 -46.5t10 -68.5q0 -95 -38 -135t-120 -40h-84zM299 -61q0 48 -22 63.5t-70 15.5q-30 0 -52.5 -3t-37.5 -12
t-22.5 -25.5t-7.5 -43.5t6.5 -43.5t20.5 -26t36 -13t52 -3.5q54 0 75.5 20t21.5 71zM192 261q36 0 49.5 26t13.5 89q0 62 -13 85.5t-50 23.5t-49.5 -24.5t-12.5 -84.5q0 -61 12.5 -88t49.5 -27zM147 613v120h82v-120h-82z" />
    <glyph glyph-name="Gcommaaccent" unicode="&#x122;" horiz-adv-x="447" 
d="M341 0l-9 71q-7 -17 -17.5 -32t-26.5 -26.5t-39 -18.5t-54 -7q-60 0 -93.5 27.5t-49 78.5t-19 123t-3.5 161q0 87 4 157.5t23 120t59 76.5t113 27q65 0 101 -13t53.5 -41t22.5 -72.5t8 -106.5l-82 -20q-2 47 -5 80t-12.5 54t-28.5 30.5t-53 9.5q-37 0 -57.5 -19
t-30.5 -56.5t-12.5 -94.5t-2.5 -132q0 -70 2 -127.5t11 -98t26.5 -63t48.5 -22.5q45 0 71.5 28t31.5 73v137h-93l13 78h173v-382h-73zM190 -203q14 14 23 31.5t9 37.5h-43v97h89v-82q0 -26 -15.5 -53t-38.5 -47z" />
    <glyph glyph-name="gcommaaccent" unicode="&#x123;" horiz-adv-x="376" 
d="M130 -219q-64 0 -95 35t-31 89q0 67 27 96.5t84 38.5q-31 12 -45.5 30.5t-14.5 62.5q0 39 16 61.5t46 30.5q-42 21 -60 60t-18 93q0 31 6 60.5t23 52.5t47 37.5t77 14.5q17 0 31.5 -2.5t26.5 -6.5q10 32 23.5 59t30.5 43l56 -30q-20 -14 -38.5 -40t-30.5 -53
q30 -23 41 -60t11 -75q0 -35 -7 -67t-23 -56.5t-41.5 -39t-61.5 -14.5h-18t-17 1q-14 -8 -20 -18.5t-6 -30.5q0 -17 11 -32t36 -15h53q24 0 46 -8.5t39.5 -26.5t27.5 -46.5t10 -68.5q0 -95 -38 -135t-120 -40h-84zM299 -61q0 48 -22 63.5t-70 15.5q-30 0 -52.5 -3t-37.5 -12
t-22.5 -25.5t-7.5 -43.5t6.5 -43.5t20.5 -26t36 -13t52 -3.5q54 0 75.5 20t21.5 71zM192 261q36 0 49.5 26t13.5 89q0 62 -13 85.5t-50 23.5t-49.5 -24.5t-12.5 -84.5q0 -61 12.5 -88t49.5 -27zM164 639q14 14 23 31.5t9 37.5h-43v97h89v-82q0 -26 -15.5 -53t-38.5 -47z" />
    <glyph glyph-name="Hcircumflex" unicode="&#x124;" horiz-adv-x="451" 
d="M312 0v346h-172v-346h-100v745h100v-321h172v321h99v-745h-99zM282 820l-59 104l-59 -106l-48 28l76 127h64l78 -128z" />
    <glyph glyph-name="hcircumflex" unicode="&#x125;" horiz-adv-x="431" 
d="M297 0v412q0 30 -16 47t-47 17q-35 0 -56.5 -20t-43.5 -65v-391h-94v788l94 17v-333q23 35 54.5 57.5t83.5 22.5q36 0 59 -12t36.5 -32.5t18.5 -46.5t5 -54v-407h-94zM149 820l-59 104l-59 -106l-48 28l76 127h64l78 -128z" />
    <glyph glyph-name="Hbar" unicode="&#x126;" horiz-adv-x="451" 
d="M312 0v346h-172v-346h-100v745h100v-132h172v132h99v-745h-99zM312 548h-172v-124h172v124z" />
    <glyph glyph-name="hbar" unicode="&#x127;" horiz-adv-x="431" 
d="M297 0v399q0 39 -13.5 58t-49.5 19q-35 0 -56.5 -20t-43.5 -65v-391h-94v650h-34l8 63h26v75l94 17v-92h93l-8 -63h-85v-178q23 35 54.5 57.5t83.5 22.5q36 0 59 -12t36.5 -32.5t18.5 -46.5t5 -54v-407h-94z" />
    <glyph glyph-name="Itilde" unicode="&#x128;" horiz-adv-x="179" 
d="M40 0v745h99v-745h-99zM253 930q-12 -48 -37 -68.5t-55 -20.5q-20 0 -38 7t-35.5 15.5t-33 15.5t-29.5 7q-22 0 -39 -54l-55 27q11 45 34.5 64t53.5 19q20 0 39 -7.5t36 -16.5t32.5 -16.5t29.5 -7.5q28 0 38 55z" />
    <glyph glyph-name="itilde" unicode="&#x129;" horiz-adv-x="175" 
d="M251 728q-12 -48 -37 -68.5t-55 -20.5q-20 0 -38 7t-35.5 15.5t-33 15.5t-29.5 7q-22 0 -39 -54l-55 27q11 45 34.5 64t53.5 19q20 0 39 -7.5t36 -16.5t32.5 -16.5t29.5 -7.5q28 0 38 55zM40 0v543h95v-543h-95z" />
    <glyph glyph-name="uni012A" unicode="&#x12a;" horiz-adv-x="179" 
d="M40 0v745h99v-745h-99zM-84 827v65h352v-65h-352z" />
    <glyph glyph-name="imacron" unicode="&#x12b;" horiz-adv-x="175" 
d="M-85 625v65h352v-65h-352zM40 0v543h95v-543h-95z" />
    <glyph glyph-name="Ibreve" unicode="&#x12c;" horiz-adv-x="179" 
d="M40 0v745h99v-745h-99zM242 939q-14 -60 -51.5 -94t-95.5 -34t-99.5 34.5t-52.5 94.5l49 17q4 -19 12.5 -36.5t21.5 -31t30.5 -21.5t38.5 -8q42 0 69 29.5t35 69.5z" />
    <glyph glyph-name="uni012D" unicode="&#x12d;" horiz-adv-x="175" 
d="M240 737q-14 -60 -51.5 -94t-95.5 -34t-99.5 34.5t-52.5 94.5l49 17q4 -19 12.5 -36.5t21.5 -31t30.5 -21.5t38.5 -8q42 0 69 29.5t35 69.5zM40 0v543h95v-543h-95z" />
    <glyph glyph-name="Iogonek" unicode="&#x12e;" horiz-adv-x="179" 
d="M176 -191q-55 -28 -99 -28q-25 0 -40 11.5t-15 36.5q0 10 3 23.5t12 33t25 47.5t42 67h-64v745h99v-745q-23 -35 -41 -65t-18 -47q0 -16 12 -22.5t30 -6.5q19 0 41 6t42 17z" />
    <glyph glyph-name="iogonek" unicode="&#x12f;" horiz-adv-x="174" 
d="M171 -191q-55 -28 -99 -28q-25 0 -40.5 11.5t-15.5 36.5q0 10 3.5 23t12.5 32.5t25 47.5t42 68h-59v543h94v-543q-24 -32 -41.5 -65t-17.5 -47q0 -16 12 -22.5t30 -6.5q19 0 41 6t42 17zM40 653v130h94v-130h-94z" />
    <glyph glyph-name="Idotaccent" unicode="&#x130;" horiz-adv-x="179" 
d="M40 0v745h99v-745h-99zM48 815v120h82v-120h-82z" />
    <glyph glyph-name="dotlessi" unicode="&#x131;" horiz-adv-x="175" 
d="M40 0v543h95v-543h-95z" />
    <glyph glyph-name="IJ" unicode="&#x132;" horiz-adv-x="539" 
d="M40 0v745h99v-745h-99zM401 745h98v-565q0 -45 -4.5 -81t-21 -61t-49.5 -38t-89 -13q-36 0 -61.5 7t-43 21.5t-29.5 35.5t-21 49l77 30q8 -32 23.5 -48t52.5 -16q23 0 36.5 6t20.5 19.5t9 33.5t2 49v571z" />
    <glyph glyph-name="ij" unicode="&#x133;" horiz-adv-x="367" 
d="M40 0v543h94v-543h-94zM40 654v130h94v-130h-94zM233 654v130h94v-130h-94zM131 -120q10 -14 24.5 -19t28.5 -5q13 0 22.5 4.5t15.5 18.5t8.5 40.5t2.5 70.5v553h94v-579q0 -54 -7 -89.5t-22 -56t-39.5 -29t-58.5 -8.5t-55 9.5t-32 22.5z" />
    <glyph glyph-name="Jcircumflex" unicode="&#x134;" horiz-adv-x="368" 
d="M230 745h98v-565q0 -45 -4.5 -81t-21 -61t-49.5 -38t-89 -13q-36 0 -61.5 7t-43 21.5t-29.5 35.5t-21 49l77 30q8 -32 23.5 -48t52.5 -16q23 0 36.5 6t20.5 19.5t9 33.5t2 49v571zM337 820l-59 104l-59 -106l-48 28l76 127h64l78 -128z" />
    <glyph glyph-name="jcircumflex" unicode="&#x135;" horiz-adv-x="187" 
d="M-49 -120q10 -14 24.5 -19t28.5 -5q13 0 22.5 4.5t15.5 18.5t8.5 40.5t2.5 70.5v553h94v-579q0 -54 -7 -89.5t-22 -56t-39.5 -29t-58.5 -8.5t-55 9.5t-32 22.5zM158 618l-59 104l-59 -106l-48 28l76 127h64l78 -128z" />
    <glyph glyph-name="Kcommaaccent" unicode="&#x136;" horiz-adv-x="430" 
d="M305 0l-92 390l-74 -129v-261h-99v745h99v-331l150 331h112l-131 -244l150 -501h-115zM184 -203q14 14 23 31.5t9 37.5h-43v97h89v-82q0 -26 -15.5 -53t-38.5 -47z" />
    <glyph glyph-name="kcommaaccent" unicode="&#x137;" horiz-adv-x="394" 
d="M277 0l-70 298l-73 -98v-200h-94v788l94 17v-495l132 233h110l-109 -156l122 -387h-112zM166 -203q14 14 23 31.5t9 37.5h-43v97h89v-82q0 -26 -15.5 -53t-38.5 -47z" />
    <glyph glyph-name="kgreenlandic" unicode="&#x138;" horiz-adv-x="394" 
d="M277 0l-70 298l-73 -98v-200h-94v543h94v-233l132 233h110l-109 -156l122 -387h-112z" />
    <glyph glyph-name="Lacute" unicode="&#x139;" horiz-adv-x="306" 
d="M40 0v745h100v-669h153v-76h-253zM52 794l-34 38l162 126l50 -59z" />
    <glyph glyph-name="lacute" unicode="&#x13a;" horiz-adv-x="174" 
d="M40 0v788l94 17v-805h-94zM42 794l-34 38l162 126l50 -59z" />
    <glyph glyph-name="Lcommaaccent" unicode="&#x13b;" horiz-adv-x="306" 
d="M40 0v745h100v-669h153v-76h-253zM122 -203q14 14 23 31.5t9 37.5h-43v97h89v-82q0 -26 -15.5 -53t-38.5 -47z" />
    <glyph glyph-name="lcommaaccent" unicode="&#x13c;" horiz-adv-x="174" 
d="M40 0v788l94 17v-805h-94zM56 -203q14 14 23 31.5t9 37.5h-43v97h89v-82q0 -26 -15.5 -53t-38.5 -47z" />
    <glyph glyph-name="Lcaron" unicode="&#x13d;" horiz-adv-x="326" 
d="M40 0v745h100v-669h153v-76h-253zM193 639q14 14 23 31.5t9 37.5h-43v97h89v-82q0 -26 -15.5 -53t-38.5 -47z" />
    <glyph glyph-name="lcaron" unicode="&#x13e;" horiz-adv-x="283" 
d="M40 0v788l94 17v-805h-94zM201 639q14 14 23 31.5t9 37.5h-43v97h89v-82q0 -26 -15.5 -53t-38.5 -47z" />
    <glyph glyph-name="Ldot" unicode="&#x13f;" horiz-adv-x="306" 
d="M40 0v745h100v-669h153v-76h-253zM159.436 299.688v121.748h87.6436v-121.748h-87.6436z" />
    <glyph glyph-name="ldot" unicode="&#x140;" horiz-adv-x="269" 
d="M40 0v788l94 17v-805h-94zM160.368 298.751v121.748h87.6436v-121.748h-87.6436z" />
    <glyph glyph-name="Lslash" unicode="&#x141;" horiz-adv-x="303" 
d="M36 0v287l-22 -13l-27 48l49 27v396h100v-341l74 42l26 -46l-100 -58v-266h153v-76h-253z" />
    <glyph glyph-name="lslash" unicode="&#x142;" horiz-adv-x="199" 
d="M51 0v335l-46 -25l-26 47l72 38v393l97 17v-360l49 27l25 -46l-74 -40v-386h-97z" />
    <glyph glyph-name="Nacute" unicode="&#x143;" horiz-adv-x="445" 
d="M305 0l-182 515v-515h-85v745h103l181 -516v516h85v-745h-102zM180 794l-34 38l162 126l50 -59z" />
    <glyph glyph-name="nacute" unicode="&#x144;" horiz-adv-x="431" 
d="M297 0v412q0 30 -16 47t-47 17q-35 0 -56.5 -20t-43.5 -65v-391h-94v543h79q1 -6 2.5 -16.5t3 -22t2.5 -22.5t1 -18q24 42 58 65t86 23q36 0 59 -12t36.5 -32.5t18.5 -46.5t5 -54v-407h-94zM173 592l-34 38l162 126l50 -59z" />
    <glyph glyph-name="Ncommaaccent" unicode="&#x145;" horiz-adv-x="445" 
d="M305 0l-182 515v-515h-85v745h103l181 -516v516h85v-745h-102zM186 -203q14 14 23 31.5t9 37.5h-43v97h89v-82q0 -26 -15.5 -53t-38.5 -47z" />
    <glyph glyph-name="ncommaaccent" unicode="&#x146;" horiz-adv-x="431" 
d="M297 0v412q0 30 -16 47t-47 17q-35 0 -56.5 -20t-43.5 -65v-391h-94v543h79q1 -6 2.5 -16.5t3 -22t2.5 -22.5t1 -18q24 42 58 65t86 23q36 0 59 -12t36.5 -32.5t18.5 -46.5t5 -54v-407h-94zM185 -203q14 14 23 31.5t9 37.5h-43v97h89v-82q0 -26 -15.5 -53t-38.5 -47z" />
    <glyph glyph-name="Ncaron" unicode="&#x147;" horiz-adv-x="445" 
d="M305 0l-182 515v-515h-85v745h103l181 -516v516h85v-745h-102zM191 811l-78 127l52 25l58 -104l60 106l48 -28l-76 -126h-64z" />
    <glyph glyph-name="ncaron" unicode="&#x148;" horiz-adv-x="431" 
d="M297 0v412q0 30 -16 47t-47 17q-35 0 -56.5 -20t-43.5 -65v-391h-94v543h79q1 -6 2.5 -16.5t3 -22t2.5 -22.5t1 -18q24 42 58 65t86 23q36 0 59 -12t36.5 -32.5t18.5 -46.5t5 -54v-407h-94zM184 609l-78 127l52 25l58 -104l60 106l48 -28l-76 -126h-64z" />
    <glyph glyph-name="napostrophe" unicode="&#x149;" horiz-adv-x="431" 
d="M297 0v412q0 30 -16 47t-47 17q-35 0 -56.5 -20t-43.5 -65v-391h-94v543h79q1 -6 2.5 -16.5t3 -22t2.5 -22.5t1 -18q24 42 58 65t86 23q36 0 59 -12t36.5 -32.5t18.5 -46.5t5 -54v-407h-94zM77 639q14 14 23 31.5t9 37.5h-43v97h89v-82q0 -26 -15.5 -53t-38.5 -47z" />
    <glyph glyph-name="Eng" unicode="&#x14a;" horiz-adv-x="445" 
d="M123 515v-515h-85v745h103l181 -516v516h85v-781q0 -95 -28 -139t-99 -44q-34 0 -55 9.5t-32 22.5q4 17 8 33.5t9 33.5q10 -14 24 -20t28 -6t24 4t16 17.5t8.5 38.5t2.5 67z" />
    <glyph glyph-name="eng" unicode="&#x14b;" horiz-adv-x="431" 
d="M194 -120q10 -14 24.5 -19t28.5 -5q13 0 22.5 3.5t15.5 15.5t9 35.5t3 62.5v392q0 26 -1.5 46.5t-7.5 35t-19 22t-35 7.5q-35 0 -56.5 -20t-43.5 -65v-391h-94v543h79q3 -14 5.5 -34.5t3.5 -44.5q24 42 58 65t86 23q36 0 59 -12t36.5 -32.5t18.5 -46.5t5 -54v-443
q0 -54 -7 -89.5t-22 -56t-39.5 -29t-58.5 -8.5t-55 9.5t-32 22.5z" />
    <glyph glyph-name="Omacron" unicode="&#x14c;" 
d="M238 -13q-74 0 -115.5 24.5t-62 72.5t-25.5 120t-5 168q0 95 5 167t25.5 121t62 73.5t115.5 24.5q73 0 114 -24t60.5 -72t23.5 -120.5t4 -169.5q0 -98 -4 -170t-23.5 -120t-60.5 -71.5t-114 -23.5zM238 66q35 0 54.5 16.5t29 53.5t11.5 95t2 141q0 82 -2 140.5t-11.5 96
t-29 54.5t-54.5 17q-36 0 -56.5 -17.5t-31 -54.5t-13.5 -95.5t-3 -140.5q0 -83 3 -141t13.5 -95t31 -53.5t56.5 -16.5zM58 827v65h352v-65h-352z" />
    <glyph glyph-name="omacron" unicode="&#x14d;" horiz-adv-x="429" 
d="M214 -11q-69 0 -106 23t-54.5 61.5t-20.5 89t-3 106.5t3 107.5t20.5 90.5t55 62t105.5 23q69 0 106.5 -23t55 -62t20.5 -90.5t3 -107.5t-3 -106.5t-20.5 -89t-55 -61.5t-106.5 -23zM214 63q33 0 51 12t27 37.5t10.5 64t1.5 92.5t-1.5 93t-10.5 64.5t-27 37.5t-51 12
t-51 -12t-27 -37.5t-10.5 -64.5t-1.5 -93t1.5 -92.5t10.5 -64t27 -37.5t51 -12zM38 625v65h352v-65h-352z" />
    <glyph glyph-name="Obreve" unicode="&#x14e;" 
d="M238 -13q-74 0 -115.5 24.5t-62 72.5t-25.5 120t-5 168q0 95 5 167t25.5 121t62 73.5t115.5 24.5q73 0 114 -24t60.5 -72t23.5 -120.5t4 -169.5q0 -98 -4 -170t-23.5 -120t-60.5 -71.5t-114 -23.5zM238 66q35 0 54.5 16.5t29 53.5t11.5 95t2 141q0 82 -2 140.5t-11.5 96
t-29 54.5t-54.5 17q-36 0 -56.5 -17.5t-31 -54.5t-13.5 -95.5t-3 -140.5q0 -83 3 -141t13.5 -95t31 -53.5t56.5 -16.5zM384 939q-14 -60 -51.5 -94t-95.5 -34t-99.5 34.5t-52.5 94.5l49 17q4 -19 12.5 -36.5t21.5 -31t30.5 -21.5t38.5 -8q42 0 69 29.5t35 69.5z" />
    <glyph glyph-name="obreve" unicode="&#x14f;" horiz-adv-x="429" 
d="M214 -11q-69 0 -106 23t-54.5 61.5t-20.5 89t-3 106.5t3 107.5t20.5 90.5t55 62t105.5 23q69 0 106.5 -23t55 -62t20.5 -90.5t3 -107.5t-3 -106.5t-20.5 -89t-55 -61.5t-106.5 -23zM214 63q33 0 51 12t27 37.5t10.5 64t1.5 92.5t-1.5 93t-10.5 64.5t-27 37.5t-51 12
t-51 -12t-27 -37.5t-10.5 -64.5t-1.5 -93t1.5 -92.5t10.5 -64t27 -37.5t51 -12zM364 737q-14 -60 -51.5 -94t-95.5 -34t-99.5 34.5t-52.5 94.5l49 17q4 -19 12.5 -36.5t21.5 -31t30.5 -21.5t38.5 -8q42 0 69 29.5t35 69.5z" />
    <glyph glyph-name="Ohungarumlaut" unicode="&#x150;" 
d="M238 -13q-74 0 -115.5 24.5t-62 72.5t-25.5 120t-5 168q0 95 5 167t25.5 121t62 73.5t115.5 24.5q73 0 114 -24t60.5 -72t23.5 -120.5t4 -169.5q0 -98 -4 -170t-23.5 -120t-60.5 -71.5t-114 -23.5zM238 66q35 0 54.5 16.5t29 53.5t11.5 95t2 141q0 82 -2 140.5t-11.5 96
t-29 54.5t-54.5 17q-36 0 -56.5 -17.5t-31 -54.5t-13.5 -95.5t-3 -140.5q0 -83 3 -141t13.5 -95t31 -53.5t56.5 -16.5zM280 835l69 135l41 -21l-78 -132zM153 835l68 135l41 -21l-77 -132z" />
    <glyph glyph-name="ohungarumlaut" unicode="&#x151;" horiz-adv-x="429" 
d="M214 -11q-69 0 -106 23t-54.5 61.5t-20.5 89t-3 106.5t3 107.5t20.5 90.5t55 62t105.5 23q69 0 106.5 -23t55 -62t20.5 -90.5t3 -107.5t-3 -106.5t-20.5 -89t-55 -61.5t-106.5 -23zM214 63q33 0 51 12t27 37.5t10.5 64t1.5 92.5t-1.5 93t-10.5 64.5t-27 37.5t-51 12
t-51 -12t-27 -37.5t-10.5 -64.5t-1.5 -93t1.5 -92.5t10.5 -64t27 -37.5t51 -12zM260 633l69 135l41 -21l-78 -132zM133 633l68 135l41 -21l-77 -132z" />
    <glyph glyph-name="OE" unicode="&#x152;" horiz-adv-x="641" 
d="M354 0v37q-31 -49 -118 -49q-73 0 -114.5 24.5t-61.5 72.5t-25 120t-5 167q0 94 5 166t25 120.5t61.5 73.5t114.5 25q45 0 72 -13t45 -37v38h263v-78h-180v-235h151l-8 -79h-143v-277h185v-76h-267zM238 66q35 0 54.5 16.5t29 53.5t11.5 95t2 141q0 82 -2 140.5t-11.5 96
t-29 54.5t-54.5 17q-36 0 -56.5 -17.5t-31 -54.5t-13.5 -95.5t-3 -140.5q0 -83 3 -141t13.5 -95t31 -53.5t56.5 -16.5z" />
    <glyph glyph-name="oe" unicode="&#x153;" horiz-adv-x="684" 
d="M655 160q-5 -42 -16 -74t-30.5 -53.5t-50 -32.5t-74.5 -11q-54 0 -86.5 19.5t-45.5 52.5q-14 -33 -47.5 -52.5t-90.5 -19.5q-69 0 -106 23t-54.5 61.5t-20.5 89t-3 106.5t3 107.5t20.5 90.5t55 62t105.5 23q57 0 90 -19.5t47 -50.5q14 32 44.5 51t84.5 19q64 0 99.5 -22
t52.5 -57t20 -78t3 -85v-42h-262q0 -41 2 -78t11.5 -65.5t29 -45t54.5 -16.5q50 0 67 27.5t22 80.5zM214 63q33 0 51 12t27 37.5t10.5 64t1.5 92.5t-1.5 93t-10.5 64.5t-27 37.5t-51 12t-51 -12t-27 -37.5t-10.5 -64.5t-1.5 -93t1.5 -92.5t10.5 -64t27 -37.5t51 -12z
M568 324q0 31 -1 60t-9 51.5t-25.5 36t-50.5 13.5q-30 0 -47 -12t-26 -33t-11.5 -50.5t-3.5 -65.5h174z" />
    <glyph glyph-name="Racute" unicode="&#x154;" horiz-adv-x="403" 
d="M284 0l-71 334h-74v-334h-99v745h158q62 0 99.5 -11t57.5 -34.5t26.5 -59.5t6.5 -86q0 -42 -3.5 -77t-13 -61.5t-26 -44.5t-42.5 -25l91 -346h-110zM211 410q28 0 44.5 7t25.5 23.5t11.5 43.5t2.5 66q0 34 -2.5 57.5t-11.5 37.5t-27.5 20.5t-49.5 6.5h-65v-262h72z
M159 794l-34 38l162 126l50 -59z" />
    <glyph glyph-name="racute" unicode="&#x155;" horiz-adv-x="280" 
d="M40 0v543h74q4 -22 6 -44t2 -45q20 42 59.5 65.5t93.5 23.5l-8 -94q-68 0 -96.5 -27.5t-36.5 -82.5v-339h-94zM98 592l-34 38l162 126l50 -59z" />
    <glyph glyph-name="Rcommaaccent" unicode="&#x156;" horiz-adv-x="403" 
d="M284 0l-71 334h-74v-334h-99v745h158q62 0 99.5 -11t57.5 -34.5t26.5 -59.5t6.5 -86q0 -42 -3.5 -77t-13 -61.5t-26 -44.5t-42.5 -25l91 -346h-110zM211 410q28 0 44.5 7t25.5 23.5t11.5 43.5t2.5 66q0 34 -2.5 57.5t-11.5 37.5t-27.5 20.5t-49.5 6.5h-65v-262h72z
M164 -203q14 14 23 31.5t9 37.5h-43v97h89v-82q0 -26 -15.5 -53t-38.5 -47z" />
    <glyph glyph-name="rcommaaccent" unicode="&#x157;" horiz-adv-x="280" 
d="M40 0v543h74q4 -22 6 -44t2 -45q20 42 59.5 65.5t93.5 23.5l-8 -94q-68 0 -96.5 -27.5t-36.5 -82.5v-339h-94zM49 -203q14 14 23 31.5t9 37.5h-43v97h89v-82q0 -26 -15.5 -53t-38.5 -47z" />
    <glyph glyph-name="Rcaron" unicode="&#x158;" horiz-adv-x="403" 
d="M284 0l-71 334h-74v-334h-99v745h158q62 0 99.5 -11t57.5 -34.5t26.5 -59.5t6.5 -86q0 -42 -3.5 -77t-13 -61.5t-26 -44.5t-42.5 -25l91 -346h-110zM211 410q28 0 44.5 7t25.5 23.5t11.5 43.5t2.5 66q0 34 -2.5 57.5t-11.5 37.5t-27.5 20.5t-49.5 6.5h-65v-262h72z
M170 811l-78 127l52 25l58 -104l60 106l48 -28l-76 -126h-64z" />
    <glyph glyph-name="rcaron" unicode="&#x159;" horiz-adv-x="280" 
d="M40 0v543h74q4 -22 6 -44t2 -45q20 42 59.5 65.5t93.5 23.5l-8 -94q-68 0 -96.5 -27.5t-36.5 -82.5v-339h-94zM109 609l-78 127l52 25l58 -104l60 106l48 -28l-76 -126h-64z" />
    <glyph glyph-name="Sacute" unicode="&#x15a;" horiz-adv-x="399" 
d="M102 235q2 -47 6.5 -79.5t14.5 -52.5t26 -28.5t41 -8.5q27 0 43.5 8t25.5 23.5t12.5 39t3.5 54.5q0 36 -7 62t-20.5 45t-33.5 34.5t-45 30.5q-27 16 -51.5 35t-44 45t-31 60t-11.5 81q0 40 8.5 72t28.5 54.5t53.5 35t83.5 12.5q51 0 81 -13t46.5 -35.5t22 -53.5t7.5 -66
l-79 -11q-2 24 -4.5 43t-10 32t-22.5 19.5t-40 6.5q-26 0 -41.5 -7t-24 -19.5t-11.5 -31t-3 -41.5q0 -29 6.5 -50.5t18.5 -38t28.5 -29t36.5 -24.5q30 -17 58.5 -35.5t51 -46t36 -68.5t13.5 -102q0 -96 -41.5 -148t-143.5 -52q-50 0 -81.5 12.5t-50.5 40t-28 71.5t-13 107z
M157 794l-34 38l162 126l50 -59z" />
    <glyph glyph-name="sacute" unicode="&#x15b;" horiz-adv-x="357" 
d="M250 414q-5 34 -15.5 48.5t-44.5 14.5q-29 0 -46 -12.5t-17 -45.5q0 -30 11.5 -51t43.5 -39q33 -18 60.5 -32.5t47 -33t30.5 -45.5t11 -70q0 -78 -37.5 -119.5t-122.5 -41.5q-76 0 -113 39t-37 130l81 12q0 -22 3 -41.5t10.5 -34.5t20.5 -23.5t34 -8.5q48 0 63 21t15 58
q0 45 -22.5 68t-62.5 42q-30 14 -53 29t-38.5 34t-24 44t-8.5 60q0 31 6.5 56t23 43t43.5 27.5t69 9.5t67.5 -6t40.5 -20.5t22 -38.5t13 -59zM136 592l-34 38l162 126l50 -59z" />
    <glyph glyph-name="Scircumflex" unicode="&#x15c;" horiz-adv-x="399" 
d="M102 235q2 -47 6.5 -79.5t14.5 -52.5t26 -28.5t41 -8.5q27 0 43.5 8t25.5 23.5t12.5 39t3.5 54.5q0 36 -7 62t-20.5 45t-33.5 34.5t-45 30.5q-27 16 -51.5 35t-44 45t-31 60t-11.5 81q0 40 8.5 72t28.5 54.5t53.5 35t83.5 12.5q51 0 81 -13t46.5 -35.5t22 -53.5t7.5 -66
l-79 -11q-2 24 -4.5 43t-10 32t-22.5 19.5t-40 6.5q-26 0 -41.5 -7t-24 -19.5t-11.5 -31t-3 -41.5q0 -29 6.5 -50.5t18.5 -38t28.5 -29t36.5 -24.5q30 -17 58.5 -35.5t51 -46t36 -68.5t13.5 -102q0 -96 -41.5 -148t-143.5 -52q-50 0 -81.5 12.5t-50.5 40t-28 71.5t-13 107z
M256 820l-59 104l-59 -106l-48 28l76 127h64l78 -128z" />
    <glyph glyph-name="scircumflex" unicode="&#x15d;" horiz-adv-x="357" 
d="M250 414q-5 34 -15.5 48.5t-44.5 14.5q-29 0 -46 -12.5t-17 -45.5q0 -30 11.5 -51t43.5 -39q33 -18 60.5 -32.5t47 -33t30.5 -45.5t11 -70q0 -78 -37.5 -119.5t-122.5 -41.5q-76 0 -113 39t-37 130l81 12q0 -22 3 -41.5t10.5 -34.5t20.5 -23.5t34 -8.5q48 0 63 21t15 58
q0 45 -22.5 68t-62.5 42q-30 14 -53 29t-38.5 34t-24 44t-8.5 60q0 31 6.5 56t23 43t43.5 27.5t69 9.5t67.5 -6t40.5 -20.5t22 -38.5t13 -59zM235 618l-59 104l-59 -106l-48 28l76 127h64l78 -128z" />
    <glyph glyph-name="Scedilla" unicode="&#x15e;" horiz-adv-x="399" 
d="M128 -149q28 -11 50 -11q24 0 41 12t17 37t-17 35t-54 12l8 52q-44 2 -73 15.5t-46.5 41t-25.5 70.5t-11 103l85 17q2 -47 6.5 -79.5t14.5 -52.5t26 -28.5t41 -8.5q27 0 43.5 8t25.5 23.5t12.5 39t3.5 54.5q0 38 -7.5 64t-21 45t-33.5 33.5t-44 29.5q-27 16 -51.5 35.5
t-44 46t-31 60.5t-11.5 79q0 40 8.5 72t28.5 54.5t53.5 35t83.5 12.5q51 0 81 -13t46.5 -35.5t22 -53.5t7.5 -66l-79 -11q-2 24 -4.5 43t-10 32t-22.5 19.5t-40 6.5q-26 0 -41.5 -7t-24 -19.5t-11.5 -31t-3 -41.5q0 -29 6.5 -50.5t18.5 -38t28.5 -29t36.5 -24.5
q31 -18 59.5 -36t50.5 -45.5t35.5 -68t13.5 -102.5q0 -92 -37.5 -143t-127.5 -56l-2 -31q45 0 61.5 -21.5t16.5 -56.5t-27.5 -54.5t-69.5 -19.5q-39 0 -74 16z" />
    <glyph glyph-name="scedilla" unicode="&#x15f;" horiz-adv-x="357" 
d="M109 -149q30 -11 51 -11q23 0 40.5 12t17.5 37t-17.5 35t-53.5 12l8 52q-69 4 -101.5 42.5t-32.5 125.5l81 12q0 -22 3.5 -41.5t11 -34.5t20.5 -23.5t33 -8.5q48 0 63 21t15 58q0 44 -23.5 68t-61.5 42q-30 14 -53 29t-38.5 34t-24 44t-8.5 60q0 31 6.5 56t23 43
t43.5 27.5t69 9.5t67.5 -6t40.5 -20.5t22 -38.5t13 -59l-74 -14q-5 34 -15.5 48.5t-44.5 14.5q-29 0 -46 -12.5t-17 -45.5q0 -30 11.5 -51t43.5 -39q33 -19 60 -33t47 -32.5t31 -45t11 -70.5q0 -72 -33 -113.5t-106 -46.5l-2 -31q45 0 61.5 -21.5t16.5 -56.5t-28.5 -54.5
t-68.5 -19.5q-39 0 -74 16z" />
    <glyph glyph-name="Scaron" unicode="&#x160;" horiz-adv-x="399" 
d="M102 235q2 -47 6.5 -79.5t14.5 -52.5t26 -28.5t41 -8.5q27 0 43.5 8t25.5 23.5t12.5 39t3.5 54.5q0 36 -7 62t-20.5 45t-33.5 34.5t-45 30.5q-27 16 -51.5 35t-44 45t-31 60t-11.5 81q0 40 8.5 72t28.5 54.5t53.5 35t83.5 12.5q51 0 81 -13t46.5 -35.5t22 -53.5t7.5 -66
l-79 -11q-2 24 -4.5 43t-10 32t-22.5 19.5t-40 6.5q-26 0 -41.5 -7t-24 -19.5t-11.5 -31t-3 -41.5q0 -29 6.5 -50.5t18.5 -38t28.5 -29t36.5 -24.5q30 -17 58.5 -35.5t51 -46t36 -68.5t13.5 -102q0 -96 -41.5 -148t-143.5 -52q-50 0 -81.5 12.5t-50.5 40t-28 71.5t-13 107z
M168 811l-78 127l52 25l58 -104l60 106l48 -28l-76 -126h-64z" />
    <glyph glyph-name="scaron" unicode="&#x161;" horiz-adv-x="357" 
d="M250 414q-5 34 -15.5 48.5t-44.5 14.5q-29 0 -46 -12.5t-17 -45.5q0 -30 11.5 -51t43.5 -39q33 -18 60.5 -32.5t47 -33t30.5 -45.5t11 -70q0 -78 -37.5 -119.5t-122.5 -41.5q-76 0 -113 39t-37 130l81 12q0 -22 3 -41.5t10.5 -34.5t20.5 -23.5t34 -8.5q48 0 63 21t15 58
q0 45 -22.5 68t-62.5 42q-30 14 -53 29t-38.5 34t-24 44t-8.5 60q0 31 6.5 56t23 43t43.5 27.5t69 9.5t67.5 -6t40.5 -20.5t22 -38.5t13 -59zM147 609l-78 127l52 25l58 -104l60 106l48 -28l-76 -126h-64z" />
    <glyph glyph-name="Tcommaaccent" unicode="&#x162;" horiz-adv-x="361" 
d="M130 0v667h-124v78h350v-78h-127v-667h-99zM146 -203q14 14 23 31.5t9 37.5h-43v97h89v-82q0 -26 -15.5 -53t-38.5 -47z" />
    <glyph glyph-name="tcommaaccent" unicode="&#x163;" horiz-adv-x="274" 
d="M275 61q-13 -26 -43 -46t-78 -20q-54 0 -84 31.5t-30 100.5v349h-41l7 67h34v137l94 16v-153h136l-8 -67h-128v-337q0 -31 14 -48.5t30 -17.5q22 0 34.5 11.5t23.5 34.5zM106 -203q14 14 23 31.5t9 37.5h-43v97h89v-82q0 -26 -15.5 -53t-38.5 -47z" />
    <glyph glyph-name="Tcaron" unicode="&#x164;" horiz-adv-x="361" 
d="M130 0v667h-124v78h350v-78h-127v-667h-99zM149 811l-78 127l52 25l58 -104l60 106l48 -28l-76 -126h-64z" />
    <glyph glyph-name="tcaron" unicode="&#x165;" horiz-adv-x="316" 
d="M275 61q-13 -26 -43 -46t-78 -20q-54 0 -84 31.5t-30 100.5v349h-41l7 67h34v137l94 16v-153h136l-8 -67h-128v-337q0 -31 14 -48.5t30 -17.5q22 0 34.5 11.5t23.5 34.5zM234 639q14 14 23 31.5t9 37.5h-43v97h89v-82q0 -26 -15.5 -53t-38.5 -47z" />
    <glyph glyph-name="Tbar" unicode="&#x166;" horiz-adv-x="361" 
d="M130 0v481h-109v65h109v121h-124v78h350v-78h-127v-121h111v-65h-111v-481h-99z" />
    <glyph glyph-name="tbar" unicode="&#x167;" horiz-adv-x="274" 
d="M275 61q-13 -26 -43 -46t-78 -20q-54 0 -84 31.5t-30 100.5v192h-41l8 65h33v92h-41l7 67h34v137l94 16v-153h136l-8 -67h-128v-92h118l-6 -65h-112v-180q0 -31 14 -48.5t30 -17.5q22 0 34.5 11.5t23.5 34.5z" />
    <glyph glyph-name="Utilde" unicode="&#x168;" horiz-adv-x="434" 
d="M296 745h100v-530q0 -54 -6 -96t-24.5 -71.5t-54 -45t-94.5 -15.5q-57 0 -92.5 15t-54.5 44t-25.5 71.5t-6.5 97.5v530h99v-449q0 -61 2 -104.5t10 -71.5t24 -41t44 -13q27 0 43 13t24 41t10 71.5t2 104.5v449zM377 930q-12 -48 -37 -68.5t-55 -20.5q-20 0 -38 7
t-35.5 15.5t-33 15.5t-29.5 7q-22 0 -39 -54l-55 27q11 45 34.5 64t53.5 19q20 0 39 -7.5t36 -16.5t32.5 -16.5t29.5 -7.5q28 0 38 55z" />
    <glyph glyph-name="utilde" unicode="&#x169;" horiz-adv-x="412" 
d="M304 0q-2 5 -4 15.5t-3 22t-1.5 22.5t-0.5 18q-21 -42 -52.5 -64.5t-83.5 -22.5q-36 0 -59 12t-36.5 32.5t-18.5 46.5t-5 54v407h93v-413q0 -30 15 -47t45 -17q35 0 56 20t39 65v392h95v-543h-79zM366 728q-12 -48 -37 -68.5t-55 -20.5q-20 0 -38 7t-35.5 15.5t-33 15.5
t-29.5 7q-22 0 -39 -54l-55 27q11 45 34.5 64t53.5 19q20 0 39 -7.5t36 -16.5t32.5 -16.5t29.5 -7.5q28 0 38 55z" />
    <glyph glyph-name="Umacron" unicode="&#x16a;" horiz-adv-x="434" 
d="M296 745h100v-530q0 -54 -6 -96t-24.5 -71.5t-54 -45t-94.5 -15.5q-57 0 -92.5 15t-54.5 44t-25.5 71.5t-6.5 97.5v530h99v-449q0 -61 2 -104.5t10 -71.5t24 -41t44 -13q27 0 43 13t24 41t10 71.5t2 104.5v449zM41 827v65h352v-65h-352z" />
    <glyph glyph-name="umacron" unicode="&#x16b;" horiz-adv-x="412" 
d="M304 0q-2 5 -4 15.5t-3 22t-1.5 22.5t-0.5 18q-21 -42 -52.5 -64.5t-83.5 -22.5q-36 0 -59 12t-36.5 32.5t-18.5 46.5t-5 54v407h93v-413q0 -30 15 -47t45 -17q35 0 56 20t39 65v392h95v-543h-79zM30 625v65h352v-65h-352z" />
    <glyph glyph-name="Ubreve" unicode="&#x16c;" horiz-adv-x="434" 
d="M296 745h100v-530q0 -54 -6 -96t-24.5 -71.5t-54 -45t-94.5 -15.5q-57 0 -92.5 15t-54.5 44t-25.5 71.5t-6.5 97.5v530h99v-449q0 -61 2 -104.5t10 -71.5t24 -41t44 -13q27 0 43 13t24 41t10 71.5t2 104.5v449zM366 939q-14 -60 -51.5 -94t-95.5 -34t-99.5 34.5
t-52.5 94.5l49 17q4 -19 12.5 -36.5t21.5 -31t30.5 -21.5t38.5 -8q42 0 69 29.5t35 69.5z" />
    <glyph glyph-name="ubreve" unicode="&#x16d;" horiz-adv-x="412" 
d="M304 0q-2 5 -4 15.5t-3 22t-1.5 22.5t-0.5 18q-21 -42 -52.5 -64.5t-83.5 -22.5q-36 0 -59 12t-36.5 32.5t-18.5 46.5t-5 54v407h93v-413q0 -30 15 -47t45 -17q35 0 56 20t39 65v392h95v-543h-79zM355 737q-14 -60 -51.5 -94t-95.5 -34t-99.5 34.5t-52.5 94.5l49 17
q4 -19 12.5 -36.5t21.5 -31t30.5 -21.5t38.5 -8q42 0 69 29.5t35 69.5z" />
    <glyph glyph-name="Uring" unicode="&#x16e;" horiz-adv-x="434" 
d="M296 745h100v-530q0 -54 -6 -96t-24.5 -71.5t-54 -45t-94.5 -15.5q-57 0 -92.5 15t-54.5 44t-25.5 71.5t-6.5 97.5v530h99v-449q0 -61 2 -104.5t10 -71.5t24 -41t44 -13q27 0 43 13t24 41t10 71.5t2 104.5v449zM316 845q0 -86 -99 -86q-100 0 -100 86q0 85 100 85
q99 0 99 -85zM277 845q0 51 -60 51t-60 -51t60 -51t60 51z" />
    <glyph glyph-name="uring" unicode="&#x16f;" horiz-adv-x="412" 
d="M304 0q-2 5 -4 15.5t-3 22t-1.5 22.5t-0.5 18q-21 -42 -52.5 -64.5t-83.5 -22.5q-36 0 -59 12t-36.5 32.5t-18.5 46.5t-5 54v407h93v-413q0 -30 15 -47t45 -17q35 0 56 20t39 65v392h95v-543h-79zM305 668q0 -86 -99 -86q-100 0 -100 86q0 85 100 85q99 0 99 -85z
M266 668q0 51 -60 51t-60 -51t60 -51t60 51z" />
    <glyph glyph-name="Uhungarumlaut" unicode="&#x170;" horiz-adv-x="434" 
d="M296 745h100v-530q0 -54 -6 -96t-24.5 -71.5t-54 -45t-94.5 -15.5q-57 0 -92.5 15t-54.5 44t-25.5 71.5t-6.5 97.5v530h99v-449q0 -61 2 -104.5t10 -71.5t24 -41t44 -13q27 0 43 13t24 41t10 71.5t2 104.5v449zM262 835l69 135l41 -21l-78 -132zM135 835l68 135l41 -21
l-77 -132z" />
    <glyph glyph-name="uhungarumlaut" unicode="&#x171;" horiz-adv-x="412" 
d="M304 0q-2 5 -4 15.5t-3 22t-1.5 22.5t-0.5 18q-21 -42 -52.5 -64.5t-83.5 -22.5q-36 0 -59 12t-36.5 32.5t-18.5 46.5t-5 54v407h93v-413q0 -30 15 -47t45 -17q35 0 56 20t39 65v392h95v-543h-79zM251 633l69 135l41 -21l-78 -132zM124 633l68 135l41 -21l-77 -132z" />
    <glyph glyph-name="Uogonek" unicode="&#x172;" horiz-adv-x="434" 
d="M341 -191q-55 -28 -99 -28q-25 0 -40.5 11.5t-15.5 36.5q0 27 18.5 64.5t58.5 97.5q-20 -4 -46 -4q-60 0 -95 15t-54 44.5t-24.5 72t-5.5 96.5v530h99v-475q0 -54 2 -93t9.5 -63.5t23.5 -36t45 -11.5q28 0 43.5 11.5t23.5 36t10 63.5t2 93v475h100v-530q0 -42 -3.5 -77
t-13.5 -62.5t-28.5 -46.5t-48.5 -29q-9 -17 -19.5 -33t-19 -30.5t-14 -27t-5.5 -21.5q0 -16 12.5 -22.5t30.5 -6.5t40.5 6t42.5 17z" />
    <glyph glyph-name="uogonek" unicode="&#x173;" horiz-adv-x="412" 
d="M420 -191q-55 -28 -99 -28q-25 0 -40.5 11.5t-15.5 36.5q0 29 20 69.5t62 101.5h-43q-4 17 -6.5 37t-2.5 41q-21 -42 -52.5 -64.5t-83.5 -22.5q-36 0 -59 12t-36.5 32.5t-18.5 46.5t-5 54v407h93v-374q0 -24 1.5 -42.5t7 -31t16 -19.5t27.5 -7q39 0 62.5 20t40.5 62v392
h95v-543q-24 -32 -41.5 -65t-17.5 -47q0 -16 12 -22.5t30 -6.5q19 0 41 6t42 17z" />
    <glyph glyph-name="Wcircumflex" unicode="&#x174;" horiz-adv-x="648" 
d="M417 0l-90 599l-87 -599h-107l-124 745h106l76 -595l85 595h102l83 -593l74 593h104l-125 -745h-97zM380 820l-59 104l-59 -106l-48 28l76 127h64l78 -128z" />
    <glyph glyph-name="wcircumflex" unicode="&#x175;" horiz-adv-x="525" 
d="M334 0l-66 399l-68 -399h-86l-105 543h97l57 -389l63 389h84l62 -389l58 389h86l-108 -543h-74zM319 618l-59 104l-59 -106l-48 28l76 127h64l78 -128z" />
    <glyph glyph-name="Ycircumflex" unicode="&#x176;" horiz-adv-x="382" 
d="M143 0v314l-134 431h97l89 -328l94 328h83l-131 -431v-314h-98zM247 820l-59 104l-59 -106l-48 28l76 127h64l78 -128z" />
    <glyph glyph-name="ycircumflex" unicode="&#x177;" horiz-adv-x="370" 
d="M8 543h104l84 -395l76 395h89l-141 -583q-9 -38 -20 -70.5t-28.5 -56.5t-43.5 -38t-64 -14q-21 0 -37.5 3.5t-32.5 13.5q10 20 20 39.5t20 39.5q14 -11 30 -11q21 0 44.5 30t40.5 108zM241 618l-59 104l-59 -106l-48 28l76 127h64l78 -128z" />
    <glyph glyph-name="Ydieresis" unicode="&#x178;" horiz-adv-x="382" 
d="M143 0v314l-134 431h97l89 -328l94 328h83l-131 -431v-314h-98zM68 815v120h82v-120h-82zM231 815v120h82v-120h-82z" />
    <glyph glyph-name="Zacute" unicode="&#x179;" horiz-adv-x="352" 
d="M14 0v66l212 600h-180v79h278v-64l-209 -604h220v-77h-321zM134 794l-34 38l162 126l50 -59z" />
    <glyph glyph-name="zacute" unicode="&#x17a;" horiz-adv-x="324" 
d="M13 0v58l180 415h-152v70h251v-58l-184 -416h204v-69h-299zM120 592l-34 38l162 126l50 -59z" />
    <glyph glyph-name="Zdotaccent" unicode="&#x17b;" horiz-adv-x="352" 
d="M14 0v66l212 600h-180v79h278v-64l-209 -604h220v-77h-321zM135 815v120h82v-120h-82z" />
    <glyph glyph-name="zdotaccent" unicode="&#x17c;" horiz-adv-x="324" 
d="M13 0v58l180 415h-152v70h251v-58l-184 -416h204v-69h-299zM121 613v120h82v-120h-82z" />
    <glyph glyph-name="Zcaron" unicode="&#x17d;" horiz-adv-x="352" 
d="M14 0v66l212 600h-180v79h278v-64l-209 -604h220v-77h-321zM144 811l-78 127l52 25l58 -104l60 106l48 -28l-76 -126h-64z" />
    <glyph glyph-name="zcaron" unicode="&#x17e;" horiz-adv-x="324" 
d="M13 0v58l180 415h-152v70h251v-58l-184 -416h204v-69h-299zM131 609l-78 127l52 25l58 -104l60 106l48 -28l-76 -126h-64z" />
    <glyph glyph-name="longs" unicode="&#x17f;" horiz-adv-x="249" 
d="M37 0v619q0 54 7 89.5t22 56t39 29t59 8.5q34 0 55 -9.5t32 -22.5l-17 -67q-10 11 -23 17.5t-32 6.5q-14 0 -23 -4t-14.5 -16.5t-8 -35.5t-2.5 -61v-610h-94z" />
    <glyph glyph-name="Aringacute" unicode="&#x1fa;" horiz-adv-x="421" 
d="M303 0l-30 179h-139l-31 -179h-94l148 745h105l150 -745h-109zM204 584l-63 -326h123zM310 845q0 -86 -99 -86q-100 0 -100 86q0 85 100 85q99 0 99 -85zM271 845q0 51 -60 51t-60 -51t60 -51t60 51zM305.269 733.571l-27.1699 30.4326l129.459 100.906l39.957 -47.25z
" />
    <glyph glyph-name="aringacute" unicode="&#x1fb;" horiz-adv-x="395" 
d="M384 0q-51 0 -74 17.5t-28 42.5q-19 -33 -49 -52t-86 -19q-36 0 -59 12.5t-37 33.5t-19.5 47.5t-5.5 54.5q0 53 8 89.5t33 59t72 32t125 9.5v41q0 28 -2 48.5t-9.5 34t-21.5 19.5t-38 6q-21 0 -34 -5.5t-21 -16.5t-11.5 -29.5t-5.5 -43.5l-79 7q3 42 9.5 73t22 51.5
t43.5 30t74 9.5q52 0 84 -12t50 -36.5t24 -61t6 -84.5v-253q0 -29 11.5 -36t25.5 -7zM264 272q-48 -3 -77 -8.5t-44 -19t-20 -37.5t-5 -64q0 -42 11 -63t42 -21q39 0 61.5 24.5t31.5 72.5v116zM297 668q0 -86 -99 -86q-100 0 -100 86q0 85 100 85q99 0 99 -85zM258 668
q0 51 -60 51t-60 -51t60 -51t60 51zM291.684 599.03l-27.1709 30.4316l129.46 100.906l39.957 -47.25z" />
    <glyph glyph-name="AEacute" unicode="&#x1fc;" horiz-adv-x="538" 
d="M253 0v189h-110l-27 -189h-102l131 745h375v-78h-174v-235h143l-7 -79h-136v-277h175v-76h-268zM253 667h-42l-57 -398h99v398zM242 794l-34 38l162 126l50 -59z" />
    <glyph glyph-name="aeacute" unicode="&#x1fd;" horiz-adv-x="650" 
d="M620 160q-5 -42 -16 -74t-30.5 -53.5t-50 -32.5t-74.5 -11q-33 0 -56 6.5t-39 18.5t-26 28.5t-17 37.5q-8 -20 -19.5 -37t-30 -29t-45 -18.5t-65.5 -6.5q-36 0 -59 13t-37 34t-19.5 47.5t-5.5 53.5q0 52 8 88.5t33 59t72 32.5t125 10v41q0 28 -2 48.5t-9.5 34t-21.5 19.5
t-38 6q-21 0 -34 -5.5t-21 -17.5t-11.5 -30t-5.5 -42l-79 7q3 42 9.5 73t22 51.5t43.5 30t74 9.5q54 0 83 -18.5t39 -50.5q13 32 45 50.5t83 18.5q64 0 99.5 -22.5t52 -57.5t20 -78t3.5 -84v-42h-262q0 -41 2 -78t11.5 -65.5t29 -45t54.5 -16.5q50 0 67 27.5t22 80.5z
M268 272q-48 -3 -77 -8.5t-44 -19t-19.5 -37.5t-4.5 -64q0 -42 10.5 -63t41.5 -21q40 0 62 24.5t31 72.5v116zM533 324q0 31 -1 60.5t-9 51.5t-25.5 35.5t-50.5 13.5q-30 0 -47 -12t-26 -33t-11.5 -50.5t-3.5 -65.5h174zM282 592l-34 38l162 126l50 -59z" />
    <glyph glyph-name="Oslashacute" unicode="&#x1fe;" 
d="M193 794l-34 38l162 126l50 -59zM72 -19l19 54q-21 22 -33.5 54t-18.5 74t-7.5 94t-1.5 115q0 95 5 167t25.5 121t62 73.5t115.5 24.5q66 0 107 -21l15 41l47 -21l-19 -53q19 -23 29.5 -55t15.5 -73.5t6 -92.5t1 -111q0 -98 -4 -170t-23.5 -120t-60.5 -71.5t-114 -23.5
q-64 0 -104 18l-16 -43zM310 640q-22 40 -72 40q-36 0 -56.5 -17.5t-31 -54.5t-13.5 -95.5t-3 -140.5q0 -64 1.5 -113t6.5 -84zM167 98q23 -32 71 -32q35 0 54.5 16.5t29 53.5t11.5 95t2 141q0 54 -0.5 97.5t-3.5 77.5z" />
    <glyph glyph-name="oslashacute" unicode="&#x1ff;" horiz-adv-x="429" 
d="M172 592l-34 38l162 126l50 -59zM85 -19l13 37q-26 18 -39.5 44.5t-20 59t-7.5 70t-1 77.5q0 56 3 107.5t20.5 90.5t55 62t105.5 23q42 0 72 -9l16 43l47 -22l-16 -44q24 -18 37.5 -44.5t20 -59t7.5 -70t1 -77.5q0 -56 -3 -106.5t-20.5 -89t-55 -61.5t-106.5 -23
q-40 0 -70 9l-13 -36zM259 467q-18 9 -45 9q-33 0 -51 -12t-27 -37.5t-10.5 -64.5t-1.5 -93q0 -51 1 -88.5t9 -62.5zM170 71q18 -8 44 -8q33 0 51 12t27 37.5t10.5 64t1.5 92.5q0 48 -1.5 84.5t-7.5 61.5z" />
    <glyph glyph-name="Scommaaccent" unicode="&#x218;" horiz-adv-x="399" 
d="M102 235q2 -47 6.5 -79.5t14.5 -52.5t26 -28.5t41 -8.5q27 0 43.5 8t25.5 23.5t12.5 39t3.5 54.5q0 36 -7 62t-20.5 45t-33.5 34.5t-45 30.5q-27 16 -51.5 35t-44 45t-31 60t-11.5 81q0 40 8.5 72t28.5 54.5t53.5 35t83.5 12.5q51 0 81 -13t46.5 -35.5t22 -53.5t7.5 -66
l-79 -11q-2 24 -4.5 43t-10 32t-22.5 19.5t-40 6.5q-26 0 -41.5 -7t-24 -19.5t-11.5 -31t-3 -41.5q0 -29 6.5 -50.5t18.5 -38t28.5 -29t36.5 -24.5q30 -17 58.5 -35.5t51 -46t36 -68.5t13.5 -102q0 -96 -41.5 -148t-143.5 -52q-50 0 -81.5 12.5t-50.5 40t-28 71.5t-13 107z
M162 -203q14 14 23 31.5t9 37.5h-43v97h89v-82q0 -26 -15.5 -53t-38.5 -47z" />
    <glyph glyph-name="scommaaccent" unicode="&#x219;" horiz-adv-x="357" 
d="M250 414q-5 34 -15.5 48.5t-44.5 14.5q-29 0 -46 -12.5t-17 -45.5q0 -30 11.5 -51t43.5 -39q33 -18 60.5 -32.5t47 -33t30.5 -45.5t11 -70q0 -78 -37.5 -119.5t-122.5 -41.5q-76 0 -113 39t-37 130l81 12q0 -22 3 -41.5t10.5 -34.5t20.5 -23.5t34 -8.5q48 0 63 21t15 58
q0 45 -22.5 68t-62.5 42q-30 14 -53 29t-38.5 34t-24 44t-8.5 60q0 31 6.5 56t23 43t43.5 27.5t69 9.5t67.5 -6t40.5 -20.5t22 -38.5t13 -59zM145 -203q14 14 23 31.5t9 37.5h-43v97h89v-82q0 -26 -15.5 -53t-38.5 -47z" />
    <glyph glyph-name="uni021A" unicode="&#x21a;" horiz-adv-x="361" 
d="M130 0v667h-124v78h350v-78h-127v-667h-99zM148 -203q14 14 23 31.5t9 37.5h-43v97h89v-82q0 -26 -15.5 -53t-38.5 -47z" />
    <glyph glyph-name="uni021B" unicode="&#x21b;" horiz-adv-x="274" 
d="M275 61q-13 -26 -43 -46t-78 -20q-54 0 -84 31.5t-30 100.5v349h-41l7 67h34v137l94 16v-153h136l-8 -67h-128v-337q0 -31 14 -48.5t30 -17.5q22 0 34.5 11.5t23.5 34.5zM108 -203q14 14 23 31.5t9 37.5h-43v97h89v-82q0 -26 -15.5 -53t-38.5 -47z" />
    <glyph glyph-name="circumflex" unicode="&#x2c6;" horiz-adv-x="278" 
d="M196 618l-59 104l-59 -106l-48 28l76 127h64l78 -128z" />
    <glyph glyph-name="caron" unicode="&#x2c7;" horiz-adv-x="278" 
d="M108 609l-78 127l52 25l58 -104l60 106l48 -28l-76 -126h-64z" />
    <glyph glyph-name="breve" unicode="&#x2d8;" horiz-adv-x="291" 
d="M295 737q-14 -60 -51.5 -94t-95.5 -34t-99.5 34.5t-52.5 94.5l49 17q4 -19 12.5 -36.5t21.5 -31t30.5 -21.5t38.5 -8q42 0 69 29.5t35 69.5z" />
    <glyph glyph-name="dotaccent" unicode="&#x2d9;" horiz-adv-x="139" 
d="M30 613v120h82v-120h-82z" />
    <glyph glyph-name="ring" unicode="&#x2da;" horiz-adv-x="259" 
d="M229 643q0 -86 -99 -86q-100 0 -100 86q0 85 100 85q99 0 99 -85zM190 643q0 51 -60 51t-60 -51t60 -51t60 51z" />
    <glyph glyph-name="ogonek" unicode="&#x2db;" horiz-adv-x="221" 
d="M179 -191q-55 -28 -99 -28q-25 0 -40.5 11.5t-15.5 36.5q0 20 11 49t37 68l35 54h34l-36 -56q-23 -37 -23 -57q0 -16 12.5 -22.5t30.5 -6.5t40.5 6t42.5 17z" />
    <glyph glyph-name="tilde" unicode="&#x2dc;" horiz-adv-x="382" 
d="M352 728q-12 -48 -37 -68.5t-55 -20.5q-20 0 -38 7t-35.5 15.5t-33 15.5t-29.5 7q-22 0 -39 -54l-55 27q11 45 34.5 64t53.5 19q20 0 39 -7.5t36 -16.5t32.5 -16.5t29.5 -7.5q28 0 38 55z" />
    <glyph glyph-name="hungarumlaut" unicode="&#x2dd;" horiz-adv-x="279" 
d="M154 633l69 135l41 -21l-78 -132zM27 633l68 135l41 -21l-77 -132z" />
    <glyph glyph-name="commaaccent" unicode="&#x326;" horiz-adv-x="136" 
d="M35 -203q14 14 23 31.5t9 37.5h-43v97h89v-82q0 -26 -15.5 -53t-38.5 -47z" />
    <glyph glyph-name="afii10023" unicode="&#x401;" horiz-adv-x="353" 
d="M40 0v745h286v-78h-187v-235h157l-7 -79h-150v-277h192v-76h-291zM53 815v120h82v-120h-82zM216 815v120h82v-120h-82z" />
    <glyph glyph-name="afii10052" unicode="&#x403;" horiz-adv-x="356" 
d="M40 0v745h307v-78h-207v-667h-100zM106 794l-34 38l162 126l50 -59z" />
    <glyph glyph-name="afii10053" unicode="&#x404;" horiz-adv-x="444" 
d="M419 252q-5 -68 -10.5 -117.5t-23.5 -82.5t-54.5 -49t-102.5 -16q-72 0 -112 24.5t-59 72.5t-23 120t-4 168q0 95 4 167t23 121t59 73.5t112 24.5q67 0 104.5 -13.5t56 -44.5t23.5 -80.5t7 -121.5l-97 -13q-2 61 -4.5 99.5t-11.5 59.5t-27 28.5t-51 7.5q-30 0 -48.5 -14
t-28.5 -44t-13.5 -77t-3.5 -113h162l-7 -79h-155q0 -78 2.5 -132.5t12 -89t28.5 -50t51 -15.5q33 0 51 10t26.5 32.5t10.5 59.5t4 92z" />
    <glyph glyph-name="afii10054" unicode="&#x405;" horiz-adv-x="399" 
d="M102 235q2 -47 6.5 -79.5t14.5 -52.5t26 -28.5t41 -8.5q27 0 43.5 8t25.5 23.5t12.5 39t3.5 54.5q0 36 -7 62t-20.5 45t-33.5 34.5t-45 30.5q-27 16 -51.5 35t-44 45t-31 60t-11.5 81q0 40 8.5 72t28.5 54.5t53.5 35t83.5 12.5q51 0 81 -13t46.5 -35.5t22 -53.5t7.5 -66
l-79 -11q-2 24 -4.5 43t-10 32t-22.5 19.5t-40 6.5q-26 0 -41.5 -7t-24 -19.5t-11.5 -31t-3 -41.5q0 -29 6.5 -50.5t18.5 -38t28.5 -29t36.5 -24.5q30 -17 58.5 -35.5t51 -46t36 -68.5t13.5 -102q0 -96 -41.5 -148t-143.5 -52q-50 0 -81.5 12.5t-50.5 40t-28 71.5t-13 107z
" />
    <glyph glyph-name="afii10055" unicode="&#x406;" horiz-adv-x="179" 
d="M40 0v745h99v-745h-99z" />
    <glyph glyph-name="afii10056" unicode="&#x407;" horiz-adv-x="179" 
d="M-1 815v120h82v-120h-82zM102 815v120h82v-120h-82zM40 0v745h99v-745h-99z" />
    <glyph glyph-name="afii10057" unicode="&#x408;" horiz-adv-x="368" 
d="M230 745h98v-565q0 -45 -4.5 -81t-21 -61t-49.5 -38t-89 -13q-36 0 -61.5 7t-43 21.5t-29.5 35.5t-21 49l77 30q8 -32 23.5 -48t52.5 -16q23 0 36.5 6t20.5 19.5t9 33.5t2 49v571z" />
    <glyph glyph-name="afii10061" unicode="&#x40c;" horiz-adv-x="430" 
d="M305 0l-92 390l-74 -129v-261h-99v745h99v-331l150 331h112l-131 -244l150 -501h-115zM143 794l-34 38l162 126l50 -59z" />
    <glyph glyph-name="afii10062" unicode="&#x40e;" horiz-adv-x="409" 
d="M8 745h104l95 -461l105 461h89l-141 -583q-9 -38 -20 -70.5t-28.5 -56.5t-43.5 -38t-64 -14q-21 0 -37.5 3.5t-32.5 13.5q10 20 20 39.5t20 39.5q14 -11 30 -11q15 0 31.5 15t31.5 52zM354 939q-14 -60 -51.5 -94t-95.5 -34t-99.5 34.5t-52.5 94.5l49 17
q4 -19 12.5 -36.5t21.5 -31t30.5 -21.5t38.5 -8q42 0 69 29.5t35 69.5z" />
    <glyph glyph-name="afii10017" unicode="&#x410;" horiz-adv-x="421" 
d="M303 0l-30 179h-139l-31 -179h-94l148 745h105l150 -745h-109zM204 584l-63 -326h123z" />
    <glyph glyph-name="afii10018" unicode="&#x411;" horiz-adv-x="438" 
d="M40 0v745h327v-78h-233v-228h75q69 0 110.5 -17t63 -46.5t28.5 -67.5t7 -80q0 -48 -3.5 -89.5t-21 -72.5t-55 -48.5t-106.5 -17.5h-192zM206 73q42 0 65.5 10t35 29t13.5 47t2 65q0 32 -3.5 58.5t-14.5 45.5t-31 29.5t-52 10.5h-87v-295h72z" />
    <glyph glyph-name="afii10019" unicode="&#x412;" horiz-adv-x="438" 
d="M40 0v745h157q69 0 108.5 -13t59.5 -37t25 -58t5 -76q0 -60 -21.5 -103.5t-75.5 -56.5q67 -14 93.5 -59t26.5 -114q0 -48 -3.5 -89.5t-21 -72.5t-55 -48.5t-106.5 -17.5h-192zM206 73q42 0 65.5 10t35 29t13.5 47t2 65q0 32 -3.5 57t-14.5 41.5t-31 25t-52 8.5h-87v-283
h72zM209 427q30 0 47.5 9.5t27 26t12 39.5t2.5 51q0 33 -4 55t-14.5 35.5t-29.5 19.5t-50 6h-66v-242h75z" />
    <glyph glyph-name="afii10020" unicode="&#x413;" horiz-adv-x="356" 
d="M40 0v745h307v-78h-207v-667h-100z" />
    <glyph glyph-name="afii10021" unicode="&#x414;" horiz-adv-x="518" 
d="M331 666h-131v-294q0 -100 -4.5 -173t-25.5 -121h161v588zM430 -132v132h-342v-132h-78v210h40q17 11 26.5 34t14.5 59t6.5 85.5t1.5 115.5v373h331v-667h78v-210h-78z" />
    <glyph glyph-name="afii10022" unicode="&#x415;" horiz-adv-x="353" 
d="M40 0v745h286v-78h-187v-235h157l-7 -79h-150v-277h192v-76h-291z" />
    <glyph glyph-name="afii10024" unicode="&#x416;" horiz-adv-x="641" 
d="M516 0l-92 390l-54 -129v-261h-99v261l-54 129l-92 -390h-115l150 501l-131 244h112l130 -331v331h99v-331l130 331h112l-131 -244l150 -501h-115z" />
    <glyph glyph-name="afii10025" unicode="&#x417;" horiz-adv-x="484" 
d="M102 170q8 -51 34 -77.5t78 -26.5q62 0 87 38.5t25 117.5q0 66 -27 96t-86 30h-73l8 76h65q45 0 68.5 25.5t23.5 94.5q0 73 -20 104.5t-68 31.5q-42 0 -66.5 -23.5t-30.5 -84.5l-84 8q3 50 13.5 84t32 55t54.5 30t81 9q57 0 92.5 -15t55.5 -42t27 -64.5t7 -83.5
q0 -27 -4 -54t-12 -49.5t-20.5 -38.5t-29.5 -22q51 -17 69 -62.5t18 -111.5q0 -47 -7.5 -88t-29.5 -72.5t-62 -49.5t-105 -18q-50 0 -85.5 10.5t-59 31t-35.5 49.5t-15 65z" />
    <glyph glyph-name="afii10026" unicode="&#x418;" horiz-adv-x="445" 
d="M407 0h-85v515l-182 -515h-102v745h85v-516l181 516h103v-745z" />
    <glyph glyph-name="afii10027" unicode="&#x419;" horiz-adv-x="445" 
d="M407 0h-85v515l-182 -515h-102v745h85v-516l181 516h103v-745zM372 939q-14 -60 -51.5 -94t-95.5 -34t-99.5 34.5t-52.5 94.5l49 17q4 -19 12.5 -36.5t21.5 -31t30.5 -21.5t38.5 -8q42 0 69 29.5t35 69.5z" />
    <glyph glyph-name="afii10028" unicode="&#x41a;" horiz-adv-x="430" 
d="M305 0l-92 390l-74 -129v-261h-99v745h99v-331l150 331h112l-131 -244l150 -501h-115z" />
    <glyph glyph-name="afii10029" unicode="&#x41b;" horiz-adv-x="453" 
d="M314 0v666h-111v-294q0 -96 -4 -168t-23 -120t-59 -72.5t-112 -24.5l3 79q33 0 52 16.5t28 53.5t11.5 95t2.5 141v373h311v-745h-99z" />
    <glyph glyph-name="afii10030" unicode="&#x41c;" horiz-adv-x="561" 
d="M443 0v543l-115 -543h-96l-120 543v-543h-76v745h118l129 -591l131 591h111v-745h-82z" />
    <glyph glyph-name="afii10031" unicode="&#x41d;" horiz-adv-x="451" 
d="M312 0v346h-172v-346h-100v745h100v-321h172v321h99v-745h-99z" />
    <glyph glyph-name="afii10032" unicode="&#x41e;" 
d="M238 -13q-74 0 -115.5 24.5t-62 72.5t-25.5 120t-5 168q0 95 5 167t25.5 121t62 73.5t115.5 24.5q73 0 114 -24t60.5 -72t23.5 -120.5t4 -169.5q0 -98 -4 -170t-23.5 -120t-60.5 -71.5t-114 -23.5zM238 66q35 0 54.5 16.5t29 53.5t11.5 95t2 141q0 82 -2 140.5t-11.5 96
t-29 54.5t-54.5 17q-36 0 -56.5 -17.5t-31 -54.5t-13.5 -95.5t-3 -140.5q0 -83 3 -141t13.5 -95t31 -53.5t56.5 -16.5z" />
    <glyph glyph-name="afii10033" unicode="&#x41f;" horiz-adv-x="451" 
d="M312 0v666h-172v-666h-100v745h371v-745h-99z" />
    <glyph glyph-name="afii10034" unicode="&#x420;" horiz-adv-x="415" 
d="M40 0v745h129q71 0 116 -13t70.5 -38.5t35 -63.5t9.5 -87q0 -55 -9.5 -99t-34 -74.5t-67.5 -47t-110 -16.5h-41v-306h-98zM191 384q36 0 58 10t34 29.5t15.5 48t3.5 64.5q0 31 -3.5 55t-14.5 40.5t-32.5 24.5t-58.5 8h-55v-280h53z" />
    <glyph glyph-name="afii10035" unicode="&#x421;" horiz-adv-x="444" 
d="M419 252q-5 -68 -10.5 -117.5t-23.5 -82.5t-54.5 -49t-102.5 -16q-72 0 -112 24.5t-59 72.5t-23 120t-4 168q0 95 4 167t23 121t59 73.5t112 24.5q67 0 104.5 -13.5t56 -44.5t23.5 -80.5t7 -121.5l-97 -13q-2 61 -4.5 99.5t-11.5 59.5t-27 28.5t-51 7.5t-52 -17.5
t-28 -54.5t-11.5 -95.5t-2.5 -140.5q0 -83 2.5 -141t11.5 -95t28 -53.5t52 -16.5t51 10t26.5 32.5t10.5 59.5t4 92z" />
    <glyph glyph-name="afii10036" unicode="&#x422;" horiz-adv-x="361" 
d="M130 0v667h-124v78h350v-78h-127v-667h-99z" />
    <glyph glyph-name="afii10037" unicode="&#x423;" horiz-adv-x="409" 
d="M8 745h104l95 -461l105 461h89l-141 -583q-9 -38 -20 -70.5t-28.5 -56.5t-43.5 -38t-64 -14q-21 0 -37.5 3.5t-32.5 13.5q10 20 20 39.5t20 39.5q14 -11 30 -11q15 0 31.5 15t31.5 52z" />
    <glyph glyph-name="afii10038" unicode="&#x424;" horiz-adv-x="563" 
d="M232 0v77q-69 0 -109 14.5t-60.5 48.5t-26.5 91t-6 142q0 84 6 141t26.5 91.5t60.5 49t109 14.5v76h99v-76q69 0 109 -14.5t60.5 -49t26.5 -91.5t6 -141q0 -85 -6 -142t-26.5 -91t-60.5 -48.5t-109 -14.5v-77h-99zM331 156q32 0 51 8t29.5 31t13.5 66t3 112t-3 111.5
t-13.5 66t-29.5 32t-51 8.5v-435zM232 591q-32 0 -51 -8.5t-29.5 -32t-13.5 -66t-3 -111.5t3 -112t13.5 -66t29.5 -31t51 -8v435z" />
    <glyph glyph-name="afii10039" unicode="&#x425;" horiz-adv-x="428" 
d="M316 0l-108 288l-102 -288h-97l153 389l-140 356h101l94 -249l89 249h92l-137 -347l158 -398h-103z" />
    <glyph glyph-name="afii10040" unicode="&#x426;" horiz-adv-x="499" 
d="M411 -132v132h-371v745h100v-666h172v666h99v-667h78v-210h-78z" />
    <glyph glyph-name="afii10041" unicode="&#x427;" horiz-adv-x="415" 
d="M375 0h-98v306h-41q-67 0 -110 16.5t-67.5 47t-34 74.5t-9.5 99v202h98v-209q0 -36 3.5 -64.5t15.5 -48t34 -29.5t58 -10h53v361h98v-745z" />
    <glyph glyph-name="afii10042" unicode="&#x428;" horiz-adv-x="678" 
d="M40 0v745h100v-666h150v666h99v-666h150v666h99v-745h-598z" />
    <glyph glyph-name="afii10043" unicode="&#x429;" horiz-adv-x="726" 
d="M638 -132v132h-598v745h100v-666h150v666h99v-666h150v666h99v-665h78v-212h-78z" />
    <glyph glyph-name="afii10044" unicode="&#x42a;" horiz-adv-x="524" 
d="M126 0v668h-116v77h210v-306h75q69 0 110.5 -17t63 -46.5t28.5 -67.5t7 -80q0 -48 -3.5 -89.5t-21 -72.5t-55 -48.5t-106.5 -17.5h-192zM292 73q42 0 65.5 10t35 29t13.5 47t2 65q0 32 -3.5 58.5t-14.5 45.5t-31 29.5t-52 10.5h-87v-295h72z" />
    <glyph glyph-name="afii10045" unicode="&#x42b;" horiz-adv-x="615" 
d="M40 0v745h94v-306h75q69 0 110.5 -17t63 -46.5t28.5 -67.5t7 -80q0 -48 -3.5 -89.5t-21 -72.5t-55 -48.5t-106.5 -17.5h-192zM206 73q42 0 65.5 10t35 29t13.5 47t2 65q0 32 -3.5 58.5t-14.5 45.5t-31 29.5t-52 10.5h-87v-295h72zM476 0v745h99v-745h-99z" />
    <glyph glyph-name="afii10046" unicode="&#x42c;" horiz-adv-x="438" 
d="M40 0v745h94v-306h75q69 0 110.5 -17t63 -46.5t28.5 -67.5t7 -80q0 -48 -3.5 -89.5t-21 -72.5t-55 -48.5t-106.5 -17.5h-192zM206 73q42 0 65.5 10t35 29t13.5 47t2 65q0 32 -3.5 58.5t-14.5 45.5t-31 29.5t-52 10.5h-87v-295h72z" />
    <glyph glyph-name="afii10047" unicode="&#x42d;" horiz-adv-x="444" 
d="M315 432q0 66 -3.5 113t-13.5 77t-28.5 44t-48.5 14q-33 0 -51 -7.5t-27 -28.5t-11.5 -59.5t-4.5 -99.5l-97 13q2 72 7 121.5t23.5 80.5t56 44.5t104.5 13.5q72 0 112 -24.5t59 -73.5t23 -121t4 -167q0 -96 -4 -168t-23 -120t-59 -72.5t-112 -24.5q-66 0 -102.5 16
t-54.5 49t-23.5 82.5t-10.5 117.5l99 8q2 -55 4 -92t10.5 -59.5t26.5 -32.5t51 -10q32 0 51 15.5t28.5 50t12 89t2.5 132.5h-162l7 79h155z" />
    <glyph glyph-name="afii10048" unicode="&#x42e;" horiz-adv-x="670" 
d="M40 0v745h100v-321h90q1 82 8 144.5t28.5 104.5t62.5 63.5t109 21.5q73 0 114 -24t60.5 -72t23.5 -120.5t4 -169.5q0 -98 -4 -170t-23.5 -120t-60.5 -71.5t-114 -23.5q-71 0 -112 22.5t-62.5 67.5t-27.5 112.5t-6 156.5h-90v-346h-100zM438 66q35 0 54.5 16.5t29 53.5
t11.5 95t2 141q0 82 -2 140.5t-11.5 96t-29 54.5t-54.5 17q-36 0 -56.5 -17.5t-31 -54.5t-13.5 -95.5t-3 -140.5q0 -83 3 -141t13.5 -95t31 -53.5t56.5 -16.5z" />
    <glyph glyph-name="afii10049" unicode="&#x42f;" horiz-adv-x="403" 
d="M363 0h-99v334h-74l-71 -334h-110l91 346q-26 7 -42.5 25t-26 44.5t-13 61.5t-3.5 77q0 50 6.5 86t26.5 59.5t57.5 34.5t99.5 11h158v-745zM264 410v262h-65q-32 0 -50 -6.5t-27 -20.5t-11.5 -37.5t-2.5 -57.5q0 -39 2.5 -66t11.5 -43.5t25.5 -23.5t44.5 -7h72z" />
    <glyph glyph-name="afii10065" unicode="&#x430;" horiz-adv-x="395" 
d="M384 0q-51 0 -74 17.5t-28 42.5q-19 -33 -49 -52t-86 -19q-36 0 -59 12.5t-37 33.5t-19.5 47.5t-5.5 54.5q0 53 8 89.5t33 59t72 32t125 9.5v41q0 28 -2 48.5t-9.5 34t-21.5 19.5t-38 6q-21 0 -34 -5.5t-21 -16.5t-11.5 -29.5t-5.5 -43.5l-79 7q3 42 9.5 73t22 51.5
t43.5 30t74 9.5q52 0 84 -12t50 -36.5t24 -61t6 -84.5v-253q0 -29 11.5 -36t25.5 -7zM264 272q-48 -3 -77 -8.5t-44 -19t-20 -37.5t-5 -64q0 -42 11 -63t42 -21q39 0 61.5 24.5t31.5 72.5v116z" />
    <glyph glyph-name="afii10066" unicode="&#x431;" horiz-adv-x="429" 
d="M30 429q0 58 4 110t21.5 90t53 60.5t98.5 22.5q27 0 52 4.5t45.5 10t34.5 11t17 8.5q10 -20 16 -31.5t16 -31.5q-8 -5 -26 -11.5t-41.5 -12.5t-50.5 -10t-52 -4h-10q-30 0 -46.5 -12t-25.5 -33t-11.5 -50.5t-3.5 -65.5q10 15 16.5 27.5t15 21.5t22.5 14t39 5
q69 0 106.5 -23t55 -62t20.5 -90.5t3 -107.5t-3 -106.5t-20.5 -89t-55 -61.5t-106.5 -23t-106 23t-54.5 61.5t-20.5 89t-3 106.5v160zM214 63q33 0 51 12t27 37.5t10.5 64t1.5 92.5t-1.5 93t-10.5 64.5t-27 37.5t-51 12t-51 -12t-27 -37.5t-10.5 -64.5t-1.5 -93t1.5 -92.5
t10.5 -64t27 -37.5t51 -12z" />
    <glyph glyph-name="afii10067" unicode="&#x432;" horiz-adv-x="399" 
d="M40 543h208q36 0 59 -12.5t37 -33.5t19.5 -47.5t5.5 -54.5q0 -60 -10.5 -87t-44.5 -36q17 -5 27.5 -13.5t16.5 -23t8.5 -36t2.5 -51.5q0 -28 -5.5 -54.5t-19.5 -47.5t-37 -33.5t-59 -12.5h-208v543zM224 70q31 0 41 21t12 63q1 22 -1.5 38t-10 27t-21.5 16.5t-36 5.5h-77
v-171h93zM131 473v-168h82q43 0 55 18.5t9 65.5q-2 42 -12 63t-41 21h-93z" />
    <glyph glyph-name="afii10068" unicode="&#x433;" horiz-adv-x="328" 
d="M40 0v543h279v-78h-187v-465h-92z" />
    <glyph glyph-name="afii10069" unicode="&#x434;" horiz-adv-x="482" 
d="M303 464h-111v-92q0 -100 -4.5 -173t-25.5 -121h141v386zM394 -132v132h-306v-132h-78v210h40q17 11 26.5 34t14.5 59t6.5 85.5t1.5 115.5v171h295v-465h78v-210h-78z" />
    <glyph glyph-name="afii10070" unicode="&#x435;" horiz-adv-x="411" 
d="M382 160q-5 -42 -16 -74t-30.5 -53.5t-50 -32.5t-74.5 -11q-65 0 -101 23.5t-54 62.5t-22 89.5t-4 104.5q0 58 4 110t21.5 90t53 60.5t98.5 22.5q64 0 99.5 -22t52.5 -57t20 -78t3 -85v-52h-263q0 -41 2.5 -76.5t12 -62t29 -41.5t54.5 -15q24 0 40 7.5t26 21.5t15 34
t8 45zM294 364q0 25 -3.5 47t-12.5 38.5t-26 26t-44 9.5q-30 0 -46.5 -12t-25.5 -33t-11.5 -50.5t-3.5 -65.5h173v40z" />
    <glyph glyph-name="afii10072" unicode="&#x436;" horiz-adv-x="580" 
d="M337 543v-213l112 213h110l-109 -156l122 -387h-112l-70 298l-53 -98v-200h-94v200l-53 98l-70 -298h-112l122 387l-109 156h110l112 -213v213h94z" />
    <glyph glyph-name="afii10073" unicode="&#x437;" horiz-adv-x="416" 
d="M102 170q4 -26 9 -45t15 -32.5t26 -20t42 -6.5q31 0 50.5 3.5t30.5 15.5t15 35t4 62q0 15 -3.5 27t-13.5 20.5t-28.5 13.5t-47.5 5h-61l8 76h53q22 0 36 4.5t21.5 14t10.5 25t4 36.5q1 27 -7.5 42.5t-21 23t-28 9t-27.5 1.5q-21 -1 -34.5 -6.5t-22 -18t-13 -33
t-7.5 -50.5l-76 8q3 50 10.5 84t25 55t47.5 30t78 9q57 0 89 -15.5t48 -38t20.5 -47.5t4.5 -44q1 -54 -15.5 -83t-50.5 -41q51 -17 70 -49t17 -65q-2 -35 -6.5 -68.5t-22.5 -60t-54 -43t-101 -16.5q-50 0 -82.5 10.5t-52 31t-28.5 49.5t-12 65z" />
    <glyph glyph-name="afii10074" unicode="&#x438;" horiz-adv-x="421" 
d="M385 0h-85v393l-162 -393h-102v543h85v-394l161 394h103v-543z" />
    <glyph glyph-name="afii10075" unicode="&#x439;" horiz-adv-x="421" 
d="M385 0h-85v393l-162 -393h-102v543h85v-394l161 394h103v-543zM360 737q-14 -60 -51.5 -94t-95.5 -34t-99.5 34.5t-52.5 94.5l49 17q4 -19 12.5 -36.5t21.5 -31t30.5 -21.5t38.5 -8q42 0 69 29.5t35 69.5z" />
    <glyph glyph-name="afii10076" unicode="&#x43a;" horiz-adv-x="394" 
d="M277 0l-70 298l-73 -98v-200h-94v543h94v-233l132 233h110l-109 -156l122 -387h-112z" />
    <glyph glyph-name="afii10077" unicode="&#x43b;" horiz-adv-x="417" 
d="M286 0v464h-91v-107q0 -92 -3.5 -161t-21.5 -115.5t-56.5 -70t-108.5 -23.5l3 79q33 0 52 16.5t28 53.5t11.5 95t2.5 141v171h275v-543h-91z" />
    <glyph glyph-name="afii10078" unicode="&#x43c;" horiz-adv-x="529" 
d="M411 0v381l-105 -381h-76l-110 381v-381h-84v543h126l109 -389l111 389h111v-543h-82z" />
    <glyph glyph-name="afii10079" unicode="&#x43d;" horiz-adv-x="415" 
d="M284 0v245h-152v-245h-92v543h92v-220h152v220h91v-543h-91z" />
    <glyph glyph-name="afii10080" unicode="&#x43e;" horiz-adv-x="429" 
d="M214 -11q-69 0 -106 23t-54.5 61.5t-20.5 89t-3 106.5t3 107.5t20.5 90.5t55 62t105.5 23q69 0 106.5 -23t55 -62t20.5 -90.5t3 -107.5t-3 -106.5t-20.5 -89t-55 -61.5t-106.5 -23zM214 63q33 0 51 12t27 37.5t10.5 64t1.5 92.5t-1.5 93t-10.5 64.5t-27 37.5t-51 12
t-51 -12t-27 -37.5t-10.5 -64.5t-1.5 -93t1.5 -92.5t10.5 -64t27 -37.5t51 -12z" />
    <glyph glyph-name="afii10081" unicode="&#x43f;" horiz-adv-x="415" 
d="M284 0v464h-152v-464h-92v543h335v-543h-91z" />
    <glyph glyph-name="afii10082" unicode="&#x440;" horiz-adv-x="423" 
d="M40 -219v762h79q4 -39 6 -78q17 38 46.5 63t80.5 25q52 0 81 -21t43 -57.5t17.5 -84.5t3.5 -102q0 -68 -4 -123t-19 -93.5t-45.5 -59.5t-83.5 -21q-37 0 -69 20.5t-44 45.5v-276h-92zM132 129q9 -22 32.5 -42t58.5 -20q27 0 43 12.5t23.5 39t9.5 67.5t2 98q0 49 -1.5 86
t-8 61t-20.5 36t-39 12q-24 0 -40.5 -8t-28 -21.5t-19 -32.5t-12.5 -40v-248z" />
    <glyph glyph-name="afii10083" unicode="&#x441;" horiz-adv-x="387" 
d="M362 184q-2 -36 -7.5 -71t-22 -62.5t-47.5 -44.5t-83 -17q-63 0 -98 22.5t-51.5 61.5t-19.5 90t-3 108q0 58 3 109t20.5 89t54 60.5t102.5 22.5q42 0 69.5 -9.5t44.5 -30.5t25 -55t10 -83l-77 -12q-2 31 -5.5 53t-11.5 35.5t-21 20t-34 6.5q-32 0 -49.5 -14t-26 -41
t-10 -65t-1.5 -86t1.5 -86.5t9 -65.5t23.5 -41.5t45 -14.5q25 0 40.5 9t24.5 25.5t12.5 40.5t5.5 54z" />
    <glyph glyph-name="afii10084" unicode="&#x442;" horiz-adv-x="353" 
d="M130 0v465h-124v78h342v-78h-127v-465h-91z" />
    <glyph glyph-name="afii10085" unicode="&#x443;" horiz-adv-x="377" 
d="M8 543h104l84 -395l76 395h96l-141 -583q-9 -38 -21.5 -70.5t-31 -56.5t-45.5 -38t-65 -14q-21 0 -37.5 3.5t-32.5 13.5q10 20 20 39.5t20 39.5q14 -11 30 -11q21 0 44.5 30t40.5 108z" />
    <glyph glyph-name="afii10086" unicode="&#x444;" horiz-adv-x="604" 
d="M352 805v-324q7 12 15 25t20.5 23t31 16.5t46.5 6.5q42 0 65 -19t34.5 -53t13.5 -81t2 -104q0 -63 -2.5 -118.5t-16.5 -97t-44 -65t-85 -23.5q-20 0 -32.5 4.5t-21.5 12.5t-16 20t-14 27v-274h-92v274q-7 -15 -14 -27t-16 -20t-22 -12.5t-32 -4.5q-55 0 -85 23.5t-44 65
t-16.5 97t-2.5 118.5q0 57 2 104t13.5 81t34.5 53t65 19q28 0 46.5 -6.5t31 -16.5t20.5 -23t15 -25v307zM257 403q-11 32 -25.5 53t-50.5 21q-20 0 -32.5 -8t-19.5 -29t-9.5 -56.5t-2.5 -89.5q0 -66 2.5 -110t11 -70.5t23.5 -37.5t41 -11q15 0 25.5 7t18 17t12 20.5
t6.5 18.5v275zM347 128q2 -8 6.5 -18.5t12 -20.5t18 -17t25.5 -7q25 0 40.5 11t24 37.5t11 70.5t2.5 110q0 54 -2.5 89.5t-9.5 56.5t-19.5 29t-32.5 8q-36 0 -50.5 -21t-25.5 -53v-275z" />
    <glyph glyph-name="afii10087" unicode="&#x445;" horiz-adv-x="342" 
d="M245 0l-80 205l-74 -205h-82l117 290l-102 253h85l64 -162l59 162h78l-98 -246l121 -297h-88z" />
    <glyph glyph-name="afii10088" unicode="&#x446;" horiz-adv-x="463" 
d="M375 -132v132h-335v543h92v-464h152v464h91v-465h78v-210h-78z" />
    <glyph glyph-name="afii10089" unicode="&#x447;" horiz-adv-x="374" 
d="M342 0h-90v206h-21q-67 0 -110 16.5t-67.5 47t-34 74.5t-9.5 99v100h90v-107q0 -36 3.5 -64.5t15.5 -48t34 -29.5t58 -10h41v259h90v-543z" />
    <glyph glyph-name="afii10090" unicode="&#x448;" horiz-adv-x="614" 
d="M40 0v543h92v-464h130v464h91v-464h130v464h91v-543h-534z" />
    <glyph glyph-name="afii10091" unicode="&#x449;" horiz-adv-x="662" 
d="M574 -132v132h-534v543h92v-464h130v464h91v-464h130v464h91v-463h78v-212h-78z" />
    <glyph glyph-name="afii10092" unicode="&#x44a;" horiz-adv-x="440" 
d="M285 70q31 0 42 21t11 63q0 40 -5 62.5t-20 33.5t-44 15t-77 7v-202h93zM10 466v77h182v-216q78 0 125 -8t72 -28.5t33 -55t8 -87.5q0 -28 -5.5 -54.5t-19.5 -47.5t-37 -33.5t-59 -12.5h-200v466h-99z" />
    <glyph glyph-name="afii10093" unicode="&#x44b;" horiz-adv-x="535" 
d="M216 70q31 0 42 21t11 63q0 40 -5 62.5t-20 33.5t-44 15t-77 7v-202h93zM40 543h83v-216q78 0 125 -8t72 -28.5t33 -55t8 -87.5q0 -28 -5.5 -54.5t-19.5 -47.5t-37 -33.5t-59 -12.5h-200v543zM404 0v543h91v-543h-91z" />
    <glyph glyph-name="afii10094" unicode="&#x44c;" horiz-adv-x="371" 
d="M216 70q31 0 42 21t11 63q0 40 -5 62.5t-20 33.5t-44 15t-77 7v-202h93zM40 543h83v-216q78 0 125 -8t72 -28.5t33 -55t8 -87.5q0 -28 -5.5 -54.5t-19.5 -47.5t-37 -33.5t-59 -12.5h-200v543z" />
    <glyph glyph-name="afii10095" unicode="&#x44d;" horiz-adv-x="387" 
d="M136 233l7 79h126q0 39 -3 69.5t-12 51.5t-26.5 32.5t-45.5 11.5q-21 0 -34 -6.5t-21 -20t-11.5 -35.5t-5.5 -53l-77 12q2 49 10 83t25 55t44.5 30.5t69.5 9.5q66 0 102.5 -22.5t54 -60.5t20.5 -89t3 -109q0 -57 -3 -108t-19.5 -90t-51.5 -61.5t-98 -22.5q-53 0 -83.5 17
t-47 44.5t-22 62.5t-7.5 71l77 8q2 -30 5.5 -54t12.5 -40.5t24.5 -25.5t40.5 -9q26 0 41.5 11.5t23.5 33.5t11 53.5t3 71.5h-133z" />
    <glyph glyph-name="afii10096" unicode="&#x44e;" horiz-adv-x="590" 
d="M381 -11q-65 0 -102 20.5t-55 55.5t-22.5 81.5t-4.5 98.5h-65v-245h-92v543h92v-220h65q1 47 7.5 89t25.5 73t55 49t96 18q69 0 106.5 -23t55 -62t20.5 -90.5t3 -107.5t-3 -106.5t-20.5 -89t-55 -61.5t-106.5 -23zM381 63q33 0 51 12t27 37.5t10.5 64t1.5 92.5t-1.5 93
t-10.5 64.5t-27 37.5t-51 12t-51 -12t-27 -37.5t-10.5 -64.5t-1.5 -93t1.5 -92.5t10.5 -64t27 -37.5t51 -12z" />
    <glyph glyph-name="afii10097" unicode="&#x44f;" horiz-adv-x="386" 
d="M350 0h-83v216q-29 0 -53.5 1t-44.5 3l-61 -220h-90l80 236q-22 9 -35.5 22.5t-21 33t-10 45t-2.5 58.5q0 28 5.5 54.5t19.5 47.5t37 33.5t59 12.5h200v-543zM174 473q-31 0 -42 -21t-11 -63q0 -40 5 -62.5t20 -33.5t44 -15t77 -7v202h-93z" />
    <glyph glyph-name="afii10071" unicode="&#x451;" horiz-adv-x="411" 
d="M382 160q-5 -42 -16 -74t-30.5 -53.5t-50 -32.5t-74.5 -11q-65 0 -101 23.5t-54 62.5t-22 89.5t-4 104.5q0 58 4 110t21.5 90t53 60.5t98.5 22.5q64 0 99.5 -22t52.5 -57t20 -78t3 -85v-42h-263q0 -41 2.5 -78t12 -65.5t29 -45t54.5 -16.5q24 0 40 7.5t26 21.5t15 34
t8 45zM294 364q0 25 -3.5 47t-12.5 38.5t-26 26t-44 9.5q-30 0 -46.5 -12t-25.5 -33t-11.5 -50.5t-3.5 -65.5h173v40zM83 613v120h82v-120h-82zM246 613v120h82v-120h-82z" />
    <glyph glyph-name="afii10100" unicode="&#x453;" horiz-adv-x="336" 
d="M40 0v543h279v-78h-187v-465h-92zM96 592l-34 38l162 126l50 -59z" />
    <glyph glyph-name="afii10101" unicode="&#x454;" horiz-adv-x="387" 
d="M362 184q-2 -36 -7.5 -71t-22 -62.5t-47.5 -44.5t-83 -17q-63 0 -98 22.5t-51.5 61.5t-19.5 90t-3 108q0 58 3 109t20.5 89t54 60.5t102.5 22.5q42 0 69.5 -9.5t44.5 -30.5t25 -55t10 -83l-77 -12q-2 31 -5.5 53t-11.5 35.5t-21 20t-34 6.5q-29 0 -46 -11.5t-26 -32.5
t-12 -51.5t-3 -69.5h133l-7 -79h-126q0 -40 3 -71.5t11 -53.5t23.5 -33.5t41.5 -11.5q25 0 40.5 9t24.5 25.5t12.5 40.5t5.5 54z" />
    <glyph glyph-name="afii10102" unicode="&#x455;" horiz-adv-x="357" 
d="M250 414q-5 34 -15.5 48.5t-44.5 14.5q-29 0 -46 -12.5t-17 -45.5q0 -30 11.5 -51t43.5 -39q33 -18 60.5 -32.5t47 -33t30.5 -45.5t11 -70q0 -78 -37.5 -119.5t-122.5 -41.5q-76 0 -113 39t-37 130l81 12q0 -22 3 -41.5t10.5 -34.5t20.5 -23.5t34 -8.5q48 0 63 21t15 58
q0 45 -22.5 68t-62.5 42q-30 14 -53 29t-38.5 34t-24 44t-8.5 60q0 31 6.5 56t23 43t43.5 27.5t69 9.5t67.5 -6t40.5 -20.5t22 -38.5t13 -59z" />
    <glyph glyph-name="afii10103" unicode="&#x456;" horiz-adv-x="174" 
d="M40 0v543h94v-543h-94zM40 654v130h94v-130h-94z" />
    <glyph glyph-name="afii10104" unicode="&#x457;" horiz-adv-x="175" 
d="M-32 613v120h82v-120h-82zM131 613v120h82v-120h-82zM40 0v543h95v-543h-95z" />
    <glyph glyph-name="afii10105" unicode="&#x458;" horiz-adv-x="187" 
d="M53 654v130h94v-130h-94zM-49 -120q10 -14 24.5 -19t28.5 -5q13 0 22.5 4.5t15.5 18.5t8.5 40.5t2.5 70.5v553h94v-579q0 -54 -7 -89.5t-22 -56t-39.5 -29t-58.5 -8.5t-55 9.5t-32 22.5z" />
    <glyph glyph-name="afii10109" unicode="&#x45c;" horiz-adv-x="394" 
d="M277 0l-70 298l-73 -98v-200h-94v543h94v-233l132 233h110l-109 -156l122 -387h-112zM125 592l-34 38l162 126l50 -59z" />
    <glyph glyph-name="afii10110" unicode="&#x45e;" horiz-adv-x="370" 
d="M8 543h104l84 -395l76 395h96l-141 -583q-9 -38 -21.5 -70.5t-31 -56.5t-45.5 -38t-65 -14q-21 0 -37.5 3.5t-32.5 13.5q10 20 20 39.5t20 39.5q14 -11 30 -11q21 0 44.5 30t40.5 108zM334 737q-14 -60 -51.5 -94t-95.5 -34t-99.5 34.5t-52.5 94.5l49 17
q4 -19 12.5 -36.5t21.5 -31t30.5 -21.5t38.5 -8q42 0 69 29.5t35 69.5z" />
    <glyph glyph-name="afii10050" unicode="&#x490;" horiz-adv-x="356" 
d="M40 0v745h229v132h78v-210h-207v-667h-100z" />
    <glyph glyph-name="afii10098" unicode="&#x491;" horiz-adv-x="336" 
d="M40 0v543h209v132h78v-210h-187v-465h-100z" />
    <glyph glyph-name="Wgrave" unicode="&#x1e80;" horiz-adv-x="648" 
d="M417 0l-90 599l-87 -599h-107l-124 745h106l76 -595l85 595h102l83 -593l74 593h104l-125 -745h-97zM187 914l50 58l162 -127l-33 -37z" />
    <glyph glyph-name="wgrave" unicode="&#x1e81;" horiz-adv-x="525" 
d="M334 0l-66 399l-68 -399h-86l-105 543h97l57 -389l63 389h84l62 -389l58 389h86l-108 -543h-74zM126 712l50 58l162 -127l-33 -37z" />
    <glyph glyph-name="Wacute" unicode="&#x1e82;" horiz-adv-x="648" 
d="M417 0l-90 599l-87 -599h-107l-124 745h106l76 -595l85 595h102l83 -593l74 593h104l-125 -745h-97zM282 794l-34 38l162 126l50 -59z" />
    <glyph glyph-name="wacute" unicode="&#x1e83;" horiz-adv-x="525" 
d="M334 0l-66 399l-68 -399h-86l-105 543h97l57 -389l63 389h84l62 -389l58 389h86l-108 -543h-74zM220 592l-34 38l162 126l50 -59z" />
    <glyph glyph-name="Wdieresis" unicode="&#x1e84;" horiz-adv-x="648" 
d="M417 0l-90 599l-87 -599h-107l-124 745h106l76 -595l85 595h102l83 -593l74 593h104l-125 -745h-97zM201 815v120h82v-120h-82zM364 815v120h82v-120h-82z" />
    <glyph glyph-name="wdieresis" unicode="&#x1e85;" horiz-adv-x="525" 
d="M334 0l-66 399l-68 -399h-86l-105 543h97l57 -389l63 389h84l62 -389l58 389h86l-108 -543h-74zM140 613v120h82v-120h-82zM303 613v120h82v-120h-82z" />
    <glyph glyph-name="Ygrave" unicode="&#x1ef2;" horiz-adv-x="382" 
d="M143 0v314l-134 431h97l89 -328l94 328h83l-131 -431v-314h-98zM54 914l50 58l162 -127l-33 -37z" />
    <glyph glyph-name="ygrave" unicode="&#x1ef3;" horiz-adv-x="370" 
d="M8 543h104l84 -395l76 395h89l-141 -583q-9 -38 -20 -70.5t-28.5 -56.5t-43.5 -38t-64 -14q-21 0 -37.5 3.5t-32.5 13.5q10 20 20 39.5t20 39.5q14 -11 30 -11q21 0 44.5 30t40.5 108zM48 712l50 58l162 -127l-33 -37z" />
    <glyph glyph-name="endash" unicode="&#x2013;" horiz-adv-x="396" 
d="M11 262l8 63h368l-7 -63h-369z" />
    <glyph glyph-name="emdash" unicode="&#x2014;" horiz-adv-x="603" 
d="M11 261l8 64h575l-8 -64h-575z" />
    <glyph glyph-name="quoteleft" unicode="&#x2018;" horiz-adv-x="131" 
d="M18 543v105q0 70 73 146l27 -21q-51 -51 -51 -107h46v-123h-95z" />
    <glyph glyph-name="quoteright" unicode="&#x2019;" horiz-adv-x="131" 
d="M13 553q51 52 51 107h-46v124h95v-105q0 -36 -18.5 -72.5t-54.5 -74.5z" />
    <glyph glyph-name="quotesinglbase" unicode="&#x201a;" horiz-adv-x="129" 
d="M14 -101q50 52 50 107h-46v124h95v-105q0 -36 -18.5 -72.5t-54.5 -74.5z" />
    <glyph glyph-name="quotedblleft" unicode="&#x201c;" horiz-adv-x="277" 
d="M19 543v105q0 70 73 146l26 -21q-50 -53 -50 -107h46v-123h-95zM165 543v105q0 70 73 146l26 -21q-50 -50 -50 -107h46v-123h-95z" />
    <glyph glyph-name="quotedblright" unicode="&#x201d;" horiz-adv-x="277" 
d="M158 553q52 52 52 107h-46v124h95v-105q0 -70 -74 -147zM13 553q51 52 51 107h-46v124h95v-105q0 -36 -18.5 -72.5t-54.5 -74.5z" />
    <glyph glyph-name="quotedblbase" unicode="&#x201e;" horiz-adv-x="277" 
d="M158 -101q51 52 51 107h-46v124h95v-105q0 -70 -74 -147zM13 -101q50 52 50 107h-46v124h95v-105q0 -36 -18.5 -72.5t-54.5 -74.5z" />
    <glyph glyph-name="dagger" unicode="&#x2020;" horiz-adv-x="365" 
d="M147 0v562h-117v64h117v118h77v-118h111v-64h-111v-562h-77z" />
    <glyph glyph-name="daggerdbl" unicode="&#x2021;" horiz-adv-x="372" 
d="M146 0v119h-116v63h116v380h-116v64h116v118h78v-118h110v-64h-110v-380h110v-63h-110v-119h-78z" />
    <glyph glyph-name="bullet" unicode="&#x2022;" horiz-adv-x="337" 
d="M168 209q-30 0 -55 11t-43.5 30.5t-29 46t-10.5 57.5q0 32 10.5 59t29 46.5t43.5 30.5t55 11q28 0 53.5 -11t44.5 -30.5t30 -46.5t11 -59q0 -31 -11 -57.5t-30 -46t-44.5 -30.5t-53.5 -11z" />
    <glyph glyph-name="ellipsis" unicode="&#x2026;" horiz-adv-x="764" 
d="M30 0v130h94v-130h-94zM335 0v130h94v-130h-94zM641 0v130h94v-130h-94z" />
    <glyph glyph-name="perthousand" unicode="&#x2030;" horiz-adv-x="751" 
d="M624 -10q-35 0 -54.5 15.5t-29 43t-11.5 65t-2 81.5q0 47 2 85t11.5 64.5t29 41t54.5 14.5t54.5 -14.5t29 -41t11.5 -64.5t2 -85q0 -44 -2 -81.5t-11.5 -65t-29 -43t-54.5 -15.5zM624 49q30 0 36 34t6 112q0 39 -1 67t-5 45t-12.5 25t-23.5 8t-24 -8t-13 -25t-5 -45
t-1 -67t1 -66.5t5 -45.5t13 -26t24 -8zM128 355q-35 0 -54.5 15.5t-29.5 43.5t-12 65t-2 81q0 47 2 85t12 65t29.5 41.5t54.5 14.5q34 0 53.5 -14.5t29 -41.5t11.5 -65t2 -85q0 -44 -2 -81t-11.5 -65t-29 -43.5t-53.5 -15.5zM100 0l262 756h54l-260 -756h-56zM128 414
q30 0 35.5 34t5.5 112q0 39 -1 67t-4.5 45t-12 25t-23.5 8q-16 0 -24.5 -8t-12.5 -25t-5 -45t-1 -67t1 -66.5t5 -45.5t12.5 -26t24.5 -8zM389 -10q-35 0 -54.5 15.5t-29.5 43t-12 65t-2 81.5q0 47 2 85t12 64.5t29.5 41t54.5 14.5t54.5 -14.5t29 -41t11.5 -64.5t2 -85
q0 -44 -2 -81.5t-11.5 -65t-29 -43t-54.5 -15.5zM389 49q30 0 36 34t6 112q0 39 -1 67t-5 45t-12.5 25t-23.5 8t-24 -8t-13 -25t-5 -45t-1 -67t1 -66.5t5 -45.5t13 -26t24 -8z" />
    <glyph glyph-name="guilsinglleft" unicode="&#x2039;" horiz-adv-x="197" 
d="M11 291l153 180l24 -26l-110 -154l110 -153l-24 -25z" />
    <glyph glyph-name="guilsinglright" unicode="&#x203a;" horiz-adv-x="197" 
d="M11 138l110 153l-110 154l24 26l153 -180l-153 -178z" />
    <glyph glyph-name="fraction" unicode="&#x2044;" horiz-adv-x="87" 
d="M-119 -100l286 882h70l-288 -882h-68z" />
    <glyph glyph-name="zerosuperior" unicode="&#x2070;" horiz-adv-x="304" 
d="M152 396q-45 0 -70 11.5t-36.5 39.5t-13.5 74.5t-2 115.5t2 114.5t13.5 73.5t36.5 39.5t70 11.5t69.5 -11.5t36.5 -39.5t14 -73.5t2 -114.5t-2 -115.5t-14 -74.5t-36.5 -39.5t-69.5 -11.5zM152 457q18 0 28 8.5t15.5 29t7 55t1.5 87.5q0 52 -1.5 86.5t-7 55t-16 29
t-27.5 8.5q-18 0 -28.5 -8.5t-15.5 -28.5t-6.5 -55t-1.5 -87q0 -53 1.5 -88t6.5 -55.5t15.5 -28.5t28.5 -8z" />
    <glyph glyph-name="foursuperior" unicode="&#x2074;" horiz-adv-x="295" 
d="M167 404v91h-137v49l128 324h81v-312h26l-6 -61h-20v-91h-72zM167 737l-73 -181h73v181z" />
    <glyph glyph-name="fivesuperior" unicode="&#x2075;" horiz-adv-x="303" 
d="M82 518q12 -32 27.5 -47t41.5 -15q35 0 43.5 26t8.5 77t-9.5 69t-36.5 18t-51 -21l-48 25l12 218h187l-7 -64h-117l-6 -114q11 9 28.5 14t35.5 5q26 0 42 -9t25 -27.5t12 -46t3 -63.5q0 -40 -3 -71.5t-15 -53.5t-37 -33.5t-69 -11.5q-46 0 -72 21.5t-47 66.5z" />
    <glyph glyph-name="sixsuperior" unicode="&#x2076;" horiz-adv-x="302" 
d="M205 751q-3 31 -14.5 48t-39.5 17q-32 0 -44 -31t-13 -105q14 14 37 22t50 8q31 0 49.5 -11.5t27.5 -31.5t11.5 -47.5t2.5 -60.5q0 -37 -3 -67t-15.5 -51.5t-36.5 -33t-66 -11.5q-44 0 -68.5 18.5t-36 49.5t-14 71.5t-2.5 85.5q0 75 6 124t19.5 78t36.5 41t56 12
q60 0 84.5 -24t27.5 -78zM99 606q0 -76 8 -112.5t42 -36.5t43.5 27t9.5 70q0 49 -8 71.5t-37 22.5q-15 0 -31.5 -11t-26.5 -31z" />
    <glyph glyph-name="sevensuperior" unicode="&#x2077;" horiz-adv-x="237" 
d="M40 404q1 58 10 116t23.5 111t33 98t39.5 78h-130l7 61h193v-46q-21 -29 -37.5 -76t-28.5 -103.5t-19 -118.5t-8 -120h-83z" />
    <glyph glyph-name="eightsuperior" unicode="&#x2078;" horiz-adv-x="303" 
d="M209 652q30 -14 47 -41.5t17 -78.5q0 -77 -28 -106.5t-92 -29.5q-65 0 -94 29.5t-29 106.5q0 54 13.5 81.5t48.5 40.5q-11 6 -19.5 13t-14.5 18t-9 28.5t-3 44.5q0 57 23 87.5t84 30.5q58 0 81.5 -29t23.5 -89q0 -27 -3.5 -45t-10.5 -30t-16 -19t-19 -12zM148 623
q-27 -8 -39 -26.5t-12 -61.5q0 -45 12 -63.5t41 -18.5t40 19.5t11 62.5q0 21 -2.5 35.5t-8.5 24t-16.5 16t-25.5 12.5zM155 682q19 8 32 23.5t13 54.5q0 35 -12.5 48t-32.5 13q-21 0 -33.5 -13t-12.5 -48q0 -20 3 -33.5t9 -22t14.5 -13.5t19.5 -9z" />
    <glyph glyph-name="ninesuperior" unicode="&#x2079;" horiz-adv-x="303" 
d="M89 529q2 -32 16.5 -52.5t43.5 -20.5q32 0 45 36t14 111q-16 -13 -39 -21t-48 -8q-32 0 -50 11.5t-27 31.5t-11.5 47.5t-2.5 59.5q0 37 3.5 65.5t15.5 47.5t36.5 28.5t66.5 9.5q44 0 68.5 -16.5t36 -45.5t14 -67.5t2.5 -83.5q0 -75 -6.5 -125.5t-20.5 -82t-37.5 -45
t-56.5 -13.5q-61 0 -89 28.5t-30 82.5zM204 676q0 38 -1.5 64.5t-6.5 43t-15.5 23.5t-28.5 7q-33 0 -42.5 -21.5t-9.5 -67.5t8 -68t37 -22q17 0 32.5 11.5t26.5 29.5z" />
    <glyph glyph-name="nsuperior" unicode="&#x207f;" horiz-adv-x="287" 
d="M187 404v255q0 16 -8 25.5t-26 9.5q-15 0 -28.5 -9.5t-24.5 -25.5v-255h-70v343h54q7 -13 9 -31q30 36 84 36q24 0 39.5 -8t24.5 -21.5t12.5 -30.5t3.5 -36v-252h-70z" />
    <glyph glyph-name="zeroinferior" unicode="&#x2080;" horiz-adv-x="304" 
d="M152 -77q-45 0 -70 11.5t-36.5 39.5t-13.5 74.5t-2 115.5t2 114.5t13.5 73.5t36.5 39.5t70 11.5t69.5 -11.5t36.5 -39.5t14 -73.5t2 -114.5t-2 -115.5t-14 -74.5t-36.5 -39.5t-69.5 -11.5zM152 -16q18 0 28 8.5t15.5 29t7 55t1.5 87.5q0 52 -1.5 86.5t-7 55t-16 29
t-27.5 8.5q-18 0 -28.5 -8.5t-15.5 -28.5t-6.5 -55t-1.5 -87q0 -53 1.5 -88t6.5 -55.5t15.5 -28.5t28.5 -8z" />
    <glyph glyph-name="oneinferior" unicode="&#x2081;" horiz-adv-x="199" 
d="M97 -69v371q-11 -9 -26 -15.5t-33 -6.5l-8 58q34 5 54.5 21.5t36.5 43.5h48v-472h-72z" />
    <glyph glyph-name="twoinferior" unicode="&#x2082;" horiz-adv-x="287" 
d="M33 -69v56q27 25 53.5 57.5t47.5 69t34 75.5t13 78q0 42 -10 59t-31 17q-13 0 -21 -5.5t-13 -19t-7.5 -35t-4.5 -52.5l-64 9q2 40 5 71t14 51t33 30.5t63 10.5q30 0 50 -7.5t32 -24t16.5 -42t4.5 -62.5q0 -41 -12 -80t-30.5 -75t-40.5 -66.5t-43 -54.5h135l-3 -60h-221z
" />
    <glyph glyph-name="threeinferior" unicode="&#x2083;" horiz-adv-x="293" 
d="M102 142l6 59h34q24 0 34.5 13.5t10.5 51.5q0 46 -10 61.5t-32 15.5t-30 -14.5t-12 -55.5l-64 7q2 34 7 58t17 38t31.5 20.5t50.5 6.5q37 0 58 -9.5t31.5 -27t13.5 -41.5t3 -53q0 -45 -11 -65t-33 -32q30 -8 43 -31.5t13 -74.5q0 -30 -2.5 -56.5t-14.5 -46.5t-36 -31.5
t-66 -11.5q-33 0 -54 7.5t-33 21.5t-18 34t-9 46l61 19q5 -33 15 -50t37 -17q34 0 43.5 22t9.5 67q0 35 -9.5 52t-44.5 17h-40z" />
    <glyph glyph-name="fourinferior" unicode="&#x2084;" horiz-adv-x="295" 
d="M167 -69v91h-137v49l128 324h81v-312h26l-6 -61h-20v-91h-72zM167 264l-73 -181h73v181z" />
    <glyph glyph-name="fiveinferior" unicode="&#x2085;" horiz-adv-x="303" 
d="M82 45q12 -32 27.5 -47t41.5 -15q35 0 43.5 26t8.5 77t-9.5 69t-36.5 18t-51 -21l-48 25l12 218h187l-7 -64h-117l-6 -114q11 9 28.5 14t35.5 5q26 0 42 -9t25 -27.5t12 -46t3 -63.5q0 -40 -3 -71.5t-15 -53.5t-37 -33.5t-69 -11.5q-46 0 -72 21.5t-47 66.5z" />
    <glyph glyph-name="sixinferior" unicode="&#x2086;" horiz-adv-x="302" 
d="M205 278q-3 31 -14.5 48t-39.5 17q-32 0 -44 -31t-13 -105q14 14 37 22t50 8q31 0 49.5 -11.5t27.5 -31.5t11.5 -47.5t2.5 -60.5q0 -37 -3 -67t-15.5 -51.5t-36.5 -33t-66 -11.5q-44 0 -68.5 18.5t-36 49.5t-14 71.5t-2.5 85.5q0 75 6 124t19.5 78t36.5 41t56 12
q60 0 84.5 -24t27.5 -78zM99 133q0 -76 8 -112.5t42 -36.5t43.5 27t9.5 70q0 49 -8 71.5t-37 22.5q-15 0 -31.5 -11t-26.5 -31z" />
    <glyph glyph-name="seveninferior" unicode="&#x2087;" horiz-adv-x="238" 
d="M44 -69q1 58 10 116t23.5 111t33 98t39.5 78h-130l7 61h193v-46q-21 -29 -37.5 -76t-28.5 -103.5t-19 -118.5t-8 -120h-83z" />
    <glyph glyph-name="eightinferior" unicode="&#x2088;" horiz-adv-x="303" 
d="M209 179q30 -14 47 -41.5t17 -78.5q0 -77 -28 -106.5t-92 -29.5q-65 0 -94 29.5t-29 106.5q0 54 13.5 81.5t48.5 40.5q-11 6 -19.5 13t-14.5 18t-9 28.5t-3 44.5q0 57 23 87.5t84 30.5q58 0 81.5 -29t23.5 -89q0 -27 -3.5 -45t-10.5 -30t-16 -19t-19 -12zM148 150
q-27 -8 -39 -26.5t-12 -61.5q0 -45 12 -63.5t41 -18.5t40 19.5t11 62.5q0 21 -2.5 35.5t-8.5 24t-16.5 16t-25.5 12.5zM155 209q19 8 32 23.5t13 54.5q0 35 -12.5 48t-32.5 13q-21 0 -33.5 -13t-12.5 -48q0 -20 3 -33.5t9 -22t14.5 -13.5t19.5 -9z" />
    <glyph glyph-name="nineinferior" unicode="&#x2089;" horiz-adv-x="303" 
d="M89 56q2 -32 16.5 -52.5t43.5 -20.5q32 0 45 36t14 111q-16 -13 -39 -21t-48 -8q-32 0 -50 11.5t-27 31.5t-11.5 47.5t-2.5 59.5q0 37 3.5 65.5t15.5 47.5t36.5 28.5t66.5 9.5q44 0 68.5 -16.5t36 -45.5t14 -67.5t2.5 -83.5q0 -75 -6.5 -125.5t-20.5 -82t-37.5 -45
t-56.5 -13.5q-61 0 -89 28.5t-30 82.5zM204 203q0 38 -1.5 64.5t-6.5 43t-15.5 23.5t-28.5 7q-33 0 -42.5 -21.5t-9.5 -67.5t8 -68t37 -22q17 0 32.5 11.5t26.5 29.5z" />
    <glyph glyph-name="Euro" unicode="&#x20ac;" horiz-adv-x="434" 
d="M422 135q-5 -28 -14 -54.5t-27.5 -47.5t-50 -33.5t-80.5 -12.5q-66 0 -105 20.5t-60 61t-27 101t-6 141.5h-45l12 41h33v46h-45l12 42h33q1 78 7.5 137t27 99.5t59.5 61t104 20.5q66 0 107 -13t65 -42l-41 -91q-20 35 -45.5 51.5t-74.5 16.5q-33 0 -53.5 -14t-32 -43
t-15 -74.5t-3.5 -108.5h154l-18 -42h-136v-46h116l-17 -41h-99q0 -71 4.5 -118.5t15 -75.5t28.5 -39.5t45 -11.5q25 0 42 6t27.5 18t17 31t11.5 45z" />
    <glyph glyph-name="uni2117" unicode="&#x2117;" horiz-adv-x="776" 
d="M393 -14q-175 0 -269 95t-94 290q0 194 92.5 289.5t270.5 95.5q177 0 265 -94.5t88 -290.5q0 -195 -92.5 -290t-260.5 -95zM393 36q58 0 111 18t93 58t63.5 103.5t23.5 155.5q0 91 -23.5 155t-63 104.5t-92.5 59t-112 18.5t-113.5 -18.5t-96.5 -58.5t-67 -104.5
t-25 -155.5q0 -92 25 -155.5t67 -103.5t96.5 -58t113.5 -18zM264 164v417q32 2 59.5 4t52.5 2q51 0 83.5 -7.5t51.5 -21.5t26.5 -35t7.5 -48q0 -66 -37 -102t-115 -36h-72v-173h-57zM399 382q45 0 66.5 22.5t21.5 64.5q0 35 -20 52.5t-69 17.5q-17 0 -37 -1.5t-40 -3.5v-152
h78z" />
    <glyph glyph-name="trademark" unicode="&#x2122;" horiz-adv-x="527" 
d="M86 441v276h-56v49h170v-49h-56v-276h-58zM444 441v215l-55 -215h-53l-57 216v-216h-49v325h73l61 -256l62 256h71v-325h-53z" />
    <glyph glyph-name="onethird" unicode="&#x2153;" horiz-adv-x="716" 
d="M150 -100l286 882h70l-288 -882h-68zM110 322v371q-11 -9 -26 -15.5t-33 -6.5l-8 58q34 5 54.5 21.5t36.5 43.5h48v-472h-72zM523 129l6 59h34q24 0 34.5 13.5t10.5 51.5q0 46 -10 61.5t-32 15.5t-30 -14.5t-12 -55.5l-64 7q2 34 7 58t17 38t31.5 20.5t50.5 6.5
q37 0 58 -9.5t31.5 -27t13.5 -41.5t3 -53q0 -45 -11 -65t-33 -32q30 -8 43 -31.5t13 -74.5q0 -30 -2.5 -56.5t-14.5 -46.5t-36 -31.5t-66 -11.5q-33 0 -54 7.5t-33 21.5t-18 34t-9 46l61 19q5 -33 15 -50t37 -17q34 0 43.5 22t9.5 67q0 35 -9.5 52t-44.5 17h-40z" />
    <glyph glyph-name="twothirds" unicode="&#x2154;" horiz-adv-x="716" 
d="M182 -100l286 882h70l-288 -882h-68zM46 322v56q27 25 53.5 57.5t47.5 69t34 75.5t13 78q0 42 -10 59t-31 17q-13 0 -21 -5.5t-13 -19t-7.5 -35t-4.5 -52.5l-64 9q2 40 5 71t14 51t33 30.5t63 10.5q30 0 50 -7.5t32 -24t16.5 -42t4.5 -62.5q0 -41 -12 -80t-30.5 -75
t-40.5 -66.5t-43 -54.5h135l-3 -60h-221zM523 129l6 59h34q24 0 34.5 13.5t10.5 51.5q0 46 -10 61.5t-32 15.5t-30 -14.5t-12 -55.5l-64 7q2 34 7 58t17 38t31.5 20.5t50.5 6.5q37 0 58 -9.5t31.5 -27t13.5 -41.5t3 -53q0 -45 -11 -65t-33 -32q30 -8 43 -31.5t13 -74.5
q0 -30 -2.5 -56.5t-14.5 -46.5t-36 -31.5t-66 -11.5q-33 0 -54 7.5t-33 21.5t-18 34t-9 46l61 19q5 -33 15 -50t37 -17q34 0 43.5 22t9.5 67q0 35 -9.5 52t-44.5 17h-40z" />
    <glyph glyph-name="oneeighth" unicode="&#x215b;" horiz-adv-x="705" 
d="M145 -100l286 882h70l-288 -882h-68zM110 322v371q-11 -9 -26 -15.5t-33 -6.5l-8 58q34 5 54.5 21.5t36.5 43.5h48v-472h-72zM618 166q30 -14 47 -41.5t17 -78.5q0 -77 -28 -106.5t-92 -29.5q-65 0 -94 29.5t-29 106.5q0 54 13.5 81.5t48.5 40.5q-11 6 -19.5 13t-14.5 18
t-9 28.5t-3 44.5q0 57 23 87.5t84 30.5q58 0 81.5 -29t23.5 -89q0 -27 -3.5 -45t-10.5 -30t-16 -19t-19 -12zM557 137q-27 -8 -39 -26.5t-12 -61.5q0 -45 12 -63.5t41 -18.5t40 19.5t11 62.5q0 21 -2.5 35.5t-8.5 24t-16.5 16t-25.5 12.5zM564 196q19 8 32 23.5t13 54.5
q0 35 -12.5 48t-32.5 13q-21 0 -33.5 -13t-12.5 -48q0 -20 3 -33.5t9 -22t14.5 -13.5t19.5 -9z" />
    <glyph glyph-name="threeeighths" unicode="&#x215c;" horiz-adv-x="712" 
d="M181 -100l286 882h70l-288 -882h-68zM625 166q30 -14 47 -41.5t17 -78.5q0 -77 -28 -106.5t-92 -29.5q-65 0 -94 29.5t-29 106.5q0 54 13.5 81.5t48.5 40.5q-11 6 -19.5 13t-14.5 18t-9 28.5t-3 44.5q0 57 23 87.5t84 30.5q58 0 81.5 -29t23.5 -89q0 -27 -3.5 -45
t-10.5 -30t-16 -19t-19 -12zM564 137q-27 -8 -39 -26.5t-12 -61.5q0 -45 12 -63.5t41 -18.5t40 19.5t11 62.5q0 21 -2.5 35.5t-8.5 24t-16.5 16t-25.5 12.5zM571 196q19 8 32 23.5t13 54.5q0 35 -12.5 48t-32.5 13q-21 0 -33.5 -13t-12.5 -48q0 -20 3 -33.5t9 -22
t14.5 -13.5t19.5 -9zM115 533l6 59h34q24 0 34.5 13.5t10.5 51.5q0 46 -10 61.5t-32 15.5t-30 -14.5t-12 -55.5l-64 7q2 34 7 58t17 38t31.5 20.5t50.5 6.5q37 0 58 -9.5t31.5 -27t13.5 -41.5t3 -53q0 -45 -11 -65t-33 -32q30 -8 43 -31.5t13 -74.5q0 -30 -2.5 -56.5
t-14.5 -46.5t-36 -31.5t-66 -11.5q-33 0 -54 7.5t-33 21.5t-18 34t-9 46l61 19q5 -33 15 -50t37 -17q34 0 43.5 22t9.5 67q0 35 -9.5 52t-44.5 17h-40z" />
    <glyph glyph-name="fiveeighths" unicode="&#x215d;" horiz-adv-x="710" 
d="M183 -100l286 882h70l-288 -882h-68zM95 436q12 -32 27.5 -47t41.5 -15q35 0 43.5 26t8.5 77t-9.5 69t-36.5 18t-51 -21l-48 25l12 218h187l-7 -64h-117l-6 -114q11 9 28.5 14t35.5 5q26 0 42 -9t25 -27.5t12 -46t3 -63.5q0 -40 -3 -71.5t-15 -53.5t-37 -33.5t-69 -11.5
q-46 0 -72 21.5t-47 66.5zM624 166q30 -14 47 -41.5t17 -78.5q0 -77 -28 -106.5t-92 -29.5q-65 0 -94 29.5t-29 106.5q0 54 13.5 81.5t48.5 40.5q-11 6 -19.5 13t-14.5 18t-9 28.5t-3 44.5q0 57 23 87.5t84 30.5q58 0 81.5 -29t23.5 -89q0 -27 -3.5 -45t-10.5 -30t-16 -19
t-19 -12zM563 137q-27 -8 -39 -26.5t-12 -61.5q0 -45 12 -63.5t41 -18.5t40 19.5t11 62.5q0 21 -2.5 35.5t-8.5 24t-16.5 16t-25.5 12.5zM570 196q19 8 32 23.5t13 54.5q0 35 -12.5 48t-32.5 13q-21 0 -33.5 -13t-12.5 -48q0 -20 3 -33.5t9 -22t14.5 -13.5t19.5 -9z" />
    <glyph glyph-name="seveneighths" unicode="&#x215e;" horiz-adv-x="706" 
d="M171 -100l286 882h70l-288 -882h-68zM618 166q30 -14 47 -41.5t17 -78.5q0 -77 -28 -106.5t-92 -29.5q-65 0 -94 29.5t-29 106.5q0 54 13.5 81.5t48.5 40.5q-11 6 -19.5 13t-14.5 18t-9 28.5t-3 44.5q0 57 23 87.5t84 30.5q58 0 81.5 -29t23.5 -89q0 -27 -3.5 -45
t-10.5 -30t-16 -19t-19 -12zM557 137q-27 -8 -39 -26.5t-12 -61.5q0 -45 12 -63.5t41 -18.5t40 19.5t11 62.5q0 21 -2.5 35.5t-8.5 24t-16.5 16t-25.5 12.5zM564 196q19 8 32 23.5t13 54.5q0 35 -12.5 48t-32.5 13q-21 0 -33.5 -13t-12.5 -48q0 -20 3 -33.5t9 -22
t14.5 -13.5t19.5 -9zM97 322q1 58 10 116t23.5 111t33 98t39.5 78h-130l7 61h193v-46q-21 -29 -37.5 -76t-28.5 -103.5t-19 -118.5t-8 -120h-83z" />
    <glyph glyph-name="minus" unicode="&#x2212;" horiz-adv-x="530" 
d="M30 340v63h470v-63h-470z" />
    <glyph glyph-name="zerooldstyle" unicode="&#xf730;" horiz-adv-x="450" 
d="M225 -11q-69 0 -108 19t-58.5 55t-24 88t-4.5 118t4.5 118.5t24 89t58.5 56t108 19.5t108 -19.5t58.5 -56t24 -89t4.5 -118.5t-5 -118t-24.5 -88t-58.5 -55t-107 -19zM225 63q36 0 56 12.5t29.5 38t12 64t2.5 91.5q0 52 -2.5 91t-12 65t-29.5 38.5t-56 12.5t-56.5 -12.5
t-30 -38.5t-12 -65t-2.5 -91q0 -53 2.5 -91.5t12 -64t30 -38t56.5 -12.5z" />
    <glyph glyph-name="oneoldstyle" unicode="&#xf731;" horiz-adv-x="216" 
d="M92 0v426q-20 -26 -71 -35l-12 70q44 8 70 25.5t48 56.5h59v-543h-94z" />
    <glyph glyph-name="twooldstyle" unicode="&#xf732;" horiz-adv-x="399" 
d="M27 0v71q47 26 91 63.5t78 81t54.5 90t20.5 90.5q0 45 -16 64.5t-62 19.5q-26 0 -42 -8.5t-25 -27t-13 -48t-6 -72.5l-82 10q2 55 8 96.5t24 69t51 41t88 13.5q51 0 83.5 -11.5t50.5 -32.5t24.5 -50t6.5 -64q0 -42 -19.5 -91t-52 -94t-74 -82t-86.5 -56h246l-3 -73h-345z
" />
    <glyph glyph-name="threeoldstyle" unicode="&#xf733;" horiz-adv-x="408" 
d="M97 -12q7 -23 14 -41t17.5 -31t26.5 -20t41 -7q35 0 54.5 9t29.5 27.5t12 46t2 63.5q0 31 -3 54t-12.5 37.5t-27 21.5t-47.5 7h-52l7 72h43q21 0 34 4.5t19.5 17.5t9 34.5t2.5 56.5q0 34 -1.5 58.5t-7.5 40.5t-19 23t-36 7q-21 0 -34 -6.5t-20.5 -19t-11 -32t-6.5 -45.5
l-87 8q8 51 18 83.5t26.5 51.5t42.5 26.5t67 7.5q57 0 89 -14.5t47.5 -40t19 -61t3.5 -78.5q0 -38 -5 -63.5t-14 -43t-23 -28.5t-32 -19q57 -13 78.5 -53t21.5 -113q0 -44 -4 -83.5t-22.5 -69t-56.5 -46.5t-107 -17q-48 0 -78 10.5t-48.5 30t-28.5 47t-17 61.5z" />
    <glyph glyph-name="fouroldstyle" unicode="&#xf734;" horiz-adv-x="370" 
d="M225 -194v194h-212v60l199 483h106v-469h48l-7 -74h-41v-194h-93zM225 392l-134 -318h134v318z" />
    <glyph glyph-name="fiveoldstyle" unicode="&#xf735;" horiz-adv-x="403" 
d="M78 -20q17 -45 40 -69t65 -24q34 0 53 11t28 33t10.5 55.5t1.5 78.5q0 40 -2 68.5t-9 46.5t-21.5 26.5t-38.5 8.5q-32 0 -52.5 -8.5t-37.5 -24.5l-66 34l22 328h282l-9 -85h-183l-13 -187q17 10 41.5 17.5t68.5 7.5q37 0 61 -14t37 -42t18 -70.5t5 -99.5q0 -63 -4.5 -112
t-23.5 -82.5t-56.5 -51.5t-104.5 -18q-36 0 -63 7.5t-48 23t-37 38.5t-31 54z" />
    <glyph glyph-name="sixoldstyle" unicode="&#xf736;" horiz-adv-x="433" 
d="M309 543q-2 24 -6.5 42.5t-14 30.5t-26.5 18.5t-43 6.5q-32 0 -51 -12t-29 -41.5t-13.5 -78t-4.5 -121.5q26 34 62 53.5t87 19.5q48 0 75 -14.5t41 -42.5t17.5 -68.5t3.5 -91.5q0 -58 -5 -105.5t-24 -81t-56.5 -52t-102.5 -18.5q-69 0 -107 26.5t-56.5 72t-22 107.5
t-3.5 134q0 121 9 197t30.5 119.5t56.5 59.5t88 16q46 0 78 -8t52.5 -26t30 -45.5t11.5 -66.5zM129 299q0 -68 2 -112.5t10.5 -71.5t26 -38t49.5 -11q31 0 49 12.5t27 35t11 53.5t2 68q0 43 -2 71.5t-9.5 45t-22.5 23t-42 6.5q-37 0 -60 -20t-41 -62z" />
    <glyph glyph-name="sevenoldstyle" unicode="&#xf737;" horiz-adv-x="333" 
d="M55 -193q4 96 18 191.5t36.5 181.5t52.5 159t66 126h-211l8 78h296v-62q-36 -45 -62 -120.5t-44.5 -166.5t-29 -191t-14.5 -196h-116z" />
    <glyph glyph-name="eightoldstyle" unicode="&#xf738;" horiz-adv-x="426" 
d="M288 374q28 -9 50 -24t36 -38t21.5 -56.5t7.5 -79.5q0 -59 -10.5 -97t-33.5 -61t-59 -32t-86 -9t-86 9t-59 32t-33.5 61t-10.5 97q0 46 5 79.5t17.5 56.5t35 38t58.5 24q-25 9 -42 22.5t-27.5 34t-15 48t-4.5 64.5q0 41 8 72t27 51.5t50 31t77 10.5q89 0 125.5 -40
t36.5 -125q0 -74 -22 -112t-66 -57zM209 335q-25 -8 -42 -18t-27.5 -27.5t-15 -43.5t-4.5 -66q0 -71 18.5 -100.5t71.5 -29.5q27 0 44 7t27 22.5t14 40.5t4 60q0 39 -4.5 64t-15 42t-28 28t-42.5 21zM218 408q19 9 32.5 19t22.5 25t13 37.5t4 56.5q0 53 -16 73t-55 20
t-56.5 -20t-17.5 -73q0 -34 4 -56.5t12.5 -37.5t22.5 -25t34 -19z" />
    <glyph glyph-name="nineoldstyle" unicode="&#xf739;" horiz-adv-x="433" 
d="M107 -2q5 -51 28 -82t74 -31q32 0 52 17t31 52t15 89t4 128q-23 -34 -58.5 -55t-89.5 -21q-48 0 -75 17t-41 47.5t-17.5 72.5t-3.5 93q0 59 5 102t24 71.5t56.5 42t102.5 13.5q69 0 107 -24t56.5 -67t22 -102.5t3.5 -131.5q0 -121 -10 -202t-32 -130t-58.5 -69.5
t-88.5 -20.5q-94 0 -136.5 41.5t-46.5 119.5zM303 260q0 66 -2 108t-10.5 65.5t-26 32t-48.5 8.5t-49 -8t-27 -25.5t-11.5 -45t-2.5 -67.5q0 -41 2 -70.5t9.5 -48t23 -27t42.5 -8.5q38 0 61 22t39 64z" />
    <glyph glyph-name="bsuperior" unicode="&#xf740;" horiz-adv-x="282" 
d="M30 404v486l71 11v-172q13 10 30.5 16.5t42.5 6.5q29 0 45 -12t23.5 -35.5t9 -56.5t1.5 -75q0 -35 -2 -66.5t-11 -56t-28.5 -39t-53.5 -14.5q-31 0 -49.5 8.5t-29.5 22.5q-3 -14 -9 -24h-40zM97 480q5 -9 17 -16.5t29 -7.5q28 0 36 26.5t8 92.5q0 67 -6.5 93t-31.5 26
q-18 0 -31 -9t-21 -22v-183z" />
    <glyph glyph-name="dsuperior" unicode="&#xf741;" horiz-adv-x="290" 
d="M200 404q-4 7 -4 24q-10 -12 -29 -21.5t-45 -9.5q-33 0 -51.5 13.5t-27.5 37t-11 54t-2 63.5q0 42 2 76.5t11.5 59t29 38t54.5 13.5q20 0 36.5 -5.5t27.5 -13.5v157l69 12v-498h-60zM191 669q-16 25 -50 25q-30 0 -37.5 -29.5t-7.5 -97.5q0 -54 6.5 -83t30.5 -29
q19 0 30 6t17 15.5t8 21.5t3 24v147z" />
    <glyph glyph-name="esuperior" unicode="&#xf742;" horiz-adv-x="289" 
d="M94 565q0 -22 2 -42t8 -35t17 -24t29 -9q27 0 38.5 17.5t14.5 51.5l56 -8q-7 -58 -31 -88.5t-81 -30.5q-42 0 -65.5 15t-35 40t-14 57t-2.5 66q0 36 2.5 68.5t14 56.5t34 38t63.5 14q42 0 65 -14t34 -36t13 -49.5t2 -54.5v-33h-164zM194 633q0 26 -10.5 45.5t-38.5 19.5
q-32 0 -41 -24.5t-10 -61.5h100v21z" />
    <glyph glyph-name="isuperior" unicode="&#xf743;" horiz-adv-x="129" 
d="M30 404v343h70v-343h-70zM30 797v94h70v-94h-70z" />
    <glyph glyph-name="lsuperior" unicode="&#xf744;" horiz-adv-x="129" 
d="M30 404v489l70 13v-502h-70z" />
    <glyph glyph-name="msuperior" unicode="&#xf745;" horiz-adv-x="410" 
d="M311 404v246q0 20 -6 32t-25 12q-21 0 -40 -43q1 -6 1 -12.5v-14.5v-220h-70v246q0 20 -6 32t-25 12t-40 -44v-246h-70v343h59q1 -5 2 -12.5t2 -17.5q14 19 30.5 26.5t37.5 7.5q26 0 43 -11.5t25 -28.5q15 23 32 32t40 9q24 0 39.5 -8t24.5 -21.5t12.5 -30.5t3.5 -36
v-252h-70z" />
    <glyph glyph-name="rsuperior" unicode="&#xf746;" horiz-adv-x="188" 
d="M30 404v343h58q2 -7 3 -17t1 -21q17 17 34.5 27.5t43.5 10.5v-61q-23 0 -39.5 -9t-30.5 -34v-239h-70z" />
    <glyph glyph-name="ssuperior" unicode="&#xf747;" horiz-adv-x="264" 
d="M177 653q-2 23 -10.5 34t-28.5 11t-28 -10t-8 -26t9.5 -26t24.5 -18t31.5 -16t31.5 -20.5t24.5 -31.5t9.5 -48q0 -54 -25 -80t-79 -26q-51 0 -75 27t-24 91l59 8q0 -29 8 -49t34 -20q23 0 32 11t9 32q0 17 -10 28.5t-25 20.5t-32 18t-32 21.5t-25 30.5t-10 46
q0 43 20.5 68t76.5 25q29 0 47 -6t28.5 -17.5t15 -29t6.5 -39.5z" />
    <glyph glyph-name="tsuperior" unicode="&#xf748;" horiz-adv-x="213" 
d="M201 449q-9 -18 -29 -33t-52 -15q-37 0 -57 20t-20 68v204h-30v54h30v81l70 13v-94h66v-54h-66v-198q0 -17 5.5 -25t19.5 -8q12 0 19.5 7t14.5 24z" />
    <glyph glyph-name="apple" unicode="&#xf8ff;" horiz-adv-x="558" 
 />
    <glyph glyph-name="ff" unicode="&#xfb00;" horiz-adv-x="474" 
d="M263 0v476h-132v-476h-94v476h-43l8 67h35v76q0 54 7 89.5t22 56t39 29t59 8.5q34 0 55 -9.5t32 -22.5l-17 -67q-21 26 -52 26q-15 0 -24.5 -3.5t-15.5 -16t-8.5 -36t-2.5 -63.5v-67h132v76q0 54 7 89.5t22 56t39 29t59 8.5q34 0 55 -9.5t32 -22.5l-18 -67q-21 26 -51 26
q-15 0 -25 -3.5t-16 -16t-8.5 -36t-2.5 -63.5v-67h114l-8 -67h-106v-476h-93z" />
    <glyph glyph-name="fi" unicode="&#xfb01;" horiz-adv-x="421" 
d="M287 0v476h-156v-476h-94v476h-43l8 67h35v76q0 54 6.5 89.5t21 56t37.5 29t55 8.5t54.5 -9.5t32.5 -22.5l-1 -67q-9 11 -24.5 17.5t-33.5 6.5q-19 0 -30 -7t-16 -21.5t-6.5 -36.5t-1.5 -52v-67h250v-543h-94zM287 654v130h94v-130h-94z" />
    <glyph glyph-name="fl" unicode="&#xfb02;" horiz-adv-x="421" 
d="M286 0v695q-14 9 -29.5 14.5t-30 8.5t-26 4.5t-15.5 1.5q-17 0 -27.5 -4.5t-16.5 -17.5t-8 -35t-2 -57v-67h98l-8 -67h-90v-476h-94v476h-43l8 67h35v76q0 54 7 89.5t24.5 56t46.5 29t73 8.5q19 0 43.5 -7t41.5 -16q26 8 52.5 12.5t54.5 7.5v-799h-94z" />
    <glyph glyph-name="ffi" unicode="&#xfb03;" horiz-adv-x="646" 
d="M513 0v476h-157v-476h-93v476h-132v-476h-94v476h-43l8 67h35v76q0 54 7 89.5t22 56t39 29t59 8.5q34 0 55 -9.5t32 -22.5l-17 -67q-20 23 -58 23q-13 0 -21.5 -4t-14 -16t-7.5 -35t-2 -61v-67h132v76q0 54 6.5 89.5t21 56t37 29t54.5 8.5t54.5 -9.5t32.5 -22.5l-1 -67
q-10 9 -26 15.5t-39 6.5q-14 0 -23 -3.5t-14 -15.5t-7.5 -35t-2.5 -61v-67h250v-543h-93zM513 654v130h93v-130h-93z" />
    <glyph glyph-name="ffl" unicode="&#xfb04;" horiz-adv-x="663" 
d="M511 0v698q-16 11 -40 21t-50 10q-20 0 -32.5 -4t-19.5 -16.5t-10 -36t-3 -62.5v-67h98l-7 -67h-91v-476h-93v476h-132v-476h-94v476h-43l8 67h35v76q0 54 7 89.5t22 56t39 29t59 8.5q34 0 55 -9.5t32 -22.5l-17 -67q-20 23 -58 23q-13 0 -21.5 -4t-14 -16t-7.5 -35
t-2 -61v-67h132v76q0 54 7 89.5t24.5 56t46 29t72.5 8.5q19 0 43.5 -7t42.5 -16q26 8 53 12.5t53 7.5v-799h-94z" />
    <glyph glyph-name="DEL" horiz-adv-x="558" 
 />
    <glyph glyph-name="NUL" horiz-adv-x="558" 
 />
    </font>
</defs>
</svg>
